<svg width="261" height="169" viewBox="0 0 261 169" fill="none" xmlns="http://www.w3.org/2000/svg">
<path d="M261 167.09H0V169H261V167.09Z" fill="#85848B"/>
<path d="M206.78 133.362C206.78 134.831 198.228 139.114 188.07 139.114C177.912 139.114 169.996 134.831 169.996 133.362C169.996 131.892 178.23 132.365 188.398 132.365C198.566 132.365 206.78 131.89 206.78 133.362Z" fill="#504F60"/>
<path opacity="0.2" d="M206.78 133.362C206.78 134.831 198.228 139.115 188.07 139.115C177.912 139.115 169.996 134.831 169.996 133.362" fill="black"/>
<path d="M104.479 106.4C106.128 106.612 107.839 106.746 109.418 106.233C109.666 106.156 109.94 105.984 109.915 105.735C109.897 105.644 109.859 105.559 109.803 105.486C109.208 104.592 108.708 103.638 108.311 102.639C108.295 102.587 108.263 102.542 108.219 102.51C108.168 102.491 108.111 102.491 108.06 102.51C107.331 102.702 106.702 103.172 105.979 103.374C105.61 103.475 105.225 103.504 104.845 103.459C104.516 103.421 104.069 103.15 103.77 103.185C103.939 104.273 104.352 105.289 104.479 106.4Z" fill="#A9DEF9"/>
<path d="M135.66 103.643C136.747 102.896 137.873 102.111 138.515 100.958C138.56 100.889 138.587 100.809 138.592 100.727C138.581 100.645 138.549 100.568 138.5 100.502C137.889 99.5294 137.102 98.6789 136.18 97.9945C135.698 98.3349 135.264 98.7368 134.887 99.19C134.613 99.4789 133.857 99.9371 133.85 100.378C133.85 100.627 134.138 100.916 134.272 101.125C134.454 101.394 134.625 101.668 134.79 101.947C134.884 102.084 135.747 103.588 135.66 103.643Z" fill="#A9DEF9"/>
<path d="M110.942 109.735C110.961 109.991 110.891 110.246 110.743 110.457C110.627 110.574 110.483 110.659 110.325 110.706C108.02 111.533 105.352 110.502 103.052 111.316C102.579 111.483 102.132 111.724 101.657 111.884C101.09 112.054 100.506 112.158 99.916 112.193C99.1028 112.27 98.2847 112.32 97.4691 112.342C96.8493 112.386 96.2266 112.331 95.6239 112.18C95.3226 112.103 95.0408 111.963 94.797 111.769C94.5532 111.576 94.3529 111.333 94.209 111.057C94.0839 110.809 94.059 110.523 94.1394 110.258C94.1754 110.167 94.2267 110.082 94.291 110.009C94.4469 109.833 94.63 109.685 94.8331 109.568L95.6811 109.02C96.0787 108.738 96.5108 108.509 96.9667 108.337C97.3024 108.228 97.658 108.18 97.9987 108.088C99.1899 107.74 100.1 106.793 100.945 105.884L102.099 104.652C102.207 104.516 102.344 104.406 102.5 104.33C102.66 104.277 102.83 104.261 102.997 104.283C104.118 104.363 105.2 104.726 106.143 105.339C106.384 105.52 106.644 105.674 106.919 105.797C107.595 106.061 108.463 105.862 109.087 105.528C109.383 105.369 109.318 105.279 109.443 104.995C109.567 104.711 109.87 104.529 110.134 104.788C110.213 104.878 110.27 104.986 110.298 105.102C110.547 105.924 110.452 106.808 110.452 107.67C110.445 107.805 110.462 107.94 110.502 108.068C110.565 108.198 110.641 108.322 110.728 108.437C110.746 108.468 110.762 108.499 110.775 108.532C110.928 108.913 110.985 109.326 110.942 109.735Z" fill="#514E7F"/>
<path d="M110.942 109.735C110.961 109.991 110.891 110.246 110.743 110.457C110.627 110.574 110.483 110.659 110.325 110.706C108.02 111.533 105.352 110.502 103.052 111.316C102.579 111.483 102.132 111.724 101.657 111.884C101.09 112.054 100.506 112.158 99.916 112.193C99.1028 112.27 98.2847 112.32 97.4691 112.342C96.8493 112.386 96.2266 112.331 95.6239 112.18C95.3226 112.103 95.0408 111.963 94.797 111.769C94.5532 111.576 94.3529 111.333 94.209 111.057C94.0839 110.809 94.059 110.523 94.1394 110.258C94.1754 110.167 94.2267 110.082 94.291 110.009C94.4253 110.29 94.5223 110.663 94.6069 110.798C94.7211 110.997 94.8764 111.17 95.0625 111.304C95.2486 111.439 95.4612 111.532 95.6861 111.577C96.0227 111.598 96.3601 111.555 96.6808 111.45C98.7696 110.932 100.99 110.925 102.997 110.14C103.686 109.869 104.342 109.508 105.066 109.344C105.79 109.179 106.558 109.224 107.304 109.162C108.483 109.067 109.624 108.711 110.785 108.524C110.935 108.909 110.989 109.324 110.942 109.735Z" fill="#464353"/>
<path d="M140.939 103.491C140.83 104.368 140.275 105.122 139.666 105.762C139.057 106.402 138.368 106.978 137.883 107.715C137.286 108.629 137.018 109.762 136.242 110.534C135.944 110.815 135.609 111.054 135.247 111.244C134.841 111.484 134.412 111.681 133.966 111.834C132.808 112.205 131.559 112.12 130.348 112.031C129.955 112.027 129.566 111.952 129.199 111.809C129.033 111.724 128.873 111.626 128.722 111.515C128.418 111.328 128.163 111.072 127.976 110.768C127.884 110.603 127.858 110.409 127.904 110.225C127.973 110.023 128.092 109.841 128.25 109.697C128.522 109.413 128.815 109.15 129.125 108.908C129.551 108.633 129.934 108.297 130.264 107.912C130.466 107.607 130.615 107.27 130.704 106.915C130.88 106.294 130.988 105.655 131.025 105.01C131.023 104.582 131.068 104.154 131.157 103.735C131.341 103.078 131.828 102.49 131.773 101.81C131.751 101.713 131.76 101.611 131.798 101.519C131.856 101.447 131.937 101.396 132.027 101.377C132.407 101.225 132.808 101.132 133.215 101.1C133.42 101.086 133.625 101.118 133.816 101.192C134.007 101.267 134.179 101.384 134.32 101.533C134.489 101.738 134.601 102.032 134.849 102.111C134.972 102.145 135.102 102.15 135.227 102.126C135.839 102.064 136.486 101.987 136.968 101.591C137.191 101.39 137.37 101.146 137.494 100.873C137.618 100.6 137.685 100.304 137.689 100.004C137.689 99.7777 137.587 99.5411 137.938 99.5063C138.201 99.4714 138.41 99.7553 138.545 99.9296C139.029 100.58 139.527 101.26 139.708 102.052C139.779 102.024 139.854 102.01 139.93 102.009C140.085 102.008 140.238 102.044 140.376 102.115C140.514 102.185 140.633 102.288 140.723 102.415C140.921 102.736 140.998 103.118 140.939 103.491Z" fill="#514E7F"/>
<path d="M140.939 103.491C140.83 104.368 140.275 105.122 139.666 105.762C139.057 106.402 138.368 106.978 137.883 107.715C137.286 108.629 137.018 109.762 136.242 110.534C135.944 110.815 135.609 111.054 135.247 111.244C134.841 111.484 134.412 111.681 133.966 111.834C132.808 112.205 131.559 112.12 130.348 112.031C129.955 112.027 129.566 111.952 129.199 111.809C129.033 111.724 128.873 111.626 128.722 111.515C128.418 111.328 128.163 111.072 127.976 110.768C128.209 110.656 128.463 110.595 128.722 110.589C129.259 110.619 129.652 111.127 130.167 111.284C130.9 111.505 131.631 110.987 132.375 110.81C132.86 110.696 133.37 110.726 133.85 110.561C134.25 110.407 134.619 110.182 134.941 109.899C135.383 109.583 135.776 109.204 136.108 108.773C136.383 108.343 136.612 107.885 136.791 107.406C137.184 106.489 137.646 105.603 138.174 104.756C138.252 104.622 138.346 104.498 138.455 104.388C138.572 104.28 138.704 104.206 138.835 104.111C139.333 103.735 139.539 103.115 139.713 102.507C139.76 102.323 139.826 102.143 139.91 101.972C140.065 101.97 140.218 102.007 140.356 102.077C140.494 102.148 140.613 102.251 140.703 102.378C140.917 102.707 141.001 103.103 140.939 103.491Z" fill="#464353"/>
<path d="M88.7954 25.8435C89.4144 26.308 89.9237 26.9032 90.2874 27.5868C90.6356 28.2692 92.6424 33.5639 92.5255 34.3334C93.1795 33.6735 95.7582 33.5664 96.4197 32.9064C96.6957 32.63 98.1852 31.2503 98.409 30.929C98.6328 30.6077 100.294 29.9328 100.475 29.5941C101.154 28.3763 95.6612 23.7615 96.365 22.5586C96.4039 22.5033 96.424 22.4369 96.4222 22.3693C96.4061 22.3125 96.3742 22.2615 96.3301 22.2224C95.88 21.7616 95.2832 21.4752 94.7411 21.134C94.199 20.7928 93.6768 20.3171 93.5301 19.6896C93.0131 19.9279 92.5386 20.2492 92.1251 20.6409C91.1172 21.5059 90.1266 22.3884 89.1535 23.2883C88.773 23.6419 88.037 24.1126 87.8604 24.6182C87.6515 25.1611 88.4324 25.5471 88.7954 25.8435Z" fill="#A1616A"/>
<path d="M97.6879 23.8835C96.8451 24.4507 96.0575 25.0961 95.3355 25.8111C94.6541 26.486 94.0075 27.268 93.8434 28.2119C93.7738 28.583 93.7837 28.9591 93.7265 29.3351C93.4779 30.9664 92.0704 32.1618 91.4487 33.6884C91.2686 34.1596 91.1362 34.6477 91.0533 35.1454C90.8787 36.0887 90.783 37.0451 90.7674 38.0044C90.7524 38.9333 91.6626 39.5734 91.9958 40.4401C92.329 41.3067 92.4185 42.1983 92.5876 43.0874C92.9059 44.766 93.4903 46.3848 94.0797 47.9936C95.3056 51.3856 99.2794 60.7622 100.505 64.1567C104.263 63.2128 114.264 61.0436 117.592 59.0537C118.701 58.3913 109.895 50.9174 111.081 50.4019C111.149 50.3913 111.214 50.3651 111.269 50.3253C111.325 50.2855 111.371 50.2333 111.404 50.1726C111.436 50.112 111.454 50.0447 111.456 49.976C111.458 49.9073 111.443 49.8391 111.415 49.7768C110.228 44.5817 106.518 40.3131 104.835 35.2549C104.25 33.4992 103.201 31.9999 102.405 30.3313C101.684 28.8196 101.299 27.1485 100.436 25.7115C100.273 25.4154 100.06 25.15 99.8066 24.927C99.5914 24.7617 99.3587 24.6206 99.1128 24.5061C98.6204 24.267 98.1628 24.1251 97.6879 23.8835Z" fill="#514E7F"/>
<path d="M88.9943 25.2532C92.2424 25.2532 94.8754 22.6162 94.8754 19.3633C94.8754 16.1104 92.2424 13.4734 88.9943 13.4734C85.7463 13.4734 83.1133 16.1104 83.1133 19.3633C83.1133 22.6162 85.7463 25.2532 88.9943 25.2532Z" fill="#A1616A"/>
<path d="M94.9774 22.1302C95.2705 21.8595 95.6386 21.6841 96.0333 21.6272C96.428 21.5702 96.8306 21.6345 97.188 21.8114C97.5859 22.0181 97.9341 22.4365 97.8445 22.8749L100.761 22.9197C101.226 22.907 101.69 22.9496 102.144 23.0467C102.601 23.1464 103.009 23.4027 103.298 23.7714C103.333 23.8187 103.372 23.876 103.432 23.8835C103.481 23.8842 103.528 23.8684 103.566 23.8387C104.015 23.6133 104.521 23.5266 105.019 23.5896C106.595 23.6917 108.052 24.4812 109.288 25.4674C109.511 25.6209 109.684 25.8365 109.786 26.0875C109.888 26.4188 109.766 26.8347 110.034 27.0713C110.034 29.8108 110.974 32.371 111.601 35.0407C111.713 35.5164 112.168 35.9373 112.484 36.3109C112.874 36.725 113.193 37.2014 113.426 37.7205C113.958 39.1052 113.225 40.7339 113.742 42.1236C113.961 42.7114 114.384 43.1945 114.737 43.705C115.202 44.2946 115.496 45.0012 115.587 45.7472C115.61 46.0809 115.567 46.4172 115.587 46.7434C115.621 47.1921 115.704 47.6357 115.836 48.0658C116.048 48.8694 116.27 49.6722 116.502 50.4741C116.88 51.7691 117.373 53.1663 118.531 53.8562C115.734 54.3318 112.785 54.7976 110.119 53.8238C109.747 53.6968 109.394 53.52 109.07 53.2983C108.107 52.6109 107.642 51.4354 107.227 50.3247C106.764 49.0795 106.294 47.8118 106.2 46.4869C106.201 46.0655 106.141 45.6461 106.023 45.2417C105.752 44.5194 105.029 44.0836 104.372 43.6826C103.631 43.2758 102.959 42.7528 102.383 42.1336C102.097 41.8217 101.878 41.4543 101.739 41.0542C101.601 40.6541 101.545 40.2298 101.577 39.8075C101.627 39.3966 101.788 39.0006 101.803 38.5872C101.818 38.1737 101.634 37.7006 101.239 37.591C99.2023 36.9733 98.23 34.5576 97.7774 32.4756C97.5821 31.3995 97.4946 30.3066 97.5163 29.2131L97.4889 27.0887C97.2079 26.8326 96.9818 26.5219 96.8245 26.1756C96.6672 25.8292 96.5819 25.4544 96.5738 25.0739C96.6008 24.852 96.5966 24.6273 96.5614 24.4065C96.463 24.1366 96.3029 23.8935 96.0939 23.6967C95.6442 23.2345 95.2677 22.7063 94.9774 22.1302Z" fill="#464353"/>
<path d="M88.7133 28.8644C88.6462 29.5219 88.7954 30.1968 88.6487 30.8418C88.5915 31.0909 88.492 31.3399 88.4199 31.5715C88.1994 32.4999 88.2948 33.4755 88.6909 34.3434C89.0865 35.2028 89.5602 36.024 90.1059 36.7965C90.2905 37.0602 90.4424 37.3454 90.5585 37.6458C90.6525 37.9611 90.7109 38.2861 90.7325 38.6145C90.8765 39.9334 91.1075 41.2412 91.4238 42.5295C91.7024 43.6453 94.8655 53.1837 95.6015 54.0678C95.7351 54.2636 95.9376 54.4015 96.1685 54.4539C96.335 54.4601 96.5005 54.426 96.6509 54.3542L98.1429 53.7814C98.2698 53.7426 98.3874 53.6782 98.4886 53.5922C98.6284 53.4285 98.7044 53.2198 98.7024 53.0044C98.8094 51.7891 95.6388 42.1834 95.236 41.0353C94.0175 37.5686 92.3961 34.2264 91.6029 30.6376C91.3816 29.6414 91.2647 28.1073 90.5361 27.3128C90.2352 26.9841 90.3372 27.1236 89.9766 27.2954C89.7944 27.3746 89.6182 27.467 89.4494 27.5719C89.2383 27.7188 89.0627 27.9111 88.9354 28.1347C88.808 28.3584 88.7322 28.6077 88.7133 28.8644Z" fill="#464353"/>
<path d="M93.2417 35.4417C93.642 37.5611 94.0548 39.6755 94.4651 41.7949L100.304 40.2632C100.351 39.6506 100.025 39.0828 99.8066 38.5199C99.2744 37.1825 99.262 35.6932 98.8318 34.3185C98.506 33.2725 97.9391 32.3112 97.6332 31.2577C97.4566 30.6451 97.3671 30.0125 97.193 29.3924C97.0064 28.7834 96.777 28.1884 96.5067 27.6117C96.179 26.7754 95.7515 25.9818 95.2335 25.2483C94.4875 25.5272 93.6918 25.851 93.2665 26.5259C93.0484 26.9062 92.924 27.333 92.9035 27.7711C92.8015 29.0836 93.2765 30.4035 93.1198 31.7085C92.9585 32.9513 92.9996 34.2121 93.2417 35.4417Z" fill="#A9DEF9"/>
<path d="M100.401 63.6337C100.729 64.8789 100.254 66.1889 99.8662 67.4217C99.2822 69.2786 98.884 71.189 98.6776 73.1248C98.6523 73.6175 98.5533 74.1035 98.3841 74.5668C98.2001 74.9827 97.8868 75.3339 97.6729 75.7298C97.0861 76.7709 97.101 78.041 97.2278 79.2314C97.3124 80.0159 97.4392 80.7979 97.5959 81.57C97.7873 82.5139 98.0236 83.5001 97.7475 84.4215C98.2101 84.3194 98.5234 84.9196 98.4936 85.3903C98.4637 85.861 98.312 86.3865 98.5383 86.7925C99.1103 87.0017 99.1152 87.7886 99.0978 88.3988C99.1073 89.4568 99.2409 90.51 99.4957 91.5368C100.361 95.7041 101.279 99.8599 102.251 104.004C104.352 104.657 106.807 105.336 108.811 104.432C109.184 104.266 109.557 103.999 109.641 103.596C109.663 103.378 109.636 103.159 109.562 102.953L108.612 99.4913C108.381 98.6545 108.149 97.7903 108.271 96.9311C108.363 96.2911 108.642 95.6012 108.328 95.0359C108.222 94.8416 108.052 94.6897 107.928 94.5054C107.431 93.7757 107.692 92.7994 107.732 91.9153C107.747 91.7169 107.734 91.5172 107.692 91.3226C107.624 91.0953 107.529 90.8771 107.408 90.6726C106.623 89.1462 106.246 87.4422 106.314 85.7265C106.344 85.5076 106.314 85.2847 106.227 85.0815C106.167 84.9976 106.113 84.9094 106.066 84.8175C106.029 84.6576 106.047 84.4899 106.118 84.3419C105.833 84.1253 105.576 83.8743 105.352 83.5947C105.49 83.5088 105.606 83.3927 105.693 83.2551C105.78 83.1174 105.834 82.9619 105.851 82.8002C105.869 82.6386 105.85 82.475 105.795 82.3218C105.741 82.1686 105.652 82.0299 105.536 81.9161C105.637 81.8957 105.731 81.8475 105.807 81.7769C105.883 81.7062 105.937 81.616 105.965 81.5161C105.992 81.4163 105.992 81.3107 105.963 81.2112C105.934 81.1117 105.879 81.0221 105.802 80.9523C105.68 80.8677 105.519 80.8303 105.431 80.7033C105.297 80.519 105.407 80.2625 105.516 80.0657L106.095 79.0172C106.528 78.2377 106.625 77.2739 107.09 76.5268C107.757 75.4385 108.192 74.2256 108.622 73.0252L110.295 68.4004L111.422 69.3792C111.797 69.6663 112.112 70.0252 112.347 70.4351C112.507 70.8403 112.609 71.2663 112.648 71.7003C113.061 74.2107 114.637 76.3873 115.222 78.8603C115.351 79.4107 115.438 79.9885 115.754 80.4592C115.867 80.6037 115.968 80.757 116.057 80.9175C116.139 81.1623 116.182 81.4187 116.184 81.6771C116.236 82.1829 116.396 82.6716 116.654 83.1099C116.911 83.5482 117.26 83.9259 117.676 84.2173C118.231 84.5984 118.919 84.8599 119.22 85.4626C119.28 85.6492 119.364 85.8274 119.469 85.993C119.738 86.3168 120.317 86.3541 120.431 86.7601C120.496 86.9867 120.377 87.2582 120.503 87.4574C120.575 87.5496 120.671 87.621 120.779 87.6641L122.398 88.4735C124.209 89.38 125.134 91.4621 126.469 92.9788C126.93 93.4727 127.339 94.0136 127.688 94.5926C128.264 95.6261 128.531 96.9236 129.505 97.5811C129.767 97.7172 130.006 97.8946 130.212 98.1066C130.517 98.5101 130.405 99.0754 130.433 99.5835C130.46 100.092 130.848 100.697 131.331 100.542C131.162 101.158 131.162 101.807 131.331 102.423C133.448 102.314 135.468 101.494 137.065 100.096C137.537 99.6831 137.992 99.1551 137.997 98.5275C138.005 98.4192 137.98 98.3111 137.928 98.2162C137.832 98.0936 137.706 97.9983 137.562 97.9397C136.048 97.1179 135.593 95.2127 134.827 93.6661C134.158 92.3013 133.168 91.1259 132.34 89.8582C130.54 87.1312 129.311 83.8313 126.588 82.0307C125.989 81.6347 125.293 81.2836 124.992 80.6286C124.825 80.2625 124.805 79.8441 124.674 79.4655C124.542 79.087 124.226 78.7184 123.823 78.7184C124.047 78.1705 124.002 77.503 124.017 76.9103C124.032 76.6473 124.002 76.3835 123.928 76.1308C123.824 75.8589 123.69 75.5999 123.527 75.3588C122.817 74.1541 122.462 72.7725 122.503 71.374C122.523 70.6543 122.649 69.9121 122.433 69.2248C122.324 68.8786 122.132 68.5623 122 68.2286C121.802 67.6239 121.697 66.9923 121.69 66.3558L121.54 63.9624C121.518 63.1654 121.415 62.3726 121.232 61.5965C120.735 59.7386 120.237 51.9559 118.534 51.0793C116.831 50.2026 113.904 56.1922 111.986 56.3092C111.138 56.3446 110.3 56.5066 109.5 56.7899C108.224 57.2681 107.155 58.1597 106.113 59.0313L102.587 61.9975C101.841 62.6126 101.224 63.2003 100.401 63.6337Z" fill="#464353"/>
<path d="M83.4763 12.8234C84.2522 11.7624 85.5851 11.1996 86.898 11.1523C88.211 11.1049 89.5041 11.5184 90.6803 12.1036C91.0275 12.3013 91.3986 12.4537 91.7844 12.5569C92.4061 12.6839 93.0974 12.5145 93.6594 12.8059C94.4054 13.2019 94.5497 14.2105 94.485 15.0473C94.4204 15.8841 94.2637 16.8131 94.7088 17.5378C94.8667 17.7445 95.0104 17.9617 95.139 18.1878C95.3305 18.6187 95.2186 19.1168 95.1042 19.5725C94.8133 19.3235 94.6491 18.9474 94.3905 18.6585C94.1319 18.3696 93.6818 18.1754 93.361 18.392C93.0402 18.6087 93.0452 19.0022 93.0278 19.3558C93.0104 19.7095 92.9209 20.1329 92.5876 20.2474C92.4485 20.2791 92.303 20.2683 92.17 20.2164C92.037 20.1644 91.9226 20.0738 91.8416 19.956C91.2722 19.2587 91.5009 18.1455 90.9365 17.4432C90.6157 17.0447 90.081 16.8504 89.7851 16.432C89.5514 16.1033 89.4917 15.6849 89.2878 15.3313C89.0839 14.9776 88.6089 14.7186 88.2931 14.9627C88.1853 15.0658 88.0954 15.1861 88.027 15.3188C87.8301 15.6013 87.5438 15.8091 87.2144 15.9085C86.885 16.0079 86.5317 15.9932 86.2117 15.8667C85.9672 15.7164 85.7026 15.6015 85.4259 15.5255C85.2448 15.5164 85.0647 15.5583 84.9061 15.6463C84.7475 15.7343 84.6166 15.865 84.5282 16.0236C84.3497 16.3405 84.2636 16.7011 84.2795 17.0646C84.2795 17.5627 84.3691 18.0932 84.0856 18.4916C83.9778 18.6417 83.8428 18.7701 83.6877 18.8702C83.2724 19.1367 82.693 19.316 82.3101 19.0122C82.1803 18.8911 82.0837 18.7386 82.0297 18.5694C81.9757 18.4002 81.9661 18.2199 82.0017 18.0459C82.0763 17.6992 82.1743 17.3581 82.2951 17.0248C82.514 16.2527 82.228 15.3836 82.4667 14.6563C82.7168 14.0014 83.0566 13.3845 83.4763 12.8234Z" fill="#464353"/>
<path d="M86.627 30.3936C86.5896 30.5751 86.6087 30.7637 86.6817 30.934C86.7556 31.05 86.8562 31.1465 86.9751 31.2154C87.8114 31.7371 88.7625 32.0458 89.7453 32.1145C89.8791 32.1168 90.0103 32.1509 90.1283 32.2141C90.362 32.3685 90.377 32.7122 90.2899 32.9861C90.1739 33.2445 90.1137 33.5246 90.1134 33.808C90.1855 34.3285 90.8022 34.5551 91.3219 34.6323C92.0505 34.7245 92.8487 34.6771 93.4257 34.2214C93.8165 33.8644 94.1144 33.4173 94.2935 32.9189C95.7209 29.634 96.2207 26.0029 97.6655 22.7279C97.775 22.5141 97.8481 22.2835 97.8818 22.0455C97.8971 21.9264 97.8803 21.8054 97.833 21.6951C97.7858 21.5847 97.7099 21.489 97.6133 21.4179C97.3447 21.2511 96.927 21.3457 96.7454 21.0842C96.6559 20.9522 96.6658 20.7729 96.5863 20.6334C96.4197 20.3371 95.982 20.3844 95.6836 20.2126C95.4498 20.088 95.2882 19.8315 95.0271 19.7817C94.8989 19.7745 94.7708 19.7972 94.653 19.8483C94.5351 19.8993 94.4308 19.9771 94.3482 20.0756C93.5003 20.8676 93.0551 21.9907 92.5827 23.0517C91.8612 24.6779 91.0166 26.2465 90.0562 27.7437C90.1681 27.5694 89.519 26.2494 89.2654 26.1921C88.8203 26.1025 88.2508 26.8845 88.0096 27.1759C87.2527 28.095 86.7731 29.2112 86.627 30.3936Z" fill="#A9DEF9"/>
<path opacity="0.1" d="M95.6612 20.4442C95.4826 20.4472 95.3069 20.4903 95.1472 20.5705C94.9876 20.6507 94.8479 20.7658 94.7387 20.9074C94.4726 21.2536 94.4204 21.7118 94.3532 22.1526C94.1269 23.5492 93.6293 24.8878 92.8885 26.0925" fill="black"/>
<path opacity="0.1" d="M96.9294 21.4379C96.6829 21.4434 96.442 21.5131 96.2305 21.6402C96.019 21.7672 95.8442 21.9473 95.7234 22.1626C95.5588 22.5543 95.4564 22.9694 95.42 23.3929C95.2068 24.3317 94.7956 25.2139 94.2139 25.9805" fill="black"/>
<path d="M156.029 70.1263V67.0332C156.028 64.7562 155.124 62.5726 153.516 60.9628C151.908 59.3529 149.728 58.4486 147.454 58.4486H25.4838C23.2102 58.4486 21.0297 59.3529 19.4218 60.9628C17.8139 62.5726 16.9103 64.7562 16.9096 67.0332V72.7363L156.029 70.1263Z" fill="#33323D"/>
<path d="M59.4149 54.8225C59.4149 54.8225 59.0668 76.4546 62.8963 83.5723C66.7259 90.69 68.3671 121.654 68.3671 121.654C68.3671 121.654 108.513 125.813 136.488 116.673C164.463 107.533 223.99 103.795 223.99 103.795L213.959 36.0818C213.959 36.0818 164.401 32.899 136.209 46.3649C108.018 59.8308 59.4149 54.8225 59.4149 54.8225Z" fill="#8DD070"/>
<path opacity="0.1" d="M59.4149 54.8225C59.4149 54.8225 59.0668 76.4546 62.8963 83.5723C66.7259 90.69 68.3671 121.654 68.3671 121.654C68.3671 121.654 108.513 125.813 136.488 116.673C164.463 107.533 223.99 103.795 223.99 103.795L213.959 36.0818C213.959 36.0818 164.401 32.899 136.209 46.3649C108.018 59.8308 59.4149 54.8225 59.4149 54.8225Z" fill="black"/>
<path d="M68.3 62.7247C68.3 62.7247 67.0442 80.5738 70.1948 86.2769C73.3455 91.9801 73.4922 117.44 73.4922 117.44C73.4922 117.44 109.622 119.119 135.322 110.357C161.022 101.596 215.028 95.9125 215.028 95.9125L208.891 40.5372C208.891 40.5372 164.205 40.0765 138.124 52.4092C112.044 64.7419 68.3 62.7247 68.3 62.7247Z" fill="#8DD070"/>
<path opacity="0.1" d="M137.727 100.218C142.868 99.5772 145.922 90.106 144.549 79.064C143.176 68.022 137.895 59.5905 132.754 60.2318C127.614 60.8731 124.56 70.3442 125.933 81.3862C127.306 92.4282 132.587 100.86 137.727 100.218Z" fill="black"/>
<path opacity="0.2" d="M186.789 3.09564C186.789 3.09564 138.644 15.2989 115.94 36.7791C93.2367 58.2593 45.4421 68.4303 45.4421 68.4303C45.4421 68.4303 51.7385 89.1236 57.5623 94.7221C63.3862 100.321 74.4322 129.29 74.4322 129.29C74.4322 129.29 113.914 120.907 137.736 103.603C161.559 86.2994 217.08 64.4456 217.08 64.4456L186.789 3.09564Z" fill="black"/>
<path d="M44.7185 65.3322C44.7185 65.3322 51.0123 86.0279 56.8312 91.6264C62.6501 97.225 73.7011 126.192 73.7011 126.192C73.7011 126.192 113.188 117.811 137.013 100.507C160.838 83.2037 216.354 61.3574 216.354 61.3574L186.063 0C186.063 0 137.92 12.2032 115.217 33.6834C92.513 55.1636 44.7185 65.3322 44.7185 65.3322Z" fill="#8DD070"/>
<path opacity="0.1" d="M44.7185 65.3322C44.7185 65.3322 51.0123 86.0279 56.8312 91.6264C62.6501 97.225 73.7011 126.192 73.7011 126.192C73.7011 126.192 113.188 117.811 137.013 100.507C160.838 83.2037 216.354 61.3574 216.354 61.3574L186.063 0C186.063 0 137.92 12.2032 115.217 33.6834C92.513 55.1636 44.7185 65.3322 44.7185 65.3322Z" fill="black"/>
<path d="M55.5879 70.1238C55.5879 70.1238 59.8625 87.4998 64.6097 91.9577C69.3568 96.4156 77.2919 120.598 77.2919 120.598C77.2919 120.598 112.19 111.089 133.966 94.8516C155.743 78.6138 205.407 56.6305 205.407 56.6305L182.602 5.7953C182.602 5.7953 139.932 19.0869 118.887 38.8412C97.842 58.5955 55.5879 70.1238 55.5879 70.1238Z" fill="#8DD070"/>
<path opacity="0.1" d="M133.161 84.471C137.858 82.2808 137.862 72.328 133.172 62.2408C128.482 52.1535 120.873 45.7517 116.176 47.9418C111.48 50.132 111.476 60.0848 116.166 70.172C120.856 80.2593 128.465 86.6611 133.161 84.471Z" fill="black"/>
<path opacity="0.1" d="M159.321 73.1622V159.083C159.321 160.059 159.129 161.025 158.756 161.927C158.383 162.828 157.837 163.647 157.147 164.337C156.458 165.027 155.64 165.574 154.74 165.947C153.84 166.32 152.875 166.512 151.901 166.512H24.3325C22.3655 166.511 20.4794 165.728 19.0888 164.335C17.6983 162.942 16.9171 161.053 16.9171 159.083V64.5004C20.5725 65.8602 20.5725 65.8602 24.3325 65.7456H151.901C153.866 65.7456 155.751 66.5265 157.142 67.917C158.534 69.3074 159.317 71.1938 159.321 73.1622Z" fill="black"/>
<path d="M159.321 74.2555V160.176C159.32 162.147 158.538 164.036 157.147 165.43C155.755 166.823 153.868 167.605 151.901 167.605H24.3325C22.3655 167.605 20.4794 166.822 19.0888 165.429C17.6983 164.035 16.9171 162.146 16.9171 160.176V65.5912C20.5725 66.9485 20.5725 66.9485 24.3325 66.8364H151.901C153.867 66.8364 155.752 67.6177 157.143 69.0086C158.534 70.3996 159.318 72.2867 159.321 74.2555Z" fill="#504F60"/>
<path opacity="0.1" d="M158.958 106.021V133.499H132.35C128.744 133.45 125.302 131.981 122.769 129.41C120.236 126.839 118.816 123.372 118.816 119.76C118.816 116.148 120.236 112.681 122.769 110.11C125.302 107.539 128.744 106.07 132.35 106.021H158.958Z" fill="black"/>
<path d="M159.321 105.289V132.771H132.713C129.107 132.723 125.665 131.254 123.132 128.683C120.599 126.111 119.179 122.645 119.179 119.033C119.179 115.421 120.599 111.954 123.132 109.383C125.665 106.812 129.107 105.343 132.713 105.294L159.321 105.289Z" fill="#33323D"/>
<path opacity="0.1" d="M133.989 125.118C136.943 125.118 139.338 122.72 139.338 119.761C139.338 116.803 136.943 114.404 133.989 114.404C131.035 114.404 128.64 116.803 128.64 119.761C128.64 122.72 131.035 125.118 133.989 125.118Z" fill="black"/>
<path d="M134.352 124.391C137.306 124.391 139.701 121.993 139.701 119.034C139.701 116.075 137.306 113.677 134.352 113.677C131.398 113.677 129.003 116.075 129.003 119.034C129.003 121.993 131.398 124.391 134.352 124.391Z" fill="#A9DEF9"/>
<path d="M205.507 105.052C205.718 107.346 203.985 109.573 204.49 111.819C204.599 112.3 204.805 112.753 204.88 113.239C205.089 114.574 204.296 115.836 203.537 116.952L197.022 126.525C196.761 126.946 196.449 127.333 196.092 127.676C194.849 128.787 192.979 128.672 191.342 129.003C190.192 129.237 189.106 129.718 188.159 130.413C188.12 130.447 188.095 130.494 188.089 130.546C188.083 130.598 188.098 130.65 188.129 130.692C188.4 131.061 188.758 131.356 189.172 131.55C189.585 131.745 190.041 131.832 190.497 131.805C190.668 132.032 190.497 132.363 190.248 132.525C189.898 132.774 189.418 132.834 189.348 133.426C189.323 133.633 189.365 133.843 189.467 134.024C189.73 134.427 190.138 134.711 190.606 134.818C192.862 135.508 195.299 134.295 196.987 132.644C198.676 130.993 199.887 128.909 201.543 127.228C202.46 126.299 203.502 125.502 204.447 124.6C206.332 122.802 207.797 120.615 209.212 118.426C209.637 117.766 210.065 117.089 210.244 116.324C210.423 115.56 210.338 114.788 210.54 114.048C210.803 113.077 211.512 112.305 212.101 111.49C213.258 109.896 214.029 107.946 213.877 105.984C213.725 104.021 212.509 102.081 210.659 101.414C210.086 101.183 209.453 101.145 208.856 101.304C208.098 101.538 207.538 102.166 207.021 102.766L205.778 104.198C205.468 104.512 205.223 104.885 205.057 105.294C204.977 105.5 204.958 105.724 205.002 105.94C205.046 106.156 205.151 106.354 205.305 106.512" fill="#FBBEBE"/>
<path opacity="0.05" d="M205.507 105.052C205.718 107.346 203.985 109.573 204.49 111.819C204.599 112.3 204.805 112.753 204.88 113.239C205.089 114.574 204.296 115.836 203.537 116.952L197.022 126.525C196.761 126.946 196.449 127.333 196.092 127.676C194.849 128.787 192.979 128.672 191.342 129.003C190.192 129.237 189.106 129.718 188.159 130.413C188.12 130.447 188.095 130.494 188.089 130.546C188.083 130.598 188.098 130.65 188.129 130.692C188.4 131.061 188.758 131.356 189.172 131.55C189.585 131.745 190.041 131.832 190.497 131.805C190.668 132.032 190.497 132.363 190.248 132.525C189.898 132.774 189.418 132.834 189.348 133.426C189.323 133.633 189.365 133.843 189.467 134.024C189.73 134.427 190.138 134.711 190.606 134.818C192.862 135.508 195.299 134.295 196.987 132.644C198.676 130.993 199.887 128.909 201.543 127.228C202.46 126.299 203.502 125.502 204.447 124.6C206.332 122.802 207.797 120.615 209.212 118.426C209.637 117.766 210.065 117.089 210.244 116.324C210.423 115.56 210.338 114.788 210.54 114.048C210.803 113.077 211.512 112.305 212.101 111.49C213.258 109.896 214.029 107.946 213.877 105.984C213.725 104.021 212.509 102.081 210.659 101.414C210.086 101.183 209.453 101.145 208.856 101.304C208.098 101.538 207.538 102.166 207.021 102.766L205.778 104.198C205.468 104.512 205.223 104.885 205.057 105.294C204.977 105.5 204.958 105.724 205.002 105.94C205.046 106.156 205.151 106.354 205.305 106.512" fill="black"/>
<path d="M210.438 164.101C209.015 164.97 207.242 165.023 205.589 164.821C205.323 164.789 205.007 164.769 204.843 164.975C204.594 165.274 204.887 165.723 205.191 165.954C206.166 166.688 207.312 167.16 208.52 167.326C209.599 167.48 210.688 167.552 211.778 167.543C214.762 167.595 217.746 167.645 220.683 167.217C220.857 167.204 221.026 167.154 221.18 167.072C221.37 166.939 221.501 166.739 221.548 166.512C221.75 165.745 221.362 164.923 220.775 164.39C220.188 163.857 219.435 163.561 218.699 163.274L216.112 162.266C215.506 162.029 214.533 161.402 213.874 161.451C212.636 161.541 211.465 163.499 210.438 164.101Z" fill="#3F3D56"/>
<path opacity="0.05" d="M210.438 164.101C209.015 164.97 207.242 165.023 205.589 164.821C205.323 164.789 205.007 164.769 204.843 164.975C204.594 165.274 204.887 165.723 205.191 165.954C206.166 166.688 207.312 167.16 208.52 167.326C209.599 167.48 210.688 167.552 211.778 167.543C214.762 167.595 217.746 167.645 220.683 167.217C220.857 167.204 221.026 167.154 221.18 167.072C221.37 166.939 221.501 166.739 221.548 166.512C221.75 165.745 221.362 164.923 220.775 164.39C220.188 163.857 219.435 163.561 218.699 163.274L216.112 162.266C215.506 162.029 214.533 161.402 213.874 161.451C212.636 161.541 211.465 163.499 210.438 164.101Z" fill="black"/>
<path d="M212.251 129.718C211.174 131.152 210.06 132.809 210.326 134.584C210.47 135.541 211.005 136.385 211.398 137.269C211.93 138.469 212.208 139.76 212.482 141.045C212.885 142.922 213.29 144.805 213.536 146.713C213.817 148.867 212.497 155.101 212.375 157.27C212.345 157.793 212.283 158.358 211.92 158.734C211.778 158.884 211.589 159.003 211.524 159.198C211.487 159.385 211.517 159.579 211.611 159.745C212.218 161.115 213.459 162.136 214.844 162.719C216.229 163.302 219.569 164.308 221.078 164.36C221.277 164.382 221.479 164.356 221.665 164.283C221.866 164.16 222.024 163.979 222.118 163.763C223.2 161.69 222.16 154.324 222.175 151.985C222.19 150.035 222.65 148.098 222.565 146.15C222.496 144.586 222.068 143.057 221.926 141.498C221.678 138.943 222.145 136.375 222.615 133.85C222.973 131.912 223.334 129.974 223.794 128.062C224.075 126.894 224.401 125.716 225.037 124.702C225.535 123.898 226.233 123.225 226.813 122.461C228.421 120.349 229.135 117.689 228.802 115.054C228.767 114.805 225.072 115.993 224.746 116.135C223.417 116.699 222.194 117.486 221.131 118.464C220.275 119.28 219.601 120.371 218.853 121.285C217.793 122.579 216.747 123.881 215.715 125.193C214.536 126.692 213.381 128.2 212.251 129.718Z" fill="#464353"/>
<path opacity="0.05" d="M212.251 129.631C211.174 131.065 210.06 132.724 210.326 134.497C210.47 135.456 211.005 136.3 211.398 137.184C211.93 138.382 212.208 139.675 212.482 140.957C212.885 142.838 213.29 144.721 213.536 146.626C213.817 148.782 212.497 155.014 212.375 157.183C212.345 157.706 212.283 158.274 211.92 158.65C211.778 158.797 211.589 158.916 211.524 159.11C211.486 159.298 211.517 159.492 211.611 159.658C212.218 161.031 213.459 162.049 214.844 162.647C216.229 163.245 219.569 163.765 221.078 163.815C221.277 163.837 221.479 163.81 221.665 163.738C221.866 163.617 222.025 163.435 222.118 163.22C223.2 161.148 222.16 154.254 222.175 151.913C222.19 149.96 222.65 148.025 222.565 146.075C222.496 144.511 222.068 142.982 221.926 141.426C221.678 138.868 222.145 136.3 222.615 133.775C222.973 131.84 223.334 129.902 223.794 127.987C224.075 126.819 224.401 125.641 225.037 124.628C225.535 123.823 226.233 123.151 226.813 122.386C228.421 120.275 229.136 117.614 228.802 114.979C228.767 114.73 225.072 115.918 224.746 116.06C223.417 116.626 222.195 117.414 221.131 118.391C220.275 119.206 219.601 120.297 218.853 121.211C217.793 122.504 216.747 123.807 215.715 125.121C214.536 126.608 213.381 128.112 212.251 129.631Z" fill="black"/>
<path d="M200.27 98.1241C203.603 98.1241 206.305 95.4179 206.305 92.0797C206.305 88.7415 203.603 86.0354 200.27 86.0354C196.936 86.0354 194.234 88.7415 194.234 92.0797C194.234 95.4179 196.936 98.1241 200.27 98.1241Z" fill="#FBBEBE"/>
<path d="M205.706 91.8257C206.263 92.7164 206.994 93.4855 207.855 94.0871C208.716 94.6888 209.689 95.1105 210.716 95.3272L210.261 96.9834C209.475 99.8275 208.593 102.836 206.399 104.808C206.648 103.845 206.33 102.816 205.788 101.979C205.245 101.142 204.485 100.485 203.739 99.835L200.265 96.8215C200.164 96.7398 200.08 96.6401 200.016 96.5277C199.93 96.3152 199.93 96.0777 200.016 95.8652C200.459 94.4855 201.722 93.6238 202.751 92.6923C203.268 92.2107 203.729 91.6727 204.126 91.0885C204.82 90.0973 205.25 91.0935 205.706 91.8257Z" fill="#FBBEBE"/>
<path d="M192.32 86.003L192.183 84.8673C193.135 85.1164 194.04 84.3045 194.65 83.4652C195.259 82.6259 195.823 81.6372 196.751 81.2861C197.877 80.8627 199.071 81.5351 200.148 82.1029C201.353 82.7728 202.676 83.2041 204.044 83.3731C204.263 83.3803 204.479 83.4155 204.688 83.4777C205.39 83.7267 205.723 84.6083 205.825 85.4078C205.927 86.2072 205.9 87.0564 206.245 87.7687C206.494 88.3091 206.956 88.7101 207.24 89.2431C207.986 90.6726 207.265 92.6276 208.043 94.0297L206.108 92.254C205.932 92.0921 205.683 91.9228 205.487 92.0598C205.333 92.1694 205.32 92.4059 205.258 92.5952C205.071 93.1481 204.38 93.3125 203.88 93.0933C203.38 92.8742 203.015 92.3985 202.637 91.9651C201.782 90.954 200.762 90.0649 199.568 89.6341C199.045 89.4382 198.486 89.356 197.929 89.3929C197.372 89.4298 196.828 89.585 196.336 89.8482C195.433 90.3588 194.771 91.5492 193.665 91.5916C192.148 91.6488 191.516 88.8197 190.815 87.7015C191.072 87.5081 191.252 87.2305 191.325 86.9172C191.398 86.6039 191.358 86.275 191.213 85.988C191.315 85.9457 192.297 85.8286 192.32 86.003Z" fill="#464353"/>
<path d="M117.671 50.6659C117.186 51.0978 116.738 51.5693 116.331 52.0755C115.921 52.5887 115.703 53.229 115.714 53.886C115.716 54.0766 115.777 54.2618 115.888 54.4165C115.945 54.4905 116.023 54.545 116.112 54.5722C116.202 54.5994 116.297 54.5981 116.385 54.5684C116.485 54.5174 116.571 54.442 116.634 54.3493C116.897 54.033 117.176 53.7304 117.47 53.4427C117.577 53.3357 117.718 53.2236 117.863 53.2634C117.927 53.2864 117.985 53.3249 118.032 53.3755C118.199 53.5203 118.321 53.7107 118.382 53.9234C118.469 54.3044 118.248 54.6855 117.997 54.9843C117.746 55.2832 117.45 55.5696 117.348 55.9457C117.309 56.045 117.309 56.1552 117.348 56.2545C117.396 56.3263 117.463 56.3833 117.542 56.4188C117.898 56.6152 118.293 56.7308 118.698 56.7575C119.104 56.7842 119.511 56.7213 119.889 56.5733C120.387 56.3715 120.829 56.0253 121.341 55.846C121.563 55.7852 121.778 55.7018 121.983 55.597C122.13 55.4993 122.255 55.3735 122.353 55.2269C122.451 55.0803 122.519 54.9158 122.552 54.7428C122.617 54.3971 122.63 54.0437 122.59 53.6943C122.528 52.3414 122.239 51.0086 121.734 49.7519C121.705 49.6708 121.655 49.5988 121.59 49.5427C121.515 49.497 121.429 49.4737 121.341 49.4754C120.705 49.4082 119.66 49.082 119.046 49.3185C118.831 49.4365 118.646 49.6017 118.504 49.8017C118.39 49.9287 117.671 50.499 117.671 50.6659Z" fill="#A1616A"/>
<path d="M117.47 50.103C117.47 49.4954 116.724 48.0285 117.91 47.9313C117.91 47.2813 116.992 46.8779 117.164 46.188C117.219 45.9589 117.412 45.7721 117.435 45.538C117.509 44.8731 116.311 44.5119 116.51 43.8744C116.584 43.6253 116.848 43.4809 116.905 43.2343C117.039 42.659 116.012 42.4025 115.993 41.8123C115.993 41.6131 116.104 41.4263 116.095 41.227C116.095 40.978 115.878 40.7887 115.759 40.572C115.448 40.0167 115.6 39.1575 115.033 38.8711C115.408 38.9034 115.53 38.3456 115.376 38.0044C115.222 37.6632 114.906 37.3668 114.903 36.9883C114.922 36.8511 114.922 36.712 114.903 36.5749C114.799 36.2113 114.205 36.1814 114.105 35.8277C114.092 35.692 114.088 35.5556 114.093 35.4193C114.053 35.1379 113.764 34.9586 113.493 34.8789C113.212 34.831 112.941 34.734 112.693 34.5925C112.519 34.4605 112.317 34.2413 112.131 34.3434C112.061 34.3857 112.026 34.4654 111.974 34.5252C111.75 34.7867 111.323 34.6721 111.042 34.4804C110.211 33.915 109.798 32.9014 109.622 31.9127C109.445 30.924 109.45 29.9029 109.229 28.9242C109.161 28.6191 109.071 28.3195 108.96 28.0276C108.866 27.7786 108.562 27.3876 108.542 27.136C108.498 26.5632 109.681 26.9542 110.131 27.0115C110.568 27.0542 111 27.1376 111.422 27.2605C111.872 27.4308 112.313 27.6245 112.742 27.8408C114.538 28.6353 116.706 28.7324 118.149 30.0673C118.624 30.5056 119.024 31.0809 119.641 31.2801C119.923 31.3344 120.202 31.4068 120.476 31.4968C121.16 31.8181 121.267 32.7271 121.64 33.3846C121.757 33.5582 121.859 33.7415 121.946 33.9325C122.018 34.1577 122.051 34.3934 122.045 34.6298L122.097 36.3557C122.182 39.2471 122.267 42.146 121.958 45.02C121.859 45.9689 121.71 46.9451 121.991 47.8566C122.065 48.1057 122.17 48.3398 122.239 48.5913C122.301 48.8862 122.332 49.1866 122.334 49.4879L122.373 50.6061C122.387 50.6931 122.368 50.782 122.319 50.8551C122.277 50.8889 122.229 50.913 122.177 50.9255C122.124 50.938 122.07 50.9386 122.018 50.9274C120.464 50.7879 118.892 49.9113 117.425 50.4417" fill="#464353"/>
<path d="M188.396 136.024C198.553 136.024 206.787 134.832 206.787 133.362C206.787 131.891 198.553 130.699 188.396 130.699C178.238 130.699 170.004 131.891 170.004 133.362C170.004 134.832 178.238 136.024 188.396 136.024Z" fill="#504F60"/>
<path d="M204.218 133.491C203.895 132.104 203.694 130.886 203.694 130.886C203.694 130.886 203.768 129.377 203.092 128.244V127.865V125.076C203.285 124.569 203.52 124.08 203.796 123.614C204.293 122.737 203.796 119.525 203.796 119.525C203.796 119.525 201.938 114.994 202.388 112.12C202.838 109.246 198.574 99.3593 198.574 99.3593C198.6 98.4058 198.734 97.4583 198.974 96.5351C199.02 96.3411 199.038 96.1416 199.029 95.9424C199.029 95.9175 199.029 95.8951 199.029 95.8702C199.029 95.8453 199.029 95.8851 199.029 95.8926C198.964 93.9974 197.467 90.446 197.467 90.446L197.668 83.6769C197.668 83.6769 198.623 79.6922 197.067 74.3252C196.522 72.4549 196.174 70.9581 195.953 69.8026C195.928 69.6731 195.903 69.5535 195.883 69.4265C199.088 68.9284 201.538 68.5299 201.538 68.5299C201.538 68.5299 199.678 60.7373 198.422 59.3725C197.166 58.0078 196.162 53.7217 196.162 53.7217C196.162 53.7217 195.508 48.2203 196.564 46.6114C197.621 45.0026 197.77 42.2282 197.77 42.2282C197.77 42.2282 200.18 40.4849 200.483 39.6954C200.787 38.9059 201.287 37.1626 201.287 36.2387C201.287 35.3147 200.986 34.4953 201.085 33.9972C201.185 33.4992 200.381 31.6587 200.784 30.7821C200.889 30.5128 200.942 30.2266 200.943 29.9378C200.944 29.9295 200.944 29.9212 200.943 29.9129C200.947 29.1458 200.876 28.3801 200.732 27.6267C200.035 27.0372 199.222 26.6018 198.345 26.3491L198.293 26.1399L198.156 25.592C198.08 25.5414 198.001 25.4949 197.92 25.4525V25.2533L197.897 24.4613L198.275 22.6831C199.021 19.5899 194.896 19.1292 194.896 19.1292C194.646 18.6548 194.229 18.2894 193.727 18.1031C192.899 17.8118 193.59 22.7553 193.976 23.0841C194.267 23.3331 195.167 24.8722 195.602 25.6343L195.672 25.7588C195.604 25.8201 195.54 25.8868 195.483 25.9581L195.639 27.0314L195.664 27.1958C195.391 27.5358 195.169 27.9143 195.005 28.319C195.005 28.319 195.751 29.1458 195.609 30.0623C195.468 30.9788 195.841 32.1419 195.858 32.2041C195.813 32.1518 195.284 31.579 194.754 31.7185C194.224 31.8579 192.745 32.3037 192.745 32.3037C192.745 32.3037 191.641 32.498 191.75 32.7421C191.86 32.9861 191.004 34.057 191.004 34.057L188.035 31.2378C188.005 31.1531 187.973 31.0685 187.948 30.9888C187.827 30.5823 187.744 30.1654 187.699 29.7435C188.023 29.6665 188.34 29.5658 188.649 29.4422C188.961 29.3349 189.243 29.1538 189.47 28.9142C189.771 28.5581 189.828 28.0749 189.95 27.6316C190.183 26.765 190.696 25.9954 191.051 25.1711C191.654 23.7781 191.848 22.2423 191.611 20.743C191.565 20.281 191.409 19.8368 191.156 19.448C190.671 18.7806 189.791 18.5091 189.151 17.9761C188.512 17.4432 188.1 16.6288 187.354 16.2328C186.68 15.8717 185.862 15.914 185.101 16.0386C183.614 16.284 182.187 16.8042 180.891 17.5727C180.458 17.8217 179.981 18.128 179.483 18.0359C179.055 17.9587 178.737 17.6175 178.469 17.2888C178.472 17.2752 178.476 17.2618 178.481 17.2489C178.469 17.2368 178.458 17.2234 178.449 17.2091C178.134 17.9085 177.976 18.6685 177.986 19.4355C177.986 19.5551 177.986 19.6846 178.001 19.7917V19.9162C178.001 19.9511 178.001 19.9859 178.001 20.0183C178.001 20.0714 177.993 20.1242 177.979 20.1752C177.916 20.3276 177.821 20.4644 177.7 20.5762C177.609 20.68 177.526 20.7907 177.452 20.9074C177.452 20.8676 177.476 20.8277 177.491 20.7854C177.302 21.0627 177.195 21.3883 177.183 21.7243C177.169 21.9688 177.249 22.2094 177.407 22.3967C177.556 22.5415 177.718 22.6716 177.892 22.7852C177.833 23.114 177.803 23.4473 177.802 23.7814C177.808 24.7717 178.068 25.7438 178.559 26.6038C179.049 27.4637 179.753 28.1823 180.602 28.6901C180.637 28.7723 180.669 28.8569 180.702 28.9391C181.082 29.9353 181.368 31.1058 181.241 32.1767C181.241 32.2539 181.219 32.3336 181.206 32.4108C181.194 32.488 181.132 32.493 181.1 32.5353C181.1 32.5353 176.193 32.5852 175.039 31.5392C173.886 30.4932 172.125 34.0969 172.125 34.0969C172.125 34.0969 170.367 34.4381 170.014 34.0969C169.661 33.7557 167.604 34.0495 167.604 34.0495C166.762 33.2991 165.665 32.8984 164.538 32.9288C163.855 32.4091 163.101 31.9897 162.3 31.6836L162.245 31.6637C161.892 31.5346 161.513 31.4869 161.139 31.5242C161.139 31.5242 158.727 29.5319 158.023 28.456C157.319 27.3801 153.97 23.4078 153.955 23.3904V23.1986L153.917 22.6208C153.818 22.6365 153.717 22.6448 153.616 22.6457C153.599 22.5885 153.574 22.5212 153.549 22.444C153.356 21.8804 153.118 21.3333 152.838 20.8078C152.838 20.8078 152.838 20.0781 153.049 19.8938C153.261 19.7095 152.962 17.0322 152.962 17.0322C152.962 17.0322 150.789 11.9442 148.842 15.7422C148.842 15.7422 145.162 18.2003 148.25 21.0643C148.25 21.0643 149.493 21.662 149.658 22.1352C149.772 22.4415 150.19 23.3007 150.471 23.8785L150.598 24.1276L150.563 24.1574L150.608 24.6356L150.627 24.8199C150.046 25.1511 149.65 25.4799 149.747 25.7264C149.918 26.1484 150.036 26.5901 150.098 27.0414C150.098 27.0414 154.37 32.4009 154.922 34.6896C154.922 34.6896 166.378 41.5085 170.146 41.9941L169.479 45.3936C169.382 46.316 169.332 47.2429 169.33 48.1704C169.38 48.9002 168.877 52.2125 168.877 52.2125C168.877 52.2125 168.223 57.0838 167.671 57.7662C167.119 58.4486 167.219 61.3699 167.219 61.3699C167.088 62.7684 166.839 64.1531 166.473 65.509C165.921 67.3594 166.321 69.6506 166.321 69.6506C166.321 69.6506 164.414 74.0339 168.984 71.0627C168.984 71.0627 171.222 70.9233 173.813 70.8336C173.813 70.9183 173.813 71.0055 173.813 71.0827C173.813 71.4164 173.813 71.7775 173.796 72.156C173.761 74.6664 173.746 78.1331 173.861 80.7431C174.062 85.3704 175.47 94.5278 175.47 94.5278V99.1377C175.379 99.57 175.334 100.011 175.335 100.453C175.306 102.075 175.737 103.672 176.579 105.057L176.932 108.126C176.932 108.126 177.757 110.148 177.772 111.363C177.769 111.461 177.757 111.559 177.738 111.655C177.705 111.809 177.692 111.967 177.698 112.125C177.65 113.52 178.488 116.857 178.488 116.857C178.488 116.857 178.538 120.217 179.041 120.414C179.471 120.581 178.466 122.349 178.168 122.857C178.16 122.826 178.154 122.794 178.15 122.762L178.088 122.862C177.984 123.134 177.931 123.422 177.931 123.714C177.903 123.943 177.94 124.176 178.039 124.385C178.138 124.594 178.294 124.77 178.488 124.894C179.443 125.479 179.956 125.965 179.145 126.159C178.847 126.206 178.551 126.268 178.26 126.346C178.26 126.309 178.23 126.269 178.217 126.234C178.103 126.279 178.008 126.362 177.947 126.469C177.887 126.576 177.866 126.7 177.887 126.822C177.894 127.217 177.996 127.604 178.183 127.952C178.986 129.755 179.543 130.443 179.543 130.443L179.928 130.4C179.871 130.548 179.796 130.688 179.704 130.816C179.558 131.025 179.363 131.196 179.138 131.314C178.927 131.441 178.692 131.521 178.449 131.551C178.176 131.56 177.909 131.626 177.664 131.745C177.419 131.865 177.202 132.034 177.026 132.243C176.529 132.893 176.211 133.777 177.2 134.554L180.794 135.8C180.794 135.8 186.976 136.604 186.647 135.214C186.319 133.825 186.12 132.609 186.12 132.609C186.147 131.761 185.976 130.918 185.623 130.146C185.558 130.02 185.485 129.899 185.404 129.783L185.623 129.76C185.623 129.76 186.075 126.69 186.677 126.107C186.816 125.972 186.849 125.858 186.816 125.788C186.879 125.621 186.719 125.524 186.518 125.467L186.473 125.589C186.276 125.546 186.076 125.523 185.874 125.522C185.874 125.522 185.673 123.915 186.327 123.33C186.379 123.263 186.418 123.186 186.44 123.104C186.462 123.022 186.466 122.936 186.453 122.852C186.458 122.631 186.435 122.411 186.384 122.197C186.377 122.211 186.37 122.224 186.361 122.237C186.033 120.777 184.919 118.459 184.919 118.459C184.919 118.459 184.869 116.999 185.272 116.414C185.675 115.829 185.22 108.474 185.22 108.474C185.22 108.474 185.372 104.921 184.919 103.264C184.467 101.608 185.471 99.6582 185.471 99.6582C185.471 99.6582 185.471 99.6208 185.471 99.5536V99.5287L185.414 98.9683C185.413 98.9799 185.413 98.9916 185.414 99.0032C185.312 98.0618 185.121 96.3558 184.979 95.5688C184.777 94.4481 185.031 89.0937 185.031 89.0937L185.934 86.8024L187.543 90.7498L189.251 96.0097C189.251 96.0097 190.096 97.1204 190.116 98.2511C190.116 98.3059 190.116 98.3607 190.116 98.4154C190.103 98.532 190.096 98.6492 190.096 98.7666C190.066 99.4311 190.248 100.088 190.616 100.642C190.616 100.642 191.069 103.132 191.772 103.757C192.476 104.383 192.476 105.608 192.476 105.608C192.476 105.608 193.329 109.214 193.72 109.842C194.058 110.375 194.075 111.834 194.073 112.29C194.073 112.372 194.073 112.419 194.073 112.419C194.073 112.419 194.192 113.709 194.187 114.79C194.187 114.925 194.187 115.054 194.187 115.176C194.188 115.167 194.188 115.158 194.187 115.149C194.187 115.444 194.152 115.738 194.083 116.025L194.068 116.075C194.068 116.013 194.068 115.953 194.085 115.893C193.91 116.627 193.827 117.38 193.836 118.135C193.814 119.43 194.011 120.964 194.794 121.871C196.152 123.43 197.005 123.235 197.005 123.235C197.005 123.235 196.353 125.183 195.547 125.574C195.517 125.588 195.488 125.607 195.463 125.629C195.463 125.589 195.448 125.551 195.443 125.514C195.353 125.611 195.285 125.726 195.242 125.851C195.199 125.977 195.183 126.109 195.194 126.241C195.137 127.098 195.677 128.483 196.189 129.128C196.379 129.314 196.612 129.451 196.868 129.526C196.827 129.555 196.785 129.581 196.741 129.603C196.651 129.653 196.559 129.697 196.465 129.735C196.334 129.791 196.196 129.827 196.055 129.843C195.782 129.85 195.514 129.915 195.269 130.035C195.023 130.154 194.806 130.325 194.632 130.535C194.135 131.182 193.817 132.067 194.806 132.844L198.4 134.089C198.4 134.089 204.542 134.878 204.218 133.491Z" fill="url(#paint0_linear)"/>
<path d="M180.617 135.792L177.136 134.547C176.176 133.77 176.482 132.886 176.967 132.236C177.134 132.029 177.343 131.859 177.58 131.74C177.818 131.621 178.079 131.554 178.344 131.544C178.58 131.513 178.806 131.433 179.008 131.307C179.229 131.187 179.418 131.016 179.56 130.809C179.814 130.405 179.951 129.939 179.956 129.461C179.956 129.461 183.775 128.341 184.82 129.461C185.006 129.664 185.162 129.893 185.282 130.141C185.629 130.915 185.799 131.757 185.78 132.604C185.78 132.604 185.974 133.82 186.289 135.209C186.605 136.599 180.617 135.792 180.617 135.792Z" fill="#2D293D"/>
<path d="M197.636 134.074L194.155 132.829C193.195 132.052 193.501 131.167 193.986 130.52C194.151 130.312 194.36 130.142 194.597 130.023C194.835 129.903 195.095 129.837 195.361 129.828C195.498 129.813 195.633 129.777 195.759 129.72C195.851 129.682 195.94 129.638 196.027 129.588C197 129.053 196.975 127.738 196.975 127.738C196.975 127.738 200.792 126.617 201.839 127.738C201.979 127.89 202.101 128.057 202.204 128.236C202.858 129.369 202.786 130.881 202.786 130.881C202.786 130.881 202.98 132.099 203.283 133.486C203.587 134.873 197.636 134.074 197.636 134.074Z" fill="#2D293D"/>
<path opacity="0.1" d="M184.822 129.459C185.009 129.662 185.164 129.891 185.285 130.139L179.565 130.804C179.819 130.4 179.956 129.934 179.961 129.456C179.961 129.456 183.778 128.338 184.822 129.459Z" fill="black"/>
<path opacity="0.1" d="M202.209 128.241V129.315C201.319 130.781 197.014 130.46 195.764 129.725C195.856 129.687 195.945 129.643 196.032 129.593C197.005 129.058 196.98 127.743 196.98 127.743C196.98 127.743 200.797 126.622 201.844 127.743C201.984 127.895 202.106 128.062 202.209 128.241Z" fill="black"/>
<path d="M202.888 123.614C202.622 124.082 202.395 124.571 202.209 125.076V128.924C201.234 130.53 196.179 129.994 195.495 129.118C194.811 128.241 194.098 125.96 194.866 125.564C195.634 125.168 196.276 123.225 196.276 123.225C196.276 123.225 195.448 123.42 194.135 121.861C192.822 120.302 193.212 116.845 193.456 116.018C193.7 115.191 193.456 112.414 193.456 112.414C193.456 112.414 193.506 110.464 193.118 109.832C192.73 109.199 191.902 105.598 191.902 105.598C191.902 105.598 191.902 104.38 191.22 103.748C190.539 103.115 190.101 100.629 190.101 100.629C189.703 100.008 189.532 99.2683 189.617 98.535C189.761 97.3172 188.788 96.0022 188.788 96.0022L187.135 90.7398L185.578 86.795L184.703 89.0837C184.703 89.0837 184.454 94.4407 184.656 95.5589C184.857 96.6771 185.153 99.6507 185.153 99.6507C185.153 99.6507 184.181 101.598 184.618 103.254C185.056 104.911 184.897 108.469 184.897 108.469C184.897 108.469 185.334 115.821 184.944 116.407C184.554 116.992 184.603 118.454 184.603 118.454C184.603 118.454 186.593 122.737 185.966 123.323C185.339 123.908 185.528 125.514 185.528 125.514C185.528 125.514 186.889 125.514 186.307 126.099C185.725 126.685 185.285 129.753 185.285 129.753L179.404 130.443C179.404 130.443 178.866 129.763 178.088 127.952C177.31 126.142 178.232 126.346 179.016 126.149C179.799 125.952 179.304 125.469 178.379 124.884C177.454 124.299 177.991 122.984 177.991 122.984C177.991 122.984 179.401 120.598 178.914 120.404C178.426 120.209 178.379 116.847 178.379 116.847C178.379 116.847 177.407 112.863 177.65 111.782C177.894 110.701 176.872 108.131 176.872 108.131L176.531 105.062C175.491 103.321 175.111 101.263 175.462 99.2647V94.5328C175.462 94.5328 174.099 85.3779 173.905 80.7506C173.781 77.787 173.816 73.7425 173.856 71.2196C173.881 69.8051 173.905 68.8661 173.905 68.8661L194.913 66.6745C194.913 66.6745 194.893 67.6458 195.294 69.8001C195.51 70.9556 195.846 72.4524 196.373 74.3227C197.88 79.6797 196.957 83.6719 196.957 83.6719L196.761 90.4435C196.761 90.4435 198.608 94.9711 198.221 96.5302C197.986 97.4559 197.854 98.4047 197.828 99.3593C197.828 99.3593 201.961 109.246 201.523 112.12C201.085 114.994 202.883 119.525 202.883 119.525C202.883 119.525 203.375 122.737 202.888 123.614Z" fill="#464353"/>
<path opacity="0.05" d="M190.877 98.2411L197.273 97.3869C197.273 97.3869 193.65 101.09 190.877 98.2411Z" fill="black"/>
<path opacity="0.1" d="M196.348 91.1284C196.348 91.1284 196.567 93.3947 195.182 94.2464C195.182 94.2464 197.661 93.8579 196.348 91.1284Z" fill="black"/>
<path opacity="0.1" d="M195.955 83.921C195.955 83.921 190.609 88.3291 188.664 87.963C186.72 87.5969 195.955 83.921 195.955 83.921Z" fill="black"/>
<path opacity="0.1" d="M182.95 100.308C182.95 100.308 178.889 101.232 178.767 102.866C178.645 104.5 182.95 100.308 182.95 100.308Z" fill="black"/>
<path opacity="0.05" d="M183.842 120.62C183.842 120.62 178.106 121.691 179.734 122.421C181.363 123.151 184.039 123.736 184.039 123.736C184.039 123.736 185.891 123.833 183.842 120.62Z" fill="black"/>
<g opacity="0.05">
<path opacity="0.05" d="M178.576 123.582C178.431 123.491 178.309 123.37 178.218 123.226C178.127 123.082 178.07 122.919 178.051 122.75L177.991 122.852C177.991 122.852 177.457 124.167 178.382 124.75C178.486 124.817 178.588 124.884 178.68 124.949C178.852 124.916 179.036 124.891 179.212 124.847C179.995 124.652 179.501 124.167 178.576 123.582Z" fill="black"/>
<path opacity="0.05" d="M185.966 123.191C186.125 123.046 186.12 122.672 186.023 122.194C185.775 122.57 185.702 123.158 185.697 123.604C185.758 123.449 185.849 123.308 185.966 123.191Z" fill="black"/>
<path opacity="0.05" d="M185.083 98.9608C184.872 99.5369 184.741 100.14 184.695 100.751C184.806 100.329 184.955 99.917 185.14 99.5212L185.083 98.9608Z" fill="black"/>
<path opacity="0.05" d="M198.223 96.4056C198.261 96.2306 198.279 96.0517 198.275 95.8726C198.203 96.2363 198.153 96.5725 198.116 96.8689C198.148 96.7169 198.183 96.5725 198.223 96.4056Z" fill="black"/>
<path opacity="0.05" d="M184.946 116.277C185.026 116.157 185.071 115.754 185.091 115.194C184.911 115.627 184.815 116.091 184.81 116.561C184.844 116.461 184.89 116.366 184.946 116.277Z" fill="black"/>
<path opacity="0.05" d="M186.14 125.462C185.839 126.439 185.615 127.438 185.471 128.45L179.59 129.13C179.59 129.13 179.053 128.45 178.275 126.64C178.212 126.5 178.156 126.357 178.108 126.211C177.755 126.373 177.611 126.739 178.078 127.808C178.857 129.611 179.396 130.298 179.396 130.298L185.277 129.616C185.277 129.616 185.715 126.548 186.297 125.962C186.595 125.681 186.411 125.534 186.14 125.462Z" fill="black"/>
<path opacity="0.05" d="M178.382 116.715C178.382 116.715 178.429 120.075 178.916 120.269C179.165 119.714 179.327 119.186 179.108 119.099C178.61 118.904 178.573 115.542 178.573 115.542C178.573 115.542 177.601 111.558 177.844 110.477C178.088 109.396 177.066 106.826 177.066 106.826L176.725 103.757C175.685 102.016 175.305 99.9582 175.656 97.9597V93.2278C175.656 93.2278 174.293 84.0729 174.099 79.4456C173.975 76.482 174.01 72.4375 174.05 69.9146C174.05 69.4589 174.065 69.0554 174.072 68.7142L173.905 68.7317C173.905 68.7317 173.878 69.6681 173.856 71.0851C173.816 73.608 173.779 77.6525 173.905 80.6136C174.099 85.2409 175.46 94.3983 175.46 94.3983V99.1302C175.111 101.128 175.491 103.185 176.531 104.925L176.87 107.994C176.87 107.994 177.892 110.574 177.648 111.647C177.404 112.721 178.382 116.715 178.382 116.715Z" fill="black"/>
<path opacity="0.05" d="M195.694 127.818C195.216 127.125 194.898 126.335 194.762 125.504C194.162 126.047 194.851 128.154 195.508 128.991C196.186 129.867 201.244 130.403 202.222 128.794V127.868C200.896 129.17 196.336 128.647 195.694 127.818Z" fill="black"/>
<path opacity="0.05" d="M203.085 122.314C202.818 122.782 202.59 123.271 202.403 123.776V124.466C202.515 124.217 202.672 123.883 202.901 123.489C203.054 123.106 203.127 122.695 203.114 122.281C203.114 122.281 203.092 122.304 203.085 122.314Z" fill="black"/>
<path opacity="0.05" d="M195.992 123.083C196.177 122.708 196.338 122.321 196.472 121.925C196.472 121.925 195.644 122.12 194.331 120.561C193.376 119.427 193.322 117.286 193.458 115.886C193.21 116.715 192.824 120.172 194.137 121.731C194.995 122.75 195.644 123.019 195.992 123.083Z" fill="black"/>
<path opacity="0.05" d="M193.456 112.282C193.542 113.242 193.574 114.206 193.553 115.169C193.577 115.017 193.611 114.866 193.652 114.718C193.901 113.889 193.652 111.114 193.652 111.114C193.652 111.114 193.702 109.164 193.312 108.532C192.921 107.899 192.108 104.293 192.108 104.293C192.108 104.293 192.108 103.075 191.427 102.443C190.745 101.81 190.308 99.3244 190.308 99.3244C189.906 98.7046 189.73 97.9647 189.81 97.23C189.957 96.0121 188.985 94.6972 188.985 94.6972L187.331 89.4373L185.775 85.4924L184.897 87.7837C184.897 87.7837 184.897 88.0726 184.867 88.5308L185.578 86.6704L187.135 90.6078L188.788 95.8677C188.788 95.8677 189.761 97.1827 189.614 98.4005C189.534 99.1352 189.709 99.8751 190.111 100.495C190.111 100.495 190.549 102.985 191.23 103.613C191.912 104.241 191.909 105.463 191.909 105.463C191.909 105.463 192.737 109.067 193.125 109.697C193.513 110.327 193.456 112.282 193.456 112.282Z" fill="black"/>
</g>
<path d="M197.539 22.6756L197.174 24.4538L197.196 25.2458L197.211 25.8285L195.182 26.0377L194.956 25.6169C194.535 24.8548 193.662 23.3057 193.381 23.0666C193.006 22.7528 192.337 17.8068 193.133 18.1007C193.623 18.2901 194.025 18.6548 194.262 19.1242C194.262 19.1242 198.258 19.5825 197.539 22.6756Z" fill="#FFCDD3"/>
<path opacity="0.1" d="M197.211 25.8285L195.182 26.0377L194.956 25.6169C195.228 25.3057 195.601 25.0989 196.009 25.0317C196.417 24.9645 196.835 25.041 197.194 25.2483L197.211 25.8285Z" fill="black"/>
<path d="M197.723 26.7923L195.048 27.4125L194.99 27.014L194.839 25.9406C194.839 25.9406 195.898 24.526 197.43 25.587L197.564 26.1324L197.723 26.7923Z" fill="#A9DEF9"/>
<path d="M154.38 22.8699L151.523 24.404L151.274 23.8661C151.003 23.2958 150.598 22.4365 150.486 22.1227C150.317 21.6496 149.125 21.0518 149.125 21.0518C146.141 18.1903 149.697 15.7297 149.697 15.7297C151.582 11.9318 153.676 17.0198 153.676 17.0198C153.676 17.0198 153.97 19.702 153.763 19.8813C153.557 20.0606 153.557 20.7953 153.557 20.7953C153.829 21.3217 154.059 21.8688 154.246 22.4316C154.333 22.703 154.38 22.8699 154.38 22.8699Z" fill="#FFCDD3"/>
<path opacity="0.1" d="M154.38 22.8699L151.523 24.404L151.274 23.8661C151.677 23.5274 153.107 22.3718 153.577 22.4191C153.801 22.4472 154.028 22.453 154.253 22.4365C154.333 22.703 154.38 22.8699 154.38 22.8699Z" fill="black"/>
<path d="M154.671 23.7341L151.46 25.318L151.396 24.6281L151.351 24.15C151.351 24.15 153.211 22.5536 153.761 22.6158C154.039 22.6562 154.321 22.6562 154.599 22.6158L154.636 23.1936L154.671 23.7341Z" fill="#A9DEF9"/>
<path d="M189.758 34.4879C189.758 34.4879 175.763 36.0693 178.379 35.2176C180.199 34.6224 180.923 33.4743 181.075 32.1792C181.199 31.1009 180.92 29.9378 180.555 28.9416C180.226 28.0579 179.809 27.2094 179.312 26.4088C179.312 26.4088 190.004 20.5164 187.868 25.8734C187.539 26.6836 187.334 27.5393 187.262 28.4112C187.197 29.2775 187.291 30.1484 187.538 30.9813C187.941 32.3328 188.71 33.5463 189.758 34.4879Z" fill="#FFCDD3"/>
<path opacity="0.1" d="M187.861 25.8659C187.531 26.6762 187.327 27.5319 187.254 28.4037C186.247 29.2529 185.143 29.1956 183.723 29.1956C182.634 29.1956 181.425 29.4596 180.555 28.9341C180.226 28.0504 179.81 27.2019 179.312 26.4014C179.312 26.4014 190.002 20.5089 187.861 25.8659Z" fill="black"/>
<path d="M183.534 29.5692C186.73 29.5692 189.321 26.9746 189.321 23.7739C189.321 20.5733 186.73 17.9786 183.534 17.9786C180.338 17.9786 177.747 20.5733 177.747 23.7739C177.747 26.9746 180.338 29.5692 183.534 29.5692Z" fill="#FFCDD3"/>
<path opacity="0.1" d="M189.758 34.4879C189.758 34.4879 175.763 36.0693 178.379 35.2176C180.199 34.6223 180.923 33.4742 181.075 32.1792C181.771 31.4321 183.171 30.8767 184.059 30.5878C184.88 30.3114 185.766 30.2966 186.595 30.5455C186.921 30.6439 187.232 30.7881 187.518 30.9738C187.925 32.3303 188.701 33.5468 189.758 34.4879Z" fill="black"/>
<path opacity="0.1" d="M197.723 26.7924L195.047 27.4125L194.99 27.014C195.277 26.6199 195.678 26.3238 196.138 26.166C196.599 26.0083 197.097 25.9965 197.564 26.1324L197.723 26.7924Z" fill="black"/>
<path opacity="0.1" d="M154.671 23.7341L151.46 25.318L151.396 24.6281C152.436 24.0682 153.516 23.5878 154.629 23.1911L154.671 23.7341Z" fill="black"/>
<path opacity="0.1" d="M195.294 69.805C189.87 70.6717 182.161 71.7775 180.938 71.4039C179.921 71.0951 176.678 71.1275 173.856 71.2246C173.881 69.81 173.906 68.8711 173.906 68.8711L194.913 66.6795C194.913 66.6795 194.893 67.6508 195.294 69.805Z" fill="black"/>
<path d="M200.7 68.5299C200.7 68.5299 182.853 71.5982 180.938 71.0204C179.023 70.4426 169.188 71.0677 169.188 71.0677C164.762 74.0388 166.609 69.6556 166.609 69.6556C166.609 69.6556 166.222 67.3669 166.756 65.5165C167.115 64.1579 167.361 62.7717 167.49 61.3724C167.49 61.3724 167.393 58.4486 167.927 57.7662C168.462 57.0838 169.096 52.2149 169.096 52.2149C169.096 52.2149 169.581 48.9026 169.534 48.1729C169.487 47.4432 169.678 45.3961 169.678 45.3961L170.312 41.9866C166.664 41.501 155.576 34.6821 155.576 34.6821C155.041 32.3934 150.908 27.0364 150.908 27.0364C150.848 26.5859 150.734 26.1444 150.568 25.7215C150.277 24.9419 154.653 23.3829 154.653 23.3829C154.653 23.3829 157.911 27.3676 158.592 28.4485C159.274 29.5294 161.606 31.5167 161.606 31.5167C161.969 31.4794 162.335 31.5272 162.676 31.6562L162.733 31.6736C163.514 31.981 164.247 32.4004 164.909 32.9189C166.005 32.8928 167.069 33.2947 167.875 34.0396C167.875 34.0396 169.865 33.7457 170.21 34.0869C170.556 34.4281 172.252 34.0869 172.252 34.0869C172.252 34.0869 173.953 30.4832 175.072 31.5292C176.191 32.5752 180.938 32.5254 180.938 32.5254C181.57 31.6836 183.109 31.0809 184.071 30.7821C184.892 30.5068 185.778 30.492 186.608 30.7397C186.966 30.8467 187.302 31.0152 187.602 31.2378L190.489 34.062C190.489 34.062 191.315 32.9886 191.218 32.747C191.121 32.5055 192.19 32.3087 192.19 32.3087C192.19 32.3087 193.6 31.8704 194.135 31.7235C194.67 31.5765 195.159 32.1568 195.204 32.2091C195.187 32.1468 194.821 30.9639 194.955 30.0673C195.09 29.1707 194.371 28.324 194.371 28.324C196.072 24.135 199.914 27.6416 199.914 27.6416C199.914 27.6416 200.352 29.9303 199.964 30.807C199.576 31.6836 200.352 33.534 200.255 34.0221C200.158 34.5103 200.451 35.3371 200.451 36.2636C200.451 37.19 199.954 38.9408 199.673 39.7203C199.392 40.4998 197.047 42.2531 197.047 42.2531C197.047 42.2531 196.9 45.03 195.878 46.6363C194.856 48.2427 195.498 53.7366 195.498 53.7366C195.498 53.7366 196.47 58.0227 197.686 59.3875C198.902 60.7522 200.7 68.5299 200.7 68.5299Z" fill="#3F3D56"/>
<path opacity="0.1" d="M174.684 36.4827C174.684 36.4827 174.149 34.8764 173.662 34.7394C173.178 34.5611 172.707 34.3498 172.252 34.1068L172.565 33.5066C172.565 33.5066 174.39 34.0047 174.684 34.5451C174.977 35.0856 174.684 36.4827 174.684 36.4827Z" fill="black"/>
<path opacity="0.1" d="M164.909 32.9288C164.812 33.4269 160.482 33.8528 160.482 33.8528L162.671 31.6562L162.725 31.6761C163.51 31.9851 164.245 32.4071 164.909 32.9288Z" fill="black"/>
<path d="M152.386 26.6329C152.6 26.6329 152.773 26.459 152.773 26.2444C152.773 26.0299 152.6 25.8559 152.386 25.8559C152.171 25.8559 151.998 26.0299 151.998 26.2444C151.998 26.459 152.171 26.6329 152.386 26.6329Z" fill="#575988"/>
<path d="M152.883 27.4125C153.097 27.4125 153.271 27.2385 153.271 27.024C153.271 26.8094 153.097 26.6354 152.883 26.6354C152.669 26.6354 152.495 26.8094 152.495 27.024C152.495 27.2385 152.669 27.4125 152.883 27.4125Z" fill="#575988"/>
<path d="M153.37 28.1322C153.585 28.1322 153.758 27.9583 153.758 27.7437C153.758 27.5291 153.585 27.3552 153.37 27.3552C153.156 27.3552 152.982 27.5291 152.982 27.7437C152.982 27.9583 153.156 28.1322 153.37 28.1322Z" fill="#575988"/>
<path d="M153.88 28.9092C154.094 28.9092 154.268 28.7353 154.268 28.5207C154.268 28.3062 154.094 28.1322 153.88 28.1322C153.666 28.1322 153.492 28.3062 153.492 28.5207C153.492 28.7353 153.666 28.9092 153.88 28.9092Z" fill="#575988"/>
<path d="M199.72 28.7947C199.894 28.7947 200.036 28.6531 200.036 28.4784C200.036 28.3037 199.894 28.1621 199.72 28.1621C199.546 28.1621 199.404 28.3037 199.404 28.4784C199.404 28.6531 199.546 28.7947 199.72 28.7947Z" fill="#575988"/>
<path d="M199.77 29.5144C199.944 29.5144 200.086 29.3728 200.086 29.1981C200.086 29.0234 199.944 28.8818 199.77 28.8818C199.595 28.8818 199.454 29.0234 199.454 29.1981C199.454 29.3728 199.595 29.5144 199.77 29.5144Z" fill="#575988"/>
<path d="M199.812 30.2317C199.986 30.2317 200.128 30.0901 200.128 29.9154C200.128 29.7407 199.986 29.5991 199.812 29.5991C199.638 29.5991 199.496 29.7407 199.496 29.9154C199.496 30.0901 199.638 30.2317 199.812 30.2317Z" fill="#575988"/>
<path opacity="0.1" d="M174.701 49.6822C174.654 49.6249 185.618 63.4893 194.127 55.4775C194.135 55.4799 180.689 57.3055 174.701 49.6822Z" fill="black"/>
<path opacity="0.1" d="M168.41 56.8895C168.41 56.8895 174.97 57.0689 175.656 58.9591V60.9266C175.469 61.0304 175.259 61.0848 175.046 61.0848C174.832 61.0848 174.622 61.0304 174.435 60.9266C173.774 60.5679 169.807 58.5507 168.41 59.522V56.8895Z" fill="black"/>
<path d="M168.532 56.8895C168.532 56.8895 174.806 57.0614 175.462 58.8645V60.7373C175.283 60.8367 175.082 60.8889 174.878 60.8889C174.673 60.8889 174.472 60.8367 174.293 60.7373C173.662 60.3986 169.87 58.4735 168.532 59.3999V56.8895Z" fill="#3F3D56"/>
<path opacity="0.1" d="M171.991 42.6242C172.661 44.1778 173.515 45.6453 174.535 46.9949C175.644 48.4868 176.987 49.788 178.513 50.8477C178.513 50.8477 172.1 43.5257 171.991 42.6242Z" fill="black"/>
<path opacity="0.1" d="M169.845 34.9909C169.845 34.9909 170.939 39.7228 173.759 41.3292L169.845 34.9909Z" fill="black"/>
<path opacity="0.1" d="M168.166 35.4691C168.139 35.3819 167.194 39.2048 171.802 41.3291C171.802 41.3291 169.845 40.6642 168.166 35.4691Z" fill="black"/>
<path opacity="0.1" d="M196.811 32.2963C196.738 32.2963 199.083 33.7905 199.723 34.4879C199.723 34.4879 198.196 32.1966 196.811 32.2963Z" fill="black"/>
<path d="M181.97 29.0263C181.971 29.1527 181.998 29.2776 182.049 29.393C182.101 29.5084 182.176 29.6119 182.269 29.6969C182.363 29.7818 182.473 29.8464 182.592 29.8866C182.712 29.9268 182.839 29.9417 182.965 29.9303C184.728 30.0399 186.565 30.1171 188.187 29.4322C188.491 29.3235 188.764 29.1423 188.982 28.9042C189.271 28.5481 189.328 28.065 189.445 27.6217C189.674 26.755 190.161 25.9854 190.512 25.1611C191.105 23.7684 191.304 22.2389 191.086 20.7405C191.04 20.2812 190.889 19.8388 190.644 19.448C190.176 18.778 189.323 18.5066 188.704 17.9736C188.085 17.4407 187.687 16.6263 186.963 16.2303C186.312 15.8667 185.513 15.9115 184.78 16.036C183.337 16.2814 181.954 16.8014 180.707 17.5677C180.286 17.8167 179.826 18.1231 179.344 18.0309C178.921 17.9512 178.613 17.5951 178.349 17.2614C178.01 18.0583 177.868 18.9254 177.934 19.7892C177.952 19.9159 177.948 20.0449 177.922 20.1702C177.861 20.3217 177.768 20.4584 177.651 20.5712C177.215 21.0693 176.944 21.8787 177.374 22.3917C177.561 22.6133 177.849 22.7354 178.031 22.962C178.357 23.368 178.247 23.9582 178.24 24.4762C178.222 24.6571 178.268 24.8386 178.369 24.9892C178.463 25.0771 178.578 25.139 178.703 25.1692C178.828 25.1993 178.959 25.1965 179.083 25.1611C179.329 25.0868 179.588 25.0622 179.844 25.0889C180.113 25.1767 180.346 25.3519 180.505 25.587C181.308 26.6354 181.627 27.7761 181.97 29.0263Z" fill="#2D293D"/>
<g opacity="0.1">
<path opacity="0.1" d="M189.189 28.4634C188.97 28.7015 188.697 28.8827 188.393 28.9914C186.762 29.6713 184.927 29.5941 183.171 29.4895C182.982 29.4914 182.796 29.4496 182.626 29.3675C182.358 29.2106 182.256 28.8818 182.174 28.583C181.831 27.3378 181.515 26.1946 180.699 25.1561C180.542 24.9166 180.309 24.7368 180.038 24.6456C179.782 24.6214 179.524 24.6459 179.277 24.7178C179.153 24.7535 179.023 24.7567 178.898 24.727C178.773 24.6974 178.657 24.6358 178.563 24.5484C178.462 24.3978 178.416 24.2163 178.434 24.0354C178.434 23.5124 178.551 22.9272 178.225 22.5212C178.043 22.2946 177.755 22.1725 177.568 21.9484C177.447 21.7832 177.372 21.588 177.352 21.3836C177.333 21.1792 177.369 20.9734 177.457 20.7878C177.146 21.2859 177.014 21.911 177.374 22.3394C177.561 22.5611 177.849 22.6831 178.031 22.9097C178.357 23.3182 178.247 23.9059 178.24 24.4239C178.221 24.6045 178.266 24.7861 178.367 24.937C178.461 25.0252 178.577 25.0874 178.702 25.1175C178.828 25.1477 178.959 25.1447 179.083 25.1088C179.329 25.0345 179.588 25.0099 179.844 25.0366C180.113 25.1244 180.346 25.2996 180.505 25.5347C181.318 26.5732 181.637 27.7138 181.98 28.964C182.02 29.2717 182.173 29.5532 182.41 29.7535C182.581 29.8358 182.768 29.8767 182.957 29.873C184.72 29.9826 186.558 30.0623 188.179 29.3749C188.484 29.267 188.757 29.0856 188.975 28.847C189.085 28.7067 189.169 28.5482 189.224 28.3788C189.226 28.4111 189.209 28.4385 189.189 28.4634Z" fill="black"/>
<path opacity="0.1" d="M177.934 20.0183C178.012 19.9333 178.072 19.8334 178.111 19.7244C178.133 19.5984 178.133 19.4694 178.111 19.3434C178.062 18.6333 178.154 17.9207 178.382 17.2464L178.349 17.2091C178.009 18.0048 177.867 18.8714 177.934 19.7344C177.941 19.8289 177.941 19.9238 177.934 20.0183Z" fill="black"/>
</g>
<path opacity="0.1" d="M180.938 32.5378C180.938 32.5378 188.167 33.4991 188.816 32.4108L180.938 32.5378Z" fill="black"/>
<path opacity="0.1" d="M194.99 29.5418C194.99 29.5418 199.009 29.5418 199.892 31.056L194.99 29.5418Z" fill="black"/>
<path d="M217.473 164.064C216.281 165.131 214.732 165.711 213.133 165.688C212.726 165.688 212.161 165.765 212.159 166.173C212.168 166.293 212.21 166.408 212.278 166.507C212.783 167.349 213.579 167.976 214.516 168.268C215.386 168.532 216.316 168.487 217.224 168.44L219.872 168.303C220.37 168.275 220.867 168.25 221.364 168.188C221.862 168.126 222.404 168.024 222.924 167.939C224.201 167.757 225.492 167.697 226.78 167.76C227.124 167.772 227.526 167.76 227.73 167.511C227.934 167.262 227.83 166.786 227.753 166.412C227.594 165.643 227.753 164.836 227.606 164.064C227.357 162.709 226.186 161.671 224.903 161.18C223.709 160.727 221.596 160.206 220.467 160.963C219.276 161.758 218.547 163.085 217.473 164.064Z" fill="#3F3D56"/>
<path d="M220.104 118.673C220.337 119.786 221.414 120.638 221.444 121.773C221.471 122.685 220.822 123.45 220.355 124.229C219.914 125.036 219.542 125.879 219.243 126.749C218.363 129.014 217.271 131.191 215.981 133.249C215.359 134.246 214.663 135.309 214.804 136.467C214.903 137.009 215.094 137.529 215.369 138.006L217.234 141.717C217.642 142.458 217.962 143.245 218.186 144.061C218.348 144.765 218.363 145.495 218.457 146.212C218.751 148.489 219.818 150.78 219.186 152.986C219.131 153.176 218.937 153.405 218.786 153.273C219.402 154.426 219.897 155.586 219.85 156.894C219.825 157.579 219.616 158.294 219.867 158.931C219.974 159.198 220.161 159.447 220.158 159.733C220.158 159.922 220.071 160.099 220.051 160.283C219.999 160.809 220.482 161.247 220.981 161.414C221.481 161.581 222.026 161.568 222.531 161.72C223.5 162.012 224.194 162.849 225.017 163.429C225.862 164.011 226.857 164.336 227.882 164.363C228.028 164.378 228.176 164.349 228.305 164.278C228.378 164.214 228.436 164.135 228.477 164.047C228.517 163.958 228.538 163.862 228.538 163.765C228.584 163.3 228.514 162.831 228.335 162.399C228.156 161.967 227.874 161.586 227.514 161.29C227.356 161.191 227.225 161.054 227.133 160.891C227.087 160.747 227.075 160.595 227.099 160.445C227.249 158.404 227.212 156.353 226.989 154.319C226.889 153.674 226.856 153.02 226.892 152.369C226.944 151.826 227.109 151.288 227.049 150.747C226.989 150.207 226.713 149.714 226.552 149.193C226.263 148.267 226.343 147.271 226.303 146.302C226.253 144.618 225.868 142.965 225.485 141.321C225.333 140.676 225.167 140.001 224.711 139.523C224.324 139.117 223.697 138.728 223.844 138.188C223.925 137.989 224.046 137.808 224.199 137.658C224.379 137.431 224.511 137.171 224.587 136.891C224.664 136.612 224.682 136.32 224.642 136.034C224.805 136.076 224.978 136.059 225.131 135.987C225.284 135.916 225.407 135.793 225.48 135.64C228.509 134.208 230.951 131.344 232.04 128.169C232.104 127.933 232.203 127.708 232.333 127.502C232.614 127.108 233.102 126.939 233.534 126.722C234.892 126.037 235.83 124.755 236.69 123.499C237.187 122.772 237.685 122.02 237.908 121.163C238.026 120.609 238.082 120.044 238.075 119.477L238.152 116.551C238.169 116.358 238.15 116.164 238.097 115.978C238.024 115.804 237.916 115.647 237.782 115.515C236.954 114.639 235.868 114.052 234.683 113.841C233.887 113.699 233.074 113.727 232.269 113.66C230.707 113.53 229.165 113.044 227.603 113.161C225.149 113.343 222.963 115.047 221.807 117.223C221.402 117.99 220.974 118.658 220.104 118.673Z" fill="#464353"/>
<path d="M206.476 99.6457C206.51 100.097 206.449 100.551 206.297 100.978C206.106 101.387 205.626 101.705 205.206 101.538C205.333 101.252 204.997 100.926 204.684 100.961C204.529 100.996 204.386 101.069 204.266 101.172C204.146 101.275 204.053 101.406 203.995 101.553C203.787 101.972 203.717 102.445 203.796 102.906C203.895 103.479 204.226 104.029 204.139 104.604C204.069 105.082 203.719 105.558 203.905 106.001C204.026 106.204 204.178 106.386 204.355 106.542C204.601 106.845 204.721 107.231 204.691 107.62C204.661 108.009 204.483 108.372 204.194 108.634L208.898 108.728C208.727 109.515 209.08 110.32 209.483 111.02C210.611 112.944 212.169 114.58 214.035 115.799C215.9 117.019 218.023 117.79 220.235 118.05C220.116 118.12 220.013 118.216 219.935 118.33C219.857 118.445 219.805 118.575 219.783 118.712C219.762 118.85 219.771 118.99 219.81 119.123C219.849 119.256 219.917 119.379 220.009 119.482C220.392 119.863 221.041 119.816 221.521 119.569C222.001 119.323 222.376 118.914 222.814 118.598C223.587 118.05 224.529 117.796 225.472 117.881C226.062 117.938 226.634 118.13 227.226 118.16C228.966 118.252 230.458 116.997 232.134 116.484C233.355 116.108 234.74 116.108 235.765 115.343C236.208 115.014 236.571 114.474 236.441 113.941C236.334 113.635 236.165 113.354 235.944 113.117C235.355 112.352 235.006 111.433 234.584 110.564C233.746 108.843 232.593 107.295 231.184 106.001C230.121 105.071 228.994 104.215 227.812 103.441C227.527 103.23 227.222 103.046 226.902 102.891C226.489 102.709 226.032 102.622 225.659 102.393C225.107 102.044 224.789 101.429 224.363 100.933C223.431 99.8425 221.998 99.3419 220.85 98.4852C220.079 97.9099 219.397 97.1528 218.477 96.8763C218.03 96.7393 217.555 96.7294 217.107 96.5949C216.09 96.2861 215.349 95.382 214.352 95.016C213.564 94.7271 212.693 94.8018 211.865 94.6997C210.932 94.5843 210.04 94.2442 209.267 93.7085C209.017 93.5052 208.738 93.3422 208.438 93.2253C207.178 92.8418 207.076 95.1928 206.946 96.0072C206.78 97.2175 206.476 98.4204 206.476 99.6457Z" fill="#A9DEF9"/>
<path d="M207.705 107.531C207.916 109.827 206.185 112.051 206.69 114.3C206.797 114.778 207.004 115.234 207.078 115.719C207.29 117.052 206.494 118.314 205.735 119.43L199.22 129.006C198.959 129.426 198.646 129.813 198.29 130.156C197.047 131.265 195.177 131.153 193.541 131.481C192.391 131.718 191.306 132.198 190.358 132.891C190.315 132.924 190.287 132.972 190.279 133.026C190.272 133.079 190.286 133.134 190.318 133.177C190.588 133.546 190.946 133.841 191.359 134.035C191.772 134.229 192.227 134.317 192.683 134.291C192.854 134.515 192.683 134.848 192.446 135.01C192.098 135.259 191.616 135.317 191.546 135.912C191.523 136.119 191.564 136.328 191.666 136.509C191.929 136.911 192.337 137.195 192.804 137.301C195.06 137.994 197.497 136.778 199.185 135.127C200.874 133.476 202.085 131.392 203.741 129.713C204.659 128.782 205.701 127.987 206.646 127.086C208.53 125.285 209.998 123.101 211.41 120.912C211.835 120.252 212.266 119.574 212.442 118.81C212.619 118.045 212.537 117.271 212.738 116.531C213.002 115.562 213.71 114.788 214.3 113.976C215.456 112.382 216.229 110.432 216.075 108.467C215.921 106.502 214.707 104.564 212.857 103.897C212.283 103.669 211.652 103.63 211.054 103.787C210.296 104.021 209.737 104.649 209.219 105.252L207.976 106.681C207.673 106.998 207.436 107.371 207.277 107.78C207.197 107.985 207.178 108.21 207.222 108.426C207.266 108.643 207.372 108.842 207.526 109" fill="#FBBEBE"/>
<path d="M211.007 98.1116C210.152 98.1614 209.209 98.2461 208.605 98.8587C208.352 99.14 208.147 99.4615 207.998 99.8101C207.411 101.008 206.839 102.261 206.797 103.596C206.762 104.661 207.071 105.705 207.232 106.758C207.367 107.635 207.026 108.529 206.961 109.416C208.023 109.09 209.426 108.646 210.388 108.096C211.045 107.72 211.679 107.291 212.395 107.052C213.417 106.711 215.13 107.301 216.102 107.775C216.155 107.092 215.642 105.902 215.697 105.217C215.705 104.929 215.756 104.643 215.849 104.37C215.994 104.081 216.167 103.807 216.364 103.551C216.734 102.948 216.904 102.244 216.85 101.538C216.796 100.833 216.52 100.162 216.063 99.6233C215.2 98.652 213.85 98.2884 212.561 98.129C211.75 98.0348 210.933 98.0065 210.117 98.0443" fill="#A9DEF9"/>
<defs>
<linearGradient id="paint0_linear" x1="175.616" y1="136.024" x2="175.616" y2="14.3251" gradientUnits="userSpaceOnUse">
<stop stop-color="#808080" stop-opacity="0.25"/>
<stop offset="0.54" stop-color="#808080" stop-opacity="0.12"/>
<stop offset="1" stop-color="#808080" stop-opacity="0.1"/>
</linearGradient>
</defs>
</svg>
