<svg width="260" height="180" viewBox="0 0 260 180" fill="none" xmlns="http://www.w3.org/2000/svg">
<g clip-path="url(#clip0)">
<path d="M199.472 59.821C199.472 59.821 208.71 57.6917 213.792 61.5955C218.873 65.4992 207.325 74.3714 207.325 74.3714L199.472 59.821Z" fill="#2F2E41"/>
<path d="M189.918 110.741C190.103 110.254 190.179 109.731 190.141 109.211C190.102 108.691 189.95 108.185 189.695 107.73C189.44 107.275 189.088 106.881 188.664 106.577C188.241 106.272 187.756 106.065 187.243 105.968L185.376 93.4244L180.47 97.8231L182.995 109.06C182.89 109.932 183.108 110.813 183.609 111.534C184.109 112.256 184.857 112.769 185.71 112.977C186.564 113.184 187.463 113.071 188.239 112.659C189.014 112.247 189.612 111.565 189.918 110.741Z" fill="#FFB8B8"/>
<path d="M209.257 175.859L204.916 175.571L203.962 158.689L210.368 159.114L209.257 175.859Z" fill="#FFB8B8"/>
<path d="M201.72 174.222H210.109V179.505H196.438C196.438 178.811 196.575 178.124 196.84 177.483C197.106 176.842 197.495 176.26 197.985 175.769C198.476 175.279 199.058 174.89 199.699 174.624C200.34 174.359 201.027 174.222 201.72 174.222Z" fill="#2F2E41"/>
<path d="M201.756 169.849L197.675 171.356L189.923 156.329L195.946 154.106L201.756 169.849Z" fill="#FFB8B8"/>
<path d="M194.33 171.266L202.2 168.36L204.029 173.316L191.204 178.052C190.964 177.401 190.854 176.709 190.881 176.016C190.908 175.322 191.072 174.641 191.362 174.011C191.652 173.381 192.064 172.814 192.573 172.343C193.082 171.872 193.679 171.506 194.33 171.266Z" fill="#2F2E41"/>
<path d="M189.891 104.994C189.891 104.994 185.495 107.361 186.848 116.83L188.2 152.679L195.672 169.022L202.096 167.331L198.005 154.032L203.415 130.697L204.125 173.08L210.211 174.095L218.969 103.641L207.811 98.5679L189.891 104.994Z" fill="#2F2E41"/>
<path d="M205.602 55.7978C210.414 55.7978 214.316 51.8954 214.316 47.0814C214.316 42.2675 210.414 38.3651 205.602 38.3651C200.789 38.3651 196.887 42.2675 196.887 47.0814C196.887 51.8954 200.789 55.7978 205.602 55.7978Z" fill="#FFB8B8"/>
<path d="M190.217 106.036C189.627 106.073 189.035 106.004 188.468 105.833L188.344 105.78L188.363 105.646C188.386 105.474 190.708 88.399 189.386 84.7625C188.25 81.6383 185.914 71.0901 185.226 67.9317C185.146 67.5712 185.184 67.1946 185.336 66.8579C185.488 66.5213 185.744 66.2428 186.067 66.064L198.677 58.9954C199.195 58.7035 199.806 58.6236 200.381 58.7723C200.957 58.9211 201.453 59.287 201.765 59.7934L204.97 64.9716L209.973 59.9675C210.356 59.5834 210.862 59.3468 211.402 59.2995C211.943 59.2522 212.482 59.3971 212.926 59.7088L223.473 67.0933C223.929 67.4092 224.263 67.8711 224.421 68.4028C224.579 68.9345 224.551 69.5041 224.342 70.0178C222.33 74.9946 217.795 88.2318 219.145 103.625L219.167 103.876L218.924 103.812C218.833 103.789 209.729 101.489 200.421 104.15C195.005 105.697 191.898 106.036 190.217 106.036Z" fill="#CCCCCC"/>
<path d="M186.502 66.2599C186.13 66.2067 185.752 66.2909 185.438 66.4965C185.123 66.7022 184.895 67.0153 184.794 67.3774L179.071 88.0504L180.423 100.564L186.848 99.5491L186.171 90.756L190.905 79.5955L187.78 67.4059C187.704 67.1099 187.542 66.843 187.315 66.639C187.087 66.435 186.804 66.3031 186.502 66.2599Z" fill="#CCCCCC"/>
<path d="M212.34 34.8457C211.759 33.8591 210.917 33.0524 209.906 32.5146C208.895 31.9767 207.756 31.7287 206.613 31.7979C205.418 31.9478 204.251 32.2744 203.152 32.767L197.455 34.9897C195.981 35.5648 194.367 36.2694 193.727 37.7169C193.133 39.0605 193.576 40.6121 194.025 42.0109L196.156 48.6599C196.392 47.155 196.797 45.6817 197.364 44.2677C197.983 42.8775 198.962 41.5957 200.316 40.901C201.796 40.1417 203.54 40.1574 205.201 40.2374C207.554 40.3506 210.112 40.65 211.783 42.3098C212.67 43.2524 213.272 44.4276 213.518 45.6987C213.76 46.9631 213.882 48.2475 213.882 49.5348C214.846 47.876 215.659 46.1334 216.31 44.3281C216.845 42.9838 217.15 41.559 217.212 40.1134C217.268 38.6555 216.784 37.2281 215.854 36.1046C214.891 35.0287 213.323 34.4478 211.944 34.8738" fill="#2F2E41"/>
<path d="M217.186 115.71C217.001 115.222 216.925 114.699 216.964 114.179C217.003 113.659 217.155 113.153 217.41 112.698C217.665 112.243 218.017 111.85 218.44 111.545C218.864 111.241 219.349 111.033 219.861 110.936L221.728 98.3928L226.635 102.791L224.11 114.029C224.215 114.901 223.996 115.781 223.496 116.503C222.996 117.225 222.248 117.738 221.394 117.945C220.541 118.152 219.641 118.039 218.866 117.627C218.09 117.215 217.493 116.533 217.186 115.71H217.186Z" fill="#FFB8B8"/>
<path d="M223.248 67.1192C223.76 67.2046 224.227 67.4625 224.573 67.8502C224.918 68.2378 225.12 68.732 225.146 69.2505L227.083 108.004H219.983L217.616 87.374L220.628 68.996C220.677 68.7005 220.783 68.4176 220.941 68.1632C221.099 67.9089 221.305 67.6883 221.549 67.5139C221.792 67.3396 222.067 67.215 222.359 67.1473C222.65 67.0795 222.952 67.07 223.248 67.1192Z" fill="#CCCCCC"/>
<path d="M237.916 179.49C238.8 169.96 241.244 160.641 245.148 151.903C246.236 149.472 247.434 147.093 248.742 144.769C249.077 144.171 248.158 143.634 247.822 144.232C243.068 152.698 239.738 161.889 237.964 171.436C237.47 174.102 237.1 176.786 236.851 179.49C236.788 180.172 237.853 180.168 237.916 179.49H237.916Z" fill="#E6E6E6"/>
<path d="M251.319 146.476C255.043 146.476 258.061 143.457 258.061 139.734C258.061 136.01 255.043 132.991 251.319 132.991C247.596 132.991 244.578 136.01 244.578 139.734C244.578 143.457 247.596 146.476 251.319 146.476Z" fill="#E6E6E6"/>
<path d="M238.605 179.669C239.179 173.487 240.764 167.441 243.297 161.772C244.003 160.195 244.78 158.652 245.628 157.144C245.671 157.065 245.681 156.973 245.657 156.887C245.633 156.8 245.576 156.727 245.499 156.682C245.421 156.636 245.329 156.623 245.242 156.644C245.155 156.665 245.08 156.72 245.032 156.795C241.948 162.288 239.787 168.25 238.637 174.444C238.316 176.173 238.076 177.915 237.915 179.669C237.874 180.112 238.565 180.109 238.605 179.669Z" fill="#E6E6E6"/>
<path d="M247.301 158.252C249.716 158.252 251.674 156.293 251.674 153.877C251.674 151.461 249.716 149.503 247.301 149.503C244.886 149.503 242.928 151.461 242.928 153.877C242.928 156.293 244.886 158.252 247.301 158.252Z" fill="#E6E6E6"/>
<path d="M237.734 179.256C234.385 174.029 231.917 168.286 230.428 162.258C230.015 160.58 229.679 158.886 229.42 157.175C229.405 157.086 229.357 157.007 229.284 156.954C229.212 156.901 229.122 156.878 229.034 156.89C228.945 156.902 228.864 156.948 228.809 157.018C228.753 157.088 228.727 157.178 228.736 157.267C229.681 163.495 231.644 169.525 234.545 175.117C235.356 176.678 236.238 178.199 237.189 179.681C237.429 180.055 237.972 179.628 237.734 179.256V179.256Z" fill="#E6E6E6"/>
<path d="M228.73 157.945C231.146 157.945 233.104 155.986 233.104 153.57C233.104 151.154 231.146 149.196 228.73 149.196C226.315 149.196 224.357 151.154 224.357 153.57C224.357 155.986 226.315 157.945 228.73 157.945Z" fill="#E6E6E6"/>
<path d="M259.578 179.924H145.936C145.824 179.924 145.717 179.879 145.638 179.8C145.558 179.721 145.514 179.613 145.514 179.501C145.514 179.389 145.558 179.281 145.638 179.202C145.717 179.123 145.824 179.078 145.936 179.078H259.578C259.633 179.078 259.688 179.089 259.74 179.11C259.791 179.131 259.838 179.163 259.877 179.202C259.916 179.241 259.948 179.288 259.969 179.339C259.99 179.39 260.001 179.445 260.001 179.501C260.001 179.557 259.99 179.612 259.969 179.663C259.948 179.714 259.916 179.761 259.877 179.8C259.838 179.839 259.791 179.871 259.74 179.892C259.688 179.913 259.633 179.924 259.578 179.924Z" fill="#3F3D56"/>
<path d="M114.302 69.8677H3.81005C2.79992 69.8665 1.8315 69.4646 1.11723 68.7502C0.40296 68.0357 0.00117003 67.0671 0 66.0567V3.81096C0.0011719 2.80059 0.40296 1.83194 1.11723 1.1175C1.8315 0.403062 2.79992 0.00117124 3.81005 0H114.302C115.312 0.00113844 116.28 0.403016 116.995 1.11746C117.709 1.83191 118.111 2.80059 118.112 3.81097V66.0567C118.111 67.0671 117.709 68.0358 116.995 68.7502C116.28 69.4646 115.312 69.8665 114.302 69.8677ZM3.81005 0.84688C3.02439 0.847761 2.27115 1.16033 1.7156 1.71601C1.16005 2.27169 0.847559 3.02511 0.846678 3.81096V66.0567C0.847559 66.8425 1.16005 67.596 1.7156 68.1516C2.27115 68.7073 3.02439 69.0199 3.81005 69.0208H114.302C115.087 69.0199 115.841 68.7073 116.396 68.1516C116.952 67.5959 117.264 66.8425 117.265 66.0567V3.81096C117.264 3.02512 116.952 2.27172 116.396 1.71605C115.841 1.16037 115.087 0.847795 114.302 0.84688H3.81005Z" fill="#3F3D56"/>
<path d="M95.0398 100.835H23.072C22.0619 100.833 21.0935 100.432 20.3792 99.7171C19.6649 99.0026 19.2631 98.034 19.262 97.0236V83.897C19.2631 82.8866 19.6649 81.9179 20.3792 81.2035C21.0935 80.4891 22.0619 80.0872 23.072 80.086H95.0398C96.0499 80.0871 97.0184 80.489 97.7327 81.2035C98.4469 81.9179 98.8487 82.8866 98.8498 83.897V97.0236C98.8487 98.034 98.4469 99.0027 97.7327 99.7171C97.0184 100.432 96.0499 100.833 95.0398 100.835ZM23.072 80.9329C22.2864 80.9338 21.5331 81.2463 20.9776 81.802C20.422 82.3577 20.1095 83.1111 20.1086 83.897V97.0236C20.1095 97.8095 20.422 98.5629 20.9776 99.1186C21.5331 99.6742 22.2864 99.9868 23.072 99.9877H95.0398C95.8254 99.9868 96.5787 99.6742 97.1342 99.1185C97.6897 98.5628 98.0022 97.8095 98.0032 97.0236V83.897C98.0022 83.1111 97.6897 82.3577 97.1342 81.8021C96.5787 81.2464 95.8254 80.9338 95.0398 80.9329H23.072Z" fill="#3F3D56"/>
<path d="M31.1692 87.7079C30.8076 87.7075 30.4494 87.7784 30.1152 87.9165C29.781 88.0546 29.4773 88.2573 29.2215 88.5129C28.9656 88.7685 28.7626 89.0721 28.6242 89.4062C28.4857 89.7404 28.4144 90.0985 28.4144 90.4602C28.4144 90.822 28.4857 91.1801 28.6242 91.5143C28.7626 91.8484 28.9656 92.1519 29.2215 92.4076C29.4773 92.6632 29.781 92.8659 30.1152 93.004C30.4494 93.1421 30.8076 93.213 31.1692 93.2126H78.1599C78.8892 93.2118 79.5883 92.9214 80.1037 92.4054C80.619 91.8893 80.9085 91.1897 80.9085 90.4602C80.9085 89.7308 80.619 89.0312 80.1037 88.5151C79.5883 87.9991 78.8892 87.7087 78.1599 87.7079H31.1692Z" fill="#CCCCCC"/>
<path d="M85.8884 88.6922C85.8512 88.6922 85.8147 88.702 85.7825 88.7206C85.7503 88.7391 85.7236 88.7659 85.705 88.798C85.6865 88.8302 85.6767 88.8667 85.6767 88.9039C85.6767 88.9411 85.6864 88.9776 85.705 89.0098L87.5017 92.1225C87.5203 92.1547 87.5471 92.1814 87.5792 92.2C87.6114 92.2186 87.6479 92.2284 87.6851 92.2284C87.7222 92.2284 87.7588 92.2186 87.7909 92.2C87.8231 92.1814 87.8499 92.1547 87.8684 92.1225L89.6652 89.0098C89.6837 88.9776 89.6935 88.9411 89.6935 88.9039C89.6935 88.8667 89.6837 88.8302 89.6652 88.798C89.6466 88.7659 89.6198 88.7391 89.5877 88.7206C89.5555 88.702 89.519 88.6922 89.4818 88.6922H85.8884Z" fill="#F5EC97"/>
<path d="M40.2351 43.695C48.9609 43.695 56.0346 36.6196 56.0346 27.8917C56.0346 19.1638 48.9609 12.0884 40.2351 12.0884C31.5092 12.0884 24.4355 19.1638 24.4355 27.8917C24.4355 36.6196 31.5092 43.695 40.2351 43.695Z" fill="#E6E6E6"/>
<path d="M101.117 55.7977L82.5712 23.6669C82.4552 23.4661 82.2885 23.2993 82.0877 23.1834C81.887 23.0674 81.6592 23.0064 81.4274 23.0064C81.1955 23.0064 80.9678 23.0674 80.767 23.1834C80.5662 23.2993 80.3995 23.4661 80.2836 23.6669L68.9653 43.2753L52.0921 14.0431C51.9435 13.7856 51.7297 13.5718 51.4723 13.4231C51.2149 13.2745 50.9229 13.1962 50.6256 13.1962C50.3284 13.1962 50.0364 13.2745 49.779 13.4231C49.5215 13.5718 49.3078 13.7856 49.1591 14.0431L25.3805 55.2387C25.2319 55.4962 25.1537 55.7882 25.1537 56.0856C25.1537 56.3829 25.2319 56.6749 25.3805 56.9324C25.5292 57.1899 25.7429 57.4037 26.0003 57.5524C26.2578 57.701 26.5498 57.7793 26.847 57.7793H99.9737C100.205 57.7793 100.433 57.7183 100.634 57.6023C100.835 57.4864 101.002 57.3196 101.117 57.1188C101.233 56.9179 101.294 56.6901 101.294 56.4582C101.294 56.2264 101.233 55.9985 101.117 55.7977Z" fill="#F5EC97"/>
<path d="M14.8169 7.62195H8.04346V14.397H14.8169V7.62195Z" fill="#3F3D56"/>
</g>
<defs>
<clipPath id="clip0">
<rect width="260" height="180" fill="white"/>
</clipPath>
</defs>
</svg>
