<svg width="442" height="457" viewBox="0 0 442 457" fill="none" xmlns="http://www.w3.org/2000/svg">
<g filter="url(#filter0_d)">
<rect x="12" y="73.625" width="250" height="250" rx="125" fill="#31E8E8"/>
</g>
<g filter="url(#filter1_d)">
<rect x="80.625" y="12" width="250" height="250" rx="125" fill="#31E89F"/>
</g>
<g filter="url(#filter2_d)">
<rect x="179.5" y="73.625" width="250" height="250" rx="125" fill="#31C6E8"/>
</g>
<path d="M302.917 193.042C290.621 189.846 286.667 186.542 286.667 181.396C286.667 175.492 292.138 171.375 301.292 171.375C310.933 171.375 314.508 175.979 314.833 182.75H326.804C326.425 173.433 320.738 164.875 309.417 162.113V150.25H293.167V161.95C282.658 164.225 274.208 171.05 274.208 181.504C274.208 194.017 284.554 200.246 299.667 203.875C313.208 207.125 315.917 211.892 315.917 216.929C315.917 220.667 313.263 226.625 301.292 226.625C290.133 226.625 285.746 221.642 285.15 215.25H273.233C273.883 227.112 282.767 233.775 293.167 235.996V247.75H309.417V236.104C319.979 234.1 328.375 227.979 328.375 216.875C328.375 201.492 315.213 196.237 302.917 193.042Z" fill="#0F6A7E"/>
<g filter="url(#filter3_d)">
<path d="M72.6483 435.32C71.8376 435.32 71.1976 435.085 70.7283 434.616C70.2589 434.104 70.0243 433.443 70.0243 432.632V392.44C70.0243 391.672 70.2589 391.053 70.7283 390.584C71.2403 390.115 71.9016 389.88 72.7123 389.88H96.0083C96.7763 389.88 97.3736 390.072 97.8003 390.456C98.2269 390.84 98.4403 391.395 98.4403 392.12C98.4403 392.803 98.2269 393.336 97.8003 393.72C97.3736 394.104 96.7763 394.296 96.0083 394.296H75.2083V409.848H94.7283C95.4963 409.848 96.0936 410.04 96.5203 410.424C96.9469 410.808 97.1603 411.363 97.1603 412.088C97.1603 412.771 96.9469 413.304 96.5203 413.688C96.0936 414.072 95.4963 414.264 94.7283 414.264H75.2083V432.632C75.2083 433.443 74.9736 434.104 74.5043 434.616C74.0776 435.085 73.4589 435.32 72.6483 435.32ZM114.673 435.32C113.863 435.32 113.223 435.085 112.753 434.616C112.284 434.104 112.049 433.443 112.049 432.632V392.248C112.049 391.437 112.284 390.797 112.753 390.328C113.223 389.816 113.863 389.56 114.673 389.56C115.484 389.56 116.124 389.816 116.593 390.328C117.063 390.797 117.297 391.437 117.297 392.248V432.632C117.297 433.443 117.063 434.104 116.593 434.616C116.124 435.085 115.484 435.32 114.673 435.32ZM168.552 389.56C169.32 389.56 169.918 389.816 170.344 390.328C170.771 390.797 170.984 391.437 170.984 392.248V432.632C170.984 433.443 170.75 434.104 170.28 434.616C169.854 435.085 169.235 435.32 168.424 435.32C167.614 435.32 166.91 434.957 166.312 434.232L139.752 398.712V432.632C139.752 433.443 139.518 434.104 139.048 434.616C138.622 435.085 138.024 435.32 137.256 435.32C136.488 435.32 135.891 435.085 135.464 434.616C135.038 434.104 134.824 433.443 134.824 432.632V392.248C134.824 391.437 135.038 390.797 135.464 390.328C135.934 389.816 136.574 389.56 137.384 389.56C138.238 389.56 138.963 389.923 139.56 390.648L166.056 426.168V392.248C166.056 391.437 166.27 390.797 166.696 390.328C167.166 389.816 167.784 389.56 168.552 389.56ZM227.385 431.992C227.555 432.333 227.641 432.696 227.641 433.08C227.641 433.72 227.385 434.253 226.873 434.68C226.403 435.107 225.827 435.32 225.145 435.32C224.078 435.32 223.331 434.808 222.905 433.784L218.361 423.416H194.233L189.625 433.784C189.198 434.808 188.451 435.32 187.385 435.32C186.702 435.32 186.105 435.107 185.593 434.68C185.081 434.211 184.825 433.656 184.825 433.016C184.825 432.675 184.91 432.333 185.081 431.992L203.385 391.288C203.641 390.691 204.025 390.243 204.537 389.944C205.049 389.645 205.603 389.496 206.201 389.496C206.841 389.496 207.417 389.667 207.929 390.008C208.441 390.307 208.825 390.733 209.081 391.288L227.385 431.992ZM196.153 419.064H216.441L206.265 396.088L196.153 419.064ZM275.165 389.56C275.933 389.56 276.53 389.816 276.957 390.328C277.383 390.797 277.597 391.437 277.597 392.248V432.632C277.597 433.443 277.362 434.104 276.893 434.616C276.466 435.085 275.847 435.32 275.037 435.32C274.226 435.32 273.522 434.957 272.925 434.232L246.365 398.712V432.632C246.365 433.443 246.13 434.104 245.661 434.616C245.234 435.085 244.637 435.32 243.869 435.32C243.101 435.32 242.503 435.085 242.077 434.616C241.65 434.104 241.437 433.443 241.437 432.632V392.248C241.437 391.437 241.65 390.797 242.077 390.328C242.546 389.816 243.186 389.56 243.997 389.56C244.85 389.56 245.575 389.923 246.173 390.648L272.669 426.168V392.248C272.669 391.437 272.882 390.797 273.309 390.328C273.778 389.816 274.397 389.56 275.165 389.56ZM314.285 435.512C310.019 435.512 306.328 434.595 303.213 432.76C300.099 430.883 297.688 428.216 295.981 424.76C294.317 421.261 293.485 417.144 293.485 412.408C293.485 407.715 294.317 403.64 295.981 400.184C297.688 396.685 300.099 394.019 303.213 392.184C306.328 390.307 310.019 389.368 314.285 389.368C317.144 389.368 319.832 389.837 322.349 390.776C324.909 391.672 327.128 392.973 329.005 394.68C329.688 395.32 330.029 396.067 330.029 396.92C330.029 397.517 329.859 398.051 329.517 398.52C329.176 398.947 328.771 399.16 328.301 399.16C327.789 399.16 327.171 398.925 326.445 398.456C324.269 396.749 322.285 395.555 320.493 394.872C318.744 394.189 316.717 393.848 314.413 393.848C309.464 393.848 305.645 395.469 302.957 398.712C300.312 401.912 298.989 406.477 298.989 412.408C298.989 418.381 300.312 422.989 302.957 426.232C305.645 429.432 309.464 431.032 314.413 431.032C316.675 431.032 318.701 430.691 320.493 430.008C322.285 429.325 324.269 428.131 326.445 426.424C327.171 425.955 327.789 425.72 328.301 425.72C328.771 425.72 329.176 425.933 329.517 426.36C329.859 426.787 330.029 427.32 330.029 427.96C330.029 428.813 329.688 429.56 329.005 430.2C327.128 431.907 324.909 433.229 322.349 434.168C319.832 435.064 317.144 435.512 314.285 435.512ZM347.55 435C346.739 435 346.078 434.765 345.566 434.296C345.096 433.827 344.862 433.208 344.862 432.44V392.44C344.862 391.672 345.096 391.053 345.566 390.584C346.078 390.115 346.739 389.88 347.55 389.88H371.486C372.254 389.88 372.851 390.072 373.278 390.456C373.704 390.84 373.918 391.373 373.918 392.056C373.918 392.739 373.704 393.272 373.278 393.656C372.851 394.04 372.254 394.232 371.486 394.232H350.046V409.912H370.206C370.974 409.912 371.571 410.104 371.998 410.488C372.424 410.872 372.638 411.405 372.638 412.088C372.638 412.771 372.424 413.304 371.998 413.688C371.571 414.072 370.974 414.264 370.206 414.264H350.046V430.648H371.486C372.254 430.648 372.851 430.84 373.278 431.224C373.704 431.565 373.918 432.099 373.918 432.824C373.918 433.507 373.704 434.04 373.278 434.424C372.851 434.808 372.254 435 371.486 435H347.55Z" fill="#303030"/>
</g>
<defs>
<filter id="filter0_d" x="0" y="61.625" width="274" height="274" filterUnits="userSpaceOnUse" color-interpolation-filters="sRGB">
<feFlood flood-opacity="0" result="BackgroundImageFix"/>
<feColorMatrix in="SourceAlpha" type="matrix" values="0 0 0 0 0 0 0 0 0 0 0 0 0 0 0 0 0 0 127 0"/>
<feMorphology radius="2" operator="dilate" in="SourceAlpha" result="effect1_dropShadow"/>
<feOffset/>
<feGaussianBlur stdDeviation="5"/>
<feColorMatrix type="matrix" values="0 0 0 0 0 0 0 0 0 0 0 0 0 0 0 0 0 0 0.25 0"/>
<feBlend mode="normal" in2="BackgroundImageFix" result="effect1_dropShadow"/>
<feBlend mode="normal" in="SourceGraphic" in2="effect1_dropShadow" result="shape"/>
</filter>
<filter id="filter1_d" x="68.625" y="0" width="274" height="274" filterUnits="userSpaceOnUse" color-interpolation-filters="sRGB">
<feFlood flood-opacity="0" result="BackgroundImageFix"/>
<feColorMatrix in="SourceAlpha" type="matrix" values="0 0 0 0 0 0 0 0 0 0 0 0 0 0 0 0 0 0 127 0"/>
<feMorphology radius="2" operator="dilate" in="SourceAlpha" result="effect1_dropShadow"/>
<feOffset/>
<feGaussianBlur stdDeviation="5"/>
<feColorMatrix type="matrix" values="0 0 0 0 0 0 0 0 0 0 0 0 0 0 0 0 0 0 0.25 0"/>
<feBlend mode="normal" in2="BackgroundImageFix" result="effect1_dropShadow"/>
<feBlend mode="normal" in="SourceGraphic" in2="effect1_dropShadow" result="shape"/>
</filter>
<filter id="filter2_d" x="167.5" y="61.625" width="274" height="274" filterUnits="userSpaceOnUse" color-interpolation-filters="sRGB">
<feFlood flood-opacity="0" result="BackgroundImageFix"/>
<feColorMatrix in="SourceAlpha" type="matrix" values="0 0 0 0 0 0 0 0 0 0 0 0 0 0 0 0 0 0 127 0"/>
<feMorphology radius="2" operator="dilate" in="SourceAlpha" result="effect1_dropShadow"/>
<feOffset/>
<feGaussianBlur stdDeviation="5"/>
<feColorMatrix type="matrix" values="0 0 0 0 0 0 0 0 0 0 0 0 0 0 0 0 0 0 0.25 0"/>
<feBlend mode="normal" in2="BackgroundImageFix" result="effect1_dropShadow"/>
<feBlend mode="normal" in="SourceGraphic" in2="effect1_dropShadow" result="shape"/>
</filter>
<filter id="filter3_d" x="66.0242" y="385.368" width="311.894" height="54.144" filterUnits="userSpaceOnUse" color-interpolation-filters="sRGB">
<feFlood flood-opacity="0" result="BackgroundImageFix"/>
<feColorMatrix in="SourceAlpha" type="matrix" values="0 0 0 0 0 0 0 0 0 0 0 0 0 0 0 0 0 0 127 0"/>
<feOffset/>
<feGaussianBlur stdDeviation="2"/>
<feColorMatrix type="matrix" values="0 0 0 0 0 0 0 0 0 0 0 0 0 0 0 0 0 0 0.4 0"/>
<feBlend mode="normal" in2="BackgroundImageFix" result="effect1_dropShadow"/>
<feBlend mode="normal" in="SourceGraphic" in2="effect1_dropShadow" result="shape"/>
</filter>
</defs>
</svg>
