<svg width="68" height="55" viewBox="0 0 68 55" fill="none" xmlns="http://www.w3.org/2000/svg">
<g filter="url(#filter0_d)">
<rect x="4" y="13.375" width="37.5" height="37.5" rx="18.75" fill="#31E8E8"/>
</g>
<g filter="url(#filter1_d)">
<rect x="13.375" y="4" width="37.5" height="37.5" rx="18.75" fill="#31E89F"/>
</g>
<g filter="url(#filter2_d)">
<rect x="26.5" y="13.375" width="37.5" height="37.5" rx="18.75" fill="#31C6E8"/>
</g>
<path d="M45.0156 30.8359C42.3555 30.1445 41.5 29.4297 41.5 28.3164C41.5 27.0391 42.6836 26.1484 44.6641 26.1484C46.75 26.1484 47.5234 27.1445 47.5938 28.6094H50.1836C50.1016 26.5938 48.8711 24.7422 46.4219 24.1445V21.5781H42.9062V24.1094C40.6328 24.6016 38.8047 26.0781 38.8047 28.3398C38.8047 31.0469 41.043 32.3945 44.3125 33.1797C47.2422 33.8828 47.8281 34.9141 47.8281 36.0039C47.8281 36.8125 47.2539 38.1016 44.6641 38.1016C42.25 38.1016 41.3008 37.0234 41.1719 35.6406H38.5938C38.7344 38.207 40.6562 39.6484 42.9062 40.1289V42.6719H46.4219V40.1523C48.707 39.7188 50.5234 38.3945 50.5234 35.9922C50.5234 32.6641 47.6758 31.5273 45.0156 30.8359Z" fill="#0F6A7E"/>
<defs>
<filter id="filter0_d" x="0" y="9.375" width="45.5" height="45.5" filterUnits="userSpaceOnUse" color-interpolation-filters="sRGB">
<feFlood flood-opacity="0" result="BackgroundImageFix"/>
<feColorMatrix in="SourceAlpha" type="matrix" values="0 0 0 0 0 0 0 0 0 0 0 0 0 0 0 0 0 0 127 0"/>
<feOffset/>
<feGaussianBlur stdDeviation="2"/>
<feColorMatrix type="matrix" values="0 0 0 0 0 0 0 0 0 0 0 0 0 0 0 0 0 0 0.25 0"/>
<feBlend mode="normal" in2="BackgroundImageFix" result="effect1_dropShadow"/>
<feBlend mode="normal" in="SourceGraphic" in2="effect1_dropShadow" result="shape"/>
</filter>
<filter id="filter1_d" x="9.375" y="0" width="45.5" height="45.5" filterUnits="userSpaceOnUse" color-interpolation-filters="sRGB">
<feFlood flood-opacity="0" result="BackgroundImageFix"/>
<feColorMatrix in="SourceAlpha" type="matrix" values="0 0 0 0 0 0 0 0 0 0 0 0 0 0 0 0 0 0 127 0"/>
<feOffset/>
<feGaussianBlur stdDeviation="2"/>
<feColorMatrix type="matrix" values="0 0 0 0 0 0 0 0 0 0 0 0 0 0 0 0 0 0 0.25 0"/>
<feBlend mode="normal" in2="BackgroundImageFix" result="effect1_dropShadow"/>
<feBlend mode="normal" in="SourceGraphic" in2="effect1_dropShadow" result="shape"/>
</filter>
<filter id="filter2_d" x="22.5" y="9.375" width="45.5" height="45.5" filterUnits="userSpaceOnUse" color-interpolation-filters="sRGB">
<feFlood flood-opacity="0" result="BackgroundImageFix"/>
<feColorMatrix in="SourceAlpha" type="matrix" values="0 0 0 0 0 0 0 0 0 0 0 0 0 0 0 0 0 0 127 0"/>
<feOffset/>
<feGaussianBlur stdDeviation="2"/>
<feColorMatrix type="matrix" values="0 0 0 0 0 0 0 0 0 0 0 0 0 0 0 0 0 0 0.25 0"/>
<feBlend mode="normal" in2="BackgroundImageFix" result="effect1_dropShadow"/>
<feBlend mode="normal" in="SourceGraphic" in2="effect1_dropShadow" result="shape"/>
</filter>
</defs>
</svg>
