<svg width="26" height="30" viewBox="0 0 26 30" fill="none" xmlns="http://www.w3.org/2000/svg">
<g filter="url(#filter0_d)">
<path d="M11.6111 13.9722C8.45833 13.1528 7.44444 12.3056 7.44444 10.9861C7.44444 9.47222 8.84722 8.41667 11.1944 8.41667C13.6667 8.41667 14.5833 9.59722 14.6667 11.3333H17.7361C17.6389 8.94444 16.1806 6.75 13.2778 6.04167V3H9.11111V6C6.41667 6.58333 4.25 8.33333 4.25 11.0139C4.25 14.2222 6.90278 15.8194 10.7778 16.75C14.25 17.5833 14.9444 18.8056 14.9444 20.0972C14.9444 21.0556 14.2639 22.5833 11.1944 22.5833C8.33333 22.5833 7.20833 21.3056 7.05556 19.6667H4C4.16667 22.7083 6.44444 24.4167 9.11111 24.9861V28H13.2778V25.0139C15.9861 24.5 18.1389 22.9306 18.1389 20.0833C18.1389 16.1389 14.7639 14.7917 11.6111 13.9722Z" fill="#0F6A7E"/>
</g>
<defs>
<filter id="filter0_d" x="0" y="0" width="26.1389" height="37" filterUnits="userSpaceOnUse" color-interpolation-filters="sRGB">
<feFlood flood-opacity="0" result="BackgroundImageFix"/>
<feColorMatrix in="SourceAlpha" type="matrix" values="0 0 0 0 0 0 0 0 0 0 0 0 0 0 0 0 0 0 127 0" result="hardAlpha"/>
<feOffset dx="2" dy="3"/>
<feGaussianBlur stdDeviation="3"/>
<feComposite in2="hardAlpha" operator="out"/>
<feColorMatrix type="matrix" values="0 0 0 0 0 0 0 0 0 0 0 0 0 0 0 0 0 0 0.25 0"/>
<feBlend mode="normal" in2="BackgroundImageFix" result="effect1_dropShadow"/>
<feBlend mode="normal" in="SourceGraphic" in2="effect1_dropShadow" result="shape"/>
</filter>
</defs>
</svg>
