<svg width="260" height="235" viewBox="0 0 260 235" fill="none" xmlns="http://www.w3.org/2000/svg">
<g clip-path="url(#clip0)">
<path d="M161.543 136.559H66.3074C63.0779 136.555 59.9817 135.268 57.698 132.978C55.4144 130.689 54.1298 127.584 54.1262 124.346V12.2126C54.1298 8.97474 55.4144 5.87054 57.698 3.58103C59.9817 1.29151 63.0779 0.00365748 66.3074 0H154.908L173.724 15.0359V124.346C173.72 127.584 172.436 130.689 170.152 132.978C167.868 135.268 164.772 136.555 161.543 136.559Z" fill="#E6E6E6"/>
<path d="M66.3074 3.51575C64.0075 3.51835 61.8026 4.43545 60.1764 6.06587C58.5502 7.69628 57.6354 9.90685 57.6328 12.2126V124.346C57.6354 126.652 58.5502 128.863 60.1764 130.493C61.8026 132.124 64.0075 133.041 66.3074 133.043H161.542C163.842 133.041 166.047 132.124 167.673 130.493C169.3 128.863 170.214 126.652 170.217 124.346V16.7296L153.681 3.51575H66.3074Z" fill="white"/>
<path d="M143.019 36.1213H99.66C99.3936 36.1213 99.1299 36.0687 98.8838 35.9665C98.6376 35.8643 98.414 35.7145 98.2257 35.5256C98.0373 35.3368 97.8879 35.1126 97.7859 34.8658C97.684 34.6191 97.6315 34.3546 97.6315 34.0876C97.6315 33.8205 97.684 33.556 97.7859 33.3093C97.8879 33.0625 98.0373 32.8383 98.2257 32.6495C98.414 32.4606 98.6376 32.3108 98.8838 32.2086C99.1299 32.1064 99.3936 32.0538 99.66 32.0538H143.019C143.286 32.0538 143.549 32.1064 143.795 32.2086C144.042 32.3108 144.265 32.4606 144.454 32.6495C144.642 32.8383 144.791 33.0625 144.893 33.3093C144.995 33.556 145.048 33.8205 145.048 34.0876C145.048 34.3546 144.995 34.6191 144.893 34.8658C144.791 35.1126 144.642 35.3368 144.454 35.5256C144.265 35.7145 144.042 35.8643 143.795 35.9665C143.549 36.0687 143.286 36.1213 143.019 36.1213Z" fill="#CCCCCC"/>
<path d="M151.387 42.9851H99.66C99.122 42.9851 98.6061 42.7708 98.2257 42.3895C97.8452 42.0081 97.6315 41.4908 97.6315 40.9514C97.6315 40.412 97.8452 39.8947 98.2257 39.5133C98.6061 39.1319 99.122 38.9177 99.66 38.9177H151.387C151.925 38.9177 152.441 39.1319 152.821 39.5133C153.202 39.8947 153.415 40.412 153.415 40.9514C153.415 41.4908 153.202 42.0081 152.821 42.3895C152.441 42.7708 151.925 42.9851 151.387 42.9851Z" fill="#CCCCCC"/>
<path d="M143.019 66.8814H99.66C99.122 66.8814 98.6061 66.6671 98.2257 66.2857C97.8452 65.9043 97.6315 65.387 97.6315 64.8476C97.6315 64.3082 97.8452 63.791 98.2257 63.4096C98.6061 63.0282 99.122 62.8139 99.66 62.8139H143.019C143.557 62.8139 144.073 63.0282 144.454 63.4096C144.834 63.791 145.048 64.3082 145.048 64.8476C145.048 65.387 144.834 65.9043 144.454 66.2857C144.073 66.6671 143.557 66.8814 143.019 66.8814Z" fill="#CCCCCC"/>
<path d="M151.387 73.7452H99.66C99.122 73.7452 98.6061 73.5309 98.2257 73.1495C97.8452 72.7681 97.6315 72.2508 97.6315 71.7115C97.6315 71.1721 97.8452 70.6548 98.2257 70.2734C98.6061 69.892 99.122 69.6777 99.66 69.6777H151.387C151.925 69.6777 152.441 69.892 152.821 70.2734C153.202 70.6548 153.415 71.1721 153.415 71.7115C153.415 72.2508 153.202 72.7681 152.821 73.1495C152.441 73.5309 151.925 73.7452 151.387 73.7452Z" fill="#CCCCCC"/>
<path d="M143.019 97.6414H99.66C99.122 97.6414 98.6061 97.4272 98.2257 97.0458C97.8452 96.6644 97.6315 96.1471 97.6315 95.6077C97.6315 95.0683 97.8452 94.551 98.2257 94.1696C98.6061 93.7882 99.122 93.574 99.66 93.574H143.019C143.557 93.574 144.073 93.7882 144.454 94.1696C144.834 94.551 145.048 95.0683 145.048 95.6077C145.048 96.1471 144.834 96.6644 144.454 97.0458C144.073 97.4272 143.557 97.6414 143.019 97.6414Z" fill="#CCCCCC"/>
<path d="M151.387 104.505H99.66C99.122 104.505 98.6061 104.291 98.2257 103.91C97.8452 103.528 97.6315 103.011 97.6315 102.471C97.6315 101.932 97.8452 101.415 98.2257 101.033C98.6061 100.652 99.122 100.438 99.66 100.438H151.387C151.925 100.438 152.441 100.652 152.821 101.033C153.202 101.415 153.415 101.932 153.415 102.471C153.415 103.011 153.202 103.528 152.821 103.91C152.441 104.291 151.925 104.505 151.387 104.505Z" fill="#CCCCCC"/>
<path d="M81.6042 44.7075C85.5639 44.7075 88.7738 41.4893 88.7738 37.5195C88.7738 33.5496 85.5639 30.3314 81.6042 30.3314C77.6445 30.3314 74.4346 33.5496 74.4346 37.5195C74.4346 41.4893 77.6445 44.7075 81.6042 44.7075Z" fill="#E4C1F9"/>
<path d="M80.8937 40.2615C80.7324 40.2617 80.5754 40.2094 80.4463 40.1124L80.4383 40.1064L78.7534 38.8141C78.596 38.6929 78.493 38.514 78.4671 38.3167C78.4412 38.1194 78.4945 37.9199 78.6152 37.762C78.736 37.6041 78.9143 37.5007 79.1111 37.4745C79.3079 37.4484 79.5069 37.5016 79.6645 37.6226L80.7559 38.4616L83.3349 35.0884C83.3947 35.0102 83.4693 34.9446 83.5544 34.8952C83.6395 34.8459 83.7335 34.8139 83.8309 34.801C83.9283 34.7881 84.0274 34.7946 84.1223 34.82C84.2173 34.8455 84.3063 34.8895 84.3843 34.9494L84.3845 34.9496L84.3685 34.9719L84.3849 34.9496C84.5423 35.0709 84.6453 35.2498 84.6712 35.447C84.6972 35.6443 84.644 35.8439 84.5234 36.0019L81.4899 39.9678C81.4198 40.0592 81.3295 40.1331 81.2262 40.1839C81.123 40.2347 81.0094 40.2609 80.8944 40.2606L80.8937 40.2615Z" fill="white"/>
<path d="M82.3424 75.4676C86.3021 75.4676 89.5121 72.2494 89.5121 68.2795C89.5121 64.3097 86.3021 61.0914 82.3424 61.0914C78.3827 61.0914 75.1728 64.3097 75.1728 68.2795C75.1728 72.2494 78.3827 75.4676 82.3424 75.4676Z" fill="#CCCCCC"/>
<path d="M81.6042 106.228C85.5639 106.228 88.7738 103.009 88.7738 99.0396C88.7738 95.0697 85.5639 91.8515 81.6042 91.8515C77.6445 91.8515 74.4346 95.0697 74.4346 99.0396C74.4346 103.009 77.6445 106.228 81.6042 106.228Z" fill="#CCCCCC"/>
<path d="M173.357 15.5198H158.619C157.543 15.5198 156.511 15.0912 155.75 14.3284C154.989 13.5657 154.562 12.5311 154.562 11.4523V0.538339C154.562 0.490556 154.575 0.443737 154.6 0.403258C154.626 0.362779 154.662 0.330275 154.705 0.309473C154.748 0.288672 154.796 0.280414 154.843 0.285649C154.89 0.290884 154.935 0.309398 154.973 0.339069L173.515 15.0663C173.556 15.0991 173.586 15.1439 173.601 15.1946C173.616 15.2453 173.614 15.2993 173.597 15.3491C173.58 15.399 173.547 15.4422 173.504 15.4728C173.461 15.5033 173.41 15.5198 173.357 15.5198Z" fill="#E6E6E6"/>
<path d="M73.5849 157.569L17.239 169.477C15.6107 169.819 13.9135 169.499 12.5197 168.589C11.126 167.678 10.1495 166.25 9.8045 164.618L0.135628 118.629C-0.205682 116.996 0.112848 115.294 1.02134 113.897C1.92982 112.5 3.35407 111.521 4.98162 111.175L61.3275 99.2676C62.9559 98.9254 64.6531 99.2448 66.0468 100.156C67.4406 101.066 68.4171 102.494 68.7621 104.126L78.4309 150.116C78.7722 151.748 78.4537 153.45 77.5452 154.847C76.6367 156.244 75.2125 157.223 73.5849 157.569Z" fill="white"/>
<path d="M73.5849 157.569L17.239 169.477C15.6107 169.819 13.9135 169.499 12.5197 168.589C11.126 167.678 10.1495 166.25 9.8045 164.618L0.135628 118.629C-0.205682 116.996 0.112848 115.294 1.02134 113.897C1.92982 112.5 3.35407 111.521 4.98162 111.175L61.3275 99.2676C62.9559 98.9254 64.6531 99.2448 66.0468 100.156C67.4406 101.066 68.4171 102.494 68.7621 104.126L78.4309 150.116C78.7722 151.748 78.4537 153.45 77.5452 154.847C76.6367 156.244 75.2125 157.223 73.5849 157.569ZM5.13389 111.899C3.69782 112.204 2.44114 113.068 1.63953 114.301C0.837925 115.534 0.556862 117.035 0.858006 118.476L10.5269 164.465C10.8313 165.905 11.6929 167.165 12.9227 167.969C14.1525 168.772 15.65 169.054 17.0868 168.752L73.4327 156.845C74.8687 156.54 76.1254 155.676 76.927 154.443C77.7286 153.21 78.0097 151.709 77.7086 150.268L68.0397 104.279C67.7353 102.839 66.8737 101.579 65.6439 100.775C64.4141 99.9717 62.9166 99.6899 61.4798 99.9919L5.13389 111.899Z" fill="#3F3D56"/>
<path d="M57.8266 114.432L29.3896 120.441C29.1407 120.499 28.8792 120.46 28.658 120.332C28.4367 120.204 28.2721 119.997 28.1976 119.752C28.1635 119.624 28.1557 119.491 28.1747 119.36C28.1937 119.229 28.2391 119.103 28.3081 118.991C28.3772 118.878 28.4684 118.78 28.5762 118.704C28.684 118.628 28.8062 118.575 28.9353 118.547L57.8825 112.43C59.0127 113.069 58.6555 114.257 57.8263 114.432L57.8266 114.432Z" fill="#CCCCCC"/>
<path d="M58.878 119.433L30.441 125.442C30.1921 125.5 29.9306 125.461 29.7094 125.333C29.4881 125.205 29.3235 124.997 29.249 124.753C29.2149 124.625 29.2071 124.491 29.2261 124.361C29.2451 124.23 29.2905 124.104 29.3595 123.991C29.4286 123.879 29.5198 123.781 29.6276 123.705C29.7354 123.629 29.8576 123.576 29.9867 123.548L58.9338 117.431C60.0641 118.07 59.7069 119.257 58.8777 119.433L58.878 119.433Z" fill="#CCCCCC"/>
<path d="M24.8922 129.588L16.2135 131.423C15.93 131.482 15.6346 131.427 15.392 131.268C15.1494 131.109 14.9794 130.861 14.9194 130.577L12.7607 120.309C12.7012 120.025 12.7567 119.729 12.9148 119.485C13.0729 119.242 13.3209 119.072 13.6042 119.012L22.2829 117.178C22.5663 117.118 22.8617 117.174 23.1043 117.332C23.3469 117.491 23.5168 117.739 23.5769 118.023L25.7357 128.291C25.7951 128.575 25.7397 128.871 25.5815 129.115C25.4234 129.358 25.1755 129.528 24.8922 129.589V129.588Z" fill="#CCCCCC"/>
<path d="M60.948 129.689L17.5479 138.861C17.2991 138.919 17.0376 138.88 16.8163 138.752C16.595 138.624 16.4305 138.416 16.3559 138.171C16.3218 138.044 16.314 137.91 16.333 137.779C16.352 137.649 16.3974 137.523 16.4665 137.41C16.5355 137.298 16.6267 137.2 16.7345 137.124C16.8424 137.048 16.9645 136.994 17.0936 136.967L61.0042 127.688C62.1345 128.326 61.7772 129.514 60.948 129.689Z" fill="#CCCCCC"/>
<path d="M61.9997 134.692L18.5996 143.863C18.3508 143.921 18.0893 143.882 17.868 143.754C17.6467 143.626 17.4821 143.419 17.4076 143.174C17.3735 143.046 17.3657 142.913 17.3847 142.782C17.4037 142.651 17.4491 142.525 17.5182 142.413C17.5872 142.3 17.6784 142.203 17.7862 142.126C17.8941 142.05 18.0162 141.997 18.1453 141.97L62.0559 132.69C63.1862 133.329 62.8289 134.516 61.9997 134.692Z" fill="#CCCCCC"/>
<path d="M63.0508 139.691L19.6506 148.862C19.4018 148.92 19.1403 148.881 18.919 148.753C18.6977 148.625 18.5332 148.418 18.4586 148.173C18.4245 148.045 18.4167 147.912 18.4357 147.781C18.4548 147.65 18.5002 147.524 18.5692 147.412C18.6382 147.299 18.7294 147.202 18.8373 147.125C18.9451 147.049 19.0673 146.996 19.1963 146.969L63.107 137.689C64.2372 138.328 63.88 139.516 63.0508 139.691Z" fill="#CCCCCC"/>
<path d="M64.1024 144.693L20.7022 153.864C20.4534 153.922 20.1919 153.883 19.9706 153.755C19.7493 153.627 19.5848 153.42 19.5102 153.175C19.4761 153.047 19.4683 152.914 19.4873 152.783C19.5064 152.652 19.5518 152.526 19.6208 152.414C19.6898 152.301 19.781 152.204 19.8889 152.127C19.9967 152.051 20.1189 151.998 20.248 151.971L64.1586 142.691C65.2888 143.33 64.9316 144.518 64.1024 144.693Z" fill="#CCCCCC"/>
<path d="M65.1535 149.692L21.7533 158.864C21.5045 158.922 21.243 158.883 21.0217 158.755C20.8004 158.627 20.6359 158.419 20.5613 158.174C20.5272 158.047 20.5194 157.913 20.5384 157.782C20.5574 157.651 20.6029 157.526 20.6719 157.413C20.7409 157.3 20.8321 157.203 20.94 157.127C21.0478 157.051 21.17 156.997 21.299 156.97L65.2096 147.691C66.3399 148.329 65.9827 149.517 65.1535 149.692Z" fill="#CCCCCC"/>
<path d="M72.8146 126.797C72.716 126.976 72.6316 127.163 72.5624 127.356L54.795 131.776L51.7041 128.57L46.2687 132.614L51.1903 138.823C51.588 139.324 52.1371 139.683 52.7554 139.845C53.3736 140.007 54.0276 139.964 54.6192 139.721L73.8985 131.823C74.5322 132.291 75.2929 132.554 76.0794 132.578C76.8659 132.601 77.6409 132.384 78.3014 131.955C78.9619 131.527 79.4766 130.907 79.7769 130.177C80.0773 129.448 80.1491 128.645 79.9828 127.874C79.8165 127.103 79.42 126.4 78.8461 125.861C78.2721 125.321 77.5479 124.97 76.7697 124.853C75.9916 124.736 75.1963 124.859 74.4898 125.206C73.7833 125.554 73.199 126.108 72.8146 126.797L72.8146 126.797Z" fill="#A0616A"/>
<path d="M12.168 166.133C12.7219 165.962 13.2316 165.671 13.6611 165.28C14.0906 164.89 14.4296 164.41 14.654 163.874C14.8785 163.338 14.9831 162.759 14.9603 162.179C14.9376 161.598 14.7881 161.029 14.5224 160.513L26.7495 126.44L18.2582 124.932L8.90943 158.898C8.07341 159.403 7.45121 160.198 7.16072 161.132C6.87023 162.066 6.93163 163.075 7.3333 163.967C7.73496 164.859 8.44898 165.572 9.34005 165.971C10.2311 166.37 11.2373 166.428 12.168 166.133Z" fill="#A0616A"/>
<path d="M25.1966 132.489L16.8128 129.263C16.5743 129.171 16.3582 129.029 16.1795 128.846C16.0007 128.663 15.8634 128.443 15.7769 128.202C15.6904 127.961 15.6567 127.704 15.6781 127.449C15.6996 127.194 15.7756 126.946 15.9011 126.723L20.2993 118.905C20.7747 117.684 21.7136 116.702 22.91 116.174C24.1065 115.646 25.4629 115.615 26.6819 116.088C27.9009 116.562 28.8831 117.5 29.413 118.698C29.943 119.896 29.9775 121.256 29.5091 122.479L27.5691 131.212C27.5135 131.462 27.4048 131.697 27.2504 131.902C27.0959 132.106 26.8995 132.274 26.6743 132.395C26.4492 132.516 26.2007 132.587 25.9457 132.603C25.6906 132.62 25.4352 132.58 25.1966 132.489V132.489Z" fill="#E4C1F9"/>
<path d="M44.12 230.102L48.6455 230.102L50.7983 212.602L44.1193 212.602L44.12 230.102Z" fill="#A0616A"/>
<path d="M42.9656 228.621L51.8778 228.621H51.8781C52.624 228.621 53.3625 228.768 54.0516 229.054C54.7407 229.34 55.3668 229.76 55.8942 230.288C56.4216 230.817 56.84 231.445 57.1254 232.136C57.4108 232.827 57.5577 233.567 57.5577 234.315V234.5L42.9659 234.5L42.9656 228.621Z" fill="#2F2E41"/>
<path d="M18.6502 230.102L23.1757 230.102L25.3285 212.602L18.6495 212.602L18.6502 230.102Z" fill="#A0616A"/>
<path d="M17.4958 228.621L26.4079 228.621H26.4083C27.1541 228.621 27.8927 228.768 28.5818 229.054C29.2709 229.34 29.897 229.76 30.4244 230.288C30.9518 230.817 31.3701 231.445 31.6555 232.136C31.941 232.827 32.0879 233.567 32.0879 234.315V234.5L17.496 234.5L17.4958 228.621Z" fill="#2F2E41"/>
<path d="M23.3944 223.059H17.6675C17.4427 223.059 17.2203 223.013 17.0136 222.924C16.807 222.835 16.6205 222.706 16.4654 222.543C16.3103 222.379 16.1898 222.186 16.1112 221.975C16.0326 221.764 15.9976 221.539 16.0083 221.314L18.7285 162.719L18.8999 162.714L46.5547 161.991L51.9663 220.62C51.9871 220.84 51.9641 221.062 51.8987 221.273C51.8332 221.483 51.7267 221.679 51.5851 221.848C51.4436 222.017 51.2699 222.157 51.0742 222.258C50.8785 222.359 50.6647 222.42 50.4452 222.438L44.0126 222.954C43.6085 222.986 43.2066 222.869 42.8825 222.625C42.5585 222.38 42.3346 222.026 42.253 221.628L34.025 179.892C34.0026 179.765 33.9355 179.65 33.836 179.569C33.7365 179.488 33.6112 179.445 33.4828 179.448H33.4805C33.3517 179.445 33.2261 179.489 33.1267 179.571C33.0273 179.653 32.9608 179.769 32.9392 179.896L25.0242 221.715C24.9492 222.093 24.7459 222.434 24.4488 222.679C24.1516 222.924 23.779 223.058 23.3944 223.059Z" fill="#2F2E41"/>
<path d="M33.8849 110.459C38.892 110.459 42.951 106.39 42.951 101.37C42.951 96.3498 38.892 92.2803 33.8849 92.2803C28.8778 92.2803 24.8187 96.3498 24.8187 101.37C24.8187 106.39 28.8778 110.459 33.8849 110.459Z" fill="#A0616A"/>
<path d="M30.8449 169.586C26.5238 169.586 22.0854 168.447 18.406 165.08C18.2102 164.902 18.059 164.68 17.9648 164.433C17.8705 164.185 17.8359 163.919 17.8636 163.655C18.2574 160.108 20.1677 141.791 19.0919 129.555C18.882 127.269 19.2047 124.966 20.0346 122.827C20.8646 120.688 22.179 118.772 23.8742 117.23C25.5397 115.691 27.5391 114.561 29.7147 113.929C31.8903 113.298 34.1826 113.181 36.4106 113.59H36.4107C36.5236 113.61 36.6364 113.632 36.7494 113.653C44.0078 115.062 49.051 121.797 48.4803 129.319C47.6476 140.296 46.9011 155.143 48.0732 163.54C48.1218 163.883 48.062 164.233 47.9021 164.541C47.7423 164.849 47.4904 165.099 47.1819 165.256C44.515 166.606 37.8333 169.586 30.8449 169.586Z" fill="#E4C1F9"/>
<path d="M42.6752 133.143C42.4624 133.001 42.2827 132.814 42.1484 132.597C42.014 132.379 41.9281 132.134 41.8965 131.88L40.7919 123.002C40.4413 121.739 40.6044 120.389 41.2453 119.247C41.8863 118.104 42.9529 117.264 44.2112 116.909C45.4696 116.554 46.817 116.713 47.9581 117.353C49.0992 117.992 49.9409 119.059 50.2985 120.32L53.9368 128.521C54.0406 128.755 54.0929 129.009 54.09 129.265C54.0872 129.521 54.0294 129.774 53.9204 130.005C53.8115 130.237 53.654 130.443 53.4587 130.608C53.2635 130.773 53.035 130.894 52.7888 130.963L44.1374 133.376C43.8913 133.445 43.6332 133.46 43.3808 133.42C43.1285 133.379 42.8878 133.285 42.6752 133.143Z" fill="#E4C1F9"/>
<path d="M30.7199 110.331C29.8618 110.347 29.009 110.192 28.2109 109.876C27.8597 109.74 27.4952 109.629 27.1446 109.493C24.0489 108.294 22.0096 104.988 21.9366 101.662C21.8635 98.3353 23.5818 95.1067 26.1332 92.9789C28.6847 90.8511 31.9895 89.7587 35.2986 89.5061C38.8632 89.234 42.8769 90.1403 44.8688 93.1164C45.399 93.9086 45.7697 94.8698 45.4556 95.8263C45.3615 96.115 45.1934 96.3738 44.9682 96.5769C44.0787 97.3703 43.1919 96.7737 42.2851 96.721C41.0387 96.6485 39.9193 97.66 39.5169 98.8449C39.1146 100.03 39.2917 101.334 39.6166 102.543C39.864 103.27 40.0201 104.025 40.081 104.791C40.1072 105.175 40.0352 105.56 39.8717 105.908C39.7082 106.257 39.4587 106.557 39.1468 106.782C38.3679 107.254 37.3451 106.981 36.5659 106.509C35.7866 106.038 35.1132 105.383 34.2714 105.036C33.4297 104.69 32.2987 104.766 31.8088 105.535C31.6531 105.815 31.5477 106.12 31.4975 106.437C31.0582 108.443 31.1592 108.325 30.7199 110.331V110.331Z" fill="#2F2E41"/>
<path d="M70.75 235H0.615649C0.51775 235 0.423861 234.961 0.354636 234.892C0.285411 234.822 0.246521 234.728 0.246521 234.63C0.246521 234.532 0.285411 234.438 0.354636 234.368C0.423861 234.299 0.51775 234.26 0.615649 234.26H70.75C70.8479 234.26 70.9418 234.299 71.011 234.368C71.0802 234.438 71.1191 234.532 71.1191 234.63C71.1191 234.728 71.0802 234.822 71.011 234.892C70.9418 234.961 70.8479 235 70.75 235Z" fill="#CCCCCC"/>
<path d="M250.273 158.627L200.051 186.87C198.599 187.684 196.884 187.888 195.282 187.436C193.681 186.985 192.323 185.915 191.508 184.461L168.574 143.469C167.762 142.013 167.558 140.294 168.009 138.688C168.459 137.083 169.527 135.722 170.977 134.904L221.2 106.661C222.652 105.846 224.366 105.643 225.968 106.094C227.57 106.546 228.927 107.616 229.743 109.07L252.677 150.062C253.489 151.517 253.692 153.237 253.241 154.842C252.791 156.448 251.724 157.809 250.273 158.627Z" fill="white"/>
<path d="M250.273 158.627L200.051 186.87C198.599 187.684 196.884 187.888 195.282 187.436C193.681 186.985 192.323 185.915 191.508 184.461L168.574 143.469C167.762 142.013 167.558 140.294 168.009 138.688C168.459 137.083 169.527 135.722 170.977 134.904L221.2 106.661C222.652 105.846 224.366 105.643 225.968 106.094C227.57 106.546 228.927 107.616 229.743 109.07L252.677 150.062C253.489 151.517 253.692 153.237 253.241 154.842C252.791 156.448 251.724 157.809 250.273 158.627ZM171.338 135.55C170.059 136.271 169.117 137.472 168.719 138.889C168.322 140.306 168.501 141.823 169.218 143.107L192.152 184.099C192.871 185.382 194.069 186.326 195.482 186.724C196.895 187.123 198.408 186.943 199.69 186.225L249.912 157.981C251.192 157.26 252.134 156.059 252.531 154.642C252.929 153.225 252.749 151.708 252.033 150.424L229.099 109.432C228.379 108.149 227.181 107.205 225.768 106.807C224.355 106.408 222.842 106.588 221.561 107.306L171.338 135.55Z" fill="#3F3D56"/>
<path d="M222.378 122.181L197.031 136.435C196.811 136.565 196.55 136.606 196.301 136.55C196.051 136.494 195.833 136.345 195.688 136.134C195.618 136.022 195.571 135.897 195.55 135.767C195.529 135.636 195.535 135.503 195.567 135.375C195.599 135.246 195.657 135.126 195.738 135.021C195.818 134.916 195.918 134.828 196.034 134.764L221.835 120.254C223.104 120.525 223.117 121.765 222.378 122.181L222.378 122.181Z" fill="#CCCCCC"/>
<path d="M224.872 126.638L199.525 140.892C199.305 141.022 199.044 141.063 198.795 141.007C198.545 140.952 198.326 140.803 198.182 140.591C198.112 140.48 198.064 140.355 198.044 140.224C198.023 140.094 198.029 139.96 198.061 139.832C198.093 139.704 198.151 139.583 198.231 139.478C198.312 139.373 198.412 139.286 198.527 139.221L224.329 124.711C225.598 124.982 225.611 126.223 224.872 126.638L224.872 126.638Z" fill="#CCCCCC"/>
<path d="M195.466 146.512L187.73 150.862C187.478 151.004 187.179 151.039 186.9 150.961C186.622 150.882 186.385 150.696 186.243 150.443L181.123 141.29C180.981 141.037 180.946 140.738 181.025 140.458C181.103 140.179 181.289 139.942 181.541 139.8L189.277 135.449C189.53 135.308 189.828 135.272 190.107 135.351C190.385 135.43 190.622 135.616 190.764 135.869L195.884 145.021C196.026 145.274 196.061 145.574 195.983 145.853C195.904 146.133 195.718 146.369 195.466 146.512L195.466 146.512Z" fill="#CCCCCC"/>
<path d="M229.904 135.806L191.221 157.561C191.001 157.691 190.739 157.732 190.49 157.676C190.241 157.62 190.022 157.471 189.878 157.26C189.807 157.148 189.76 157.023 189.739 156.893C189.718 156.762 189.724 156.629 189.756 156.5C189.789 156.372 189.847 156.252 189.927 156.147C190.007 156.042 190.108 155.954 190.223 155.89L229.362 133.879C230.63 134.15 230.644 135.391 229.904 135.806Z" fill="#CCCCCC"/>
<path d="M232.399 140.265L193.715 162.019C193.495 162.149 193.234 162.19 192.985 162.134C192.735 162.079 192.516 161.93 192.372 161.719C192.302 161.607 192.254 161.482 192.234 161.351C192.213 161.221 192.219 161.087 192.251 160.959C192.283 160.831 192.341 160.711 192.421 160.605C192.502 160.5 192.602 160.413 192.717 160.348L231.856 138.338C233.125 138.609 233.138 139.849 232.399 140.265V140.265Z" fill="#CCCCCC"/>
<path d="M234.892 144.721L196.208 166.475C195.988 166.605 195.727 166.646 195.478 166.59C195.228 166.534 195.009 166.386 194.865 166.174C194.795 166.063 194.747 165.938 194.727 165.807C194.706 165.677 194.712 165.543 194.744 165.415C194.776 165.287 194.834 165.166 194.914 165.061C194.995 164.956 195.095 164.869 195.21 164.804L234.349 142.794C235.618 143.065 235.631 144.305 234.892 144.721Z" fill="#CCCCCC"/>
<path d="M237.386 149.179L198.703 170.934C198.482 171.063 198.221 171.105 197.972 171.049C197.723 170.993 197.504 170.844 197.36 170.633C197.289 170.521 197.242 170.396 197.221 170.266C197.2 170.135 197.206 170.001 197.238 169.873C197.271 169.745 197.329 169.625 197.409 169.52C197.489 169.415 197.59 169.327 197.705 169.263L236.843 147.252C238.112 147.523 238.125 148.764 237.386 149.179H237.386Z" fill="#CCCCCC"/>
<path d="M239.88 153.636L201.196 175.39C200.976 175.52 200.714 175.561 200.465 175.505C200.216 175.449 199.997 175.3 199.853 175.089C199.782 174.977 199.735 174.852 199.714 174.722C199.693 174.591 199.699 174.458 199.731 174.329C199.764 174.201 199.822 174.081 199.902 173.976C199.982 173.871 200.083 173.783 200.198 173.719L239.337 151.708C240.606 151.979 240.619 153.22 239.88 153.635V153.636Z" fill="#CCCCCC"/>
<path d="M233.131 170.335C233.341 169.869 233.448 169.362 233.442 168.851C233.436 168.339 233.319 167.835 233.098 167.374C232.877 166.913 232.557 166.507 232.163 166.183C231.768 165.859 231.307 165.625 230.813 165.499L229.761 153.111L224.701 157.113L226.476 168.263C226.32 169.11 226.479 169.985 226.923 170.722C227.367 171.459 228.065 172.007 228.886 172.262C229.706 172.518 230.591 172.463 231.374 172.107C232.156 171.752 232.781 171.121 233.131 170.335Z" fill="#FFB8B8"/>
<path d="M229.856 164.202L225.654 164.704C225.441 164.73 225.224 164.711 225.019 164.649C224.813 164.586 224.622 164.482 224.458 164.343C224.294 164.203 224.161 164.031 224.067 163.837C223.972 163.644 223.919 163.433 223.909 163.217L223.297 149.005L215.332 127.191C215.012 126.514 214.867 125.768 214.908 125.02C214.95 124.273 215.177 123.547 215.568 122.91C215.764 122.602 215.987 122.313 216.236 122.047C216.726 121.517 217.337 121.115 218.015 120.873C218.694 120.631 219.421 120.558 220.135 120.659C220.869 120.757 221.57 121.029 222.179 121.453C222.788 121.877 223.287 122.441 223.635 123.097L228.829 134.01C231.002 138.574 232.028 143.602 231.817 148.655L231.231 162.713C231.216 163.081 231.072 163.432 230.824 163.704C230.576 163.975 230.241 164.151 229.877 164.199L229.856 164.202Z" fill="#E4C1F9"/>
<path d="M244.779 225.624L240.883 227.338L232.433 213.089L238.183 210.558L244.779 225.624Z" fill="#FFB8B8"/>
<path d="M247.43 228.972L234.868 234.5L234.799 234.341C234.517 233.697 234.364 233.004 234.349 232.301C234.335 231.599 234.458 230.9 234.713 230.245C234.968 229.59 235.349 228.992 235.834 228.484C236.319 227.977 236.9 227.57 237.542 227.288L237.542 227.287L245.214 223.911L247.43 228.972Z" fill="#2F2E41"/>
<path d="M192.477 230.366H188.223L186.199 213.913L192.478 213.913L192.477 230.366Z" fill="#FFB8B8"/>
<path d="M193.562 234.5L179.844 234.5V234.326C179.844 233.623 179.982 232.927 180.25 232.277C180.519 231.628 180.912 231.038 181.408 230.541C181.903 230.044 182.492 229.649 183.14 229.38C183.788 229.111 184.482 228.973 185.183 228.973H185.184L193.562 228.973L193.562 234.5Z" fill="#2F2E41"/>
<path d="M233.899 224.741L210.199 171.715C210.156 171.616 210.083 171.532 209.991 171.476C209.899 171.42 209.791 171.393 209.684 171.401C209.576 171.409 209.473 171.45 209.39 171.519C209.306 171.587 209.246 171.68 209.218 171.785L194.778 223.001C194.682 223.36 194.462 223.673 194.158 223.883C193.853 224.093 193.483 224.188 193.115 224.149L185.229 223.358C184.822 223.315 184.449 223.116 184.187 222.801C183.925 222.486 183.796 222.082 183.827 221.674C186.335 190.393 190.289 160.871 202.136 141.544L202.199 141.441L220.118 144.964L244.04 221.339C244.158 221.732 244.118 222.156 243.929 222.52C243.739 222.884 243.414 223.16 243.025 223.287L235.811 225.612C235.441 225.732 235.04 225.709 234.686 225.548C234.333 225.387 234.052 225.099 233.899 224.741Z" fill="#2F2E41"/>
<path d="M210.86 114.382C215.567 114.382 219.383 110.556 219.383 105.836C219.383 101.117 215.567 97.291 210.86 97.291C206.152 97.291 202.336 101.117 202.336 105.836C202.336 110.556 206.152 114.382 210.86 114.382Z" fill="#FFB8B8"/>
<path d="M201.035 143.024L200.926 143.001L200.9 142.893C199.752 138.032 199.725 132.727 200.819 127.126C201.374 124.263 202.919 121.689 205.181 119.856C207.444 118.023 210.279 117.049 213.187 117.106C216.343 117.17 219.355 118.441 221.607 120.658C223.859 122.876 225.181 125.872 225.302 129.034C225.667 138.668 221.74 147.02 221.7 147.103L221.642 147.226L201.035 143.024Z" fill="#E4C1F9"/>
<path d="M178.186 159.281C178.69 159.206 179.173 159.021 179.598 158.739C180.024 158.458 180.383 158.086 180.65 157.65C180.917 157.214 181.085 156.724 181.143 156.216C181.2 155.708 181.146 155.193 180.984 154.708L190.802 147.112L184.706 145.015L176.318 152.55C175.523 152.877 174.876 153.485 174.499 154.259C174.121 155.032 174.04 155.918 174.27 156.747C174.5 157.577 175.026 158.293 175.748 158.76C176.469 159.227 177.337 159.412 178.186 159.281V159.281Z" fill="#FFB8B8"/>
<path d="M183.548 153.552C183.228 153.741 182.852 153.81 182.486 153.745C182.12 153.681 181.79 153.487 181.554 153.199L178.857 149.93C178.72 149.764 178.619 149.572 178.559 149.364C178.5 149.157 178.484 148.94 178.513 148.726C178.541 148.513 178.613 148.307 178.724 148.123C178.835 147.938 178.983 147.779 179.159 147.654L190.743 139.441L204.72 120.913C205.115 120.277 205.662 119.75 206.311 119.38C206.96 119.01 207.692 118.809 208.438 118.794C208.802 118.792 209.165 118.823 209.523 118.889C210.233 119.015 210.901 119.312 211.471 119.753C212.042 120.194 212.497 120.767 212.799 121.423C213.114 122.096 213.266 122.834 213.24 123.577C213.214 124.319 213.012 125.045 212.65 125.694L202.3 142.498L202.278 142.535L183.548 153.552Z" fill="#E4C1F9"/>
<path d="M212.384 105.306C211.756 104.27 210.37 103.977 209.166 104.096C207.962 104.214 206.792 104.638 205.583 104.628C202.225 104.602 199.633 100.499 201.045 97.4446C202.202 94.9394 205.094 93.8394 207.71 92.976C213.194 91.1658 219.494 89.4266 224.471 92.3616C226.057 93.3247 227.358 94.6947 228.239 96.3303C229.12 97.9659 229.55 99.8077 229.484 101.665C229.372 103.975 228.49 106.348 229.236 108.536C230.097 111.061 232.827 112.415 235.406 113.071C239.928 114.219 244.696 114.034 249.246 115.064C253.797 116.094 258.459 118.83 259.686 123.342C260.492 126.306 259.651 129.497 258.259 132.233C256.838 135.025 254.864 137.497 252.458 139.497C250.051 141.498 247.263 142.985 244.263 143.867C241.263 144.749 238.115 145.008 235.012 144.628C231.909 144.248 228.916 143.236 226.217 141.656C220.716 138.435 216.744 132.993 214.376 127.064C213.034 123.605 212.089 120.005 211.559 116.332C211.029 112.893 211.479 109.419 212.439 106.075C212.485 105.95 212.503 105.817 212.494 105.685C212.484 105.552 212.447 105.423 212.384 105.306Z" fill="#2F2E41"/>
<path d="M243.133 235H172.999C172.901 235 172.807 234.961 172.738 234.892C172.668 234.822 172.629 234.728 172.629 234.63C172.629 234.532 172.668 234.438 172.738 234.368C172.807 234.299 172.901 234.26 172.999 234.26H243.133C243.231 234.26 243.325 234.299 243.394 234.368C243.463 234.438 243.502 234.532 243.502 234.63C243.502 234.728 243.463 234.822 243.394 234.892C243.325 234.961 243.231 235 243.133 235Z" fill="#CCCCCC"/>
</g>
<defs>
<clipPath id="clip0">
<rect width="260" height="235" fill="white"/>
</clipPath>
</defs>
</svg>
