<svg width="260" height="203" viewBox="0 0 260 203" fill="none" xmlns="http://www.w3.org/2000/svg">
<g clip-path="url(#clip0)">
<path d="M229.075 188.187C229.056 188.103 227.223 179.747 230.965 172.807C234.708 165.867 242.696 162.806 242.776 162.776L243.142 162.639L243.228 163.02C243.247 163.103 245.079 171.459 241.337 178.4C237.595 185.34 229.606 188.4 229.526 188.43L229.161 188.567L229.075 188.187ZM242.641 163.568C241.041 164.256 234.725 167.269 231.565 173.13C228.404 178.992 229.357 185.924 229.661 187.639C231.261 186.952 237.574 183.944 240.738 178.076C243.898 172.215 242.945 165.283 242.641 163.568Z" fill="#3F3D56"/>
<path d="M238.477 175.965C231.752 180.011 229.162 188.048 229.162 188.048C229.162 188.048 237.475 189.524 244.2 185.478C250.926 181.432 253.516 173.395 253.516 173.395C253.516 173.395 245.202 171.919 238.477 175.965Z" fill="#D0CDE1"/>
<path d="M92.3601 151.619C91.5603 151.619 90.7525 151.606 89.9595 151.581L89.9775 151.005C91.1161 151.041 92.2782 151.051 93.4221 151.035L93.43 151.611C93.0739 151.616 92.7173 151.619 92.3601 151.619ZM96.8986 151.485L96.8648 150.91C98.0051 150.842 99.1601 150.748 100.298 150.629L100.358 151.202C99.2116 151.322 98.0479 151.417 96.8986 151.485ZM86.494 151.395C85.3441 151.307 84.1821 151.192 83.0401 151.051L83.1105 150.479C84.2438 150.618 85.3968 150.733 86.5379 150.82L86.494 151.395ZM103.8 150.761L103.714 150.192C104.847 150.02 105.989 149.82 107.106 149.598L107.219 150.163C106.092 150.387 104.942 150.588 103.8 150.761ZM79.6061 150.55C78.4701 150.358 77.3234 150.137 76.198 149.892L76.3203 149.329C77.4372 149.571 78.5749 149.791 79.7023 149.982L79.6061 150.55ZM110.607 149.408L110.468 148.849C111.58 148.574 112.699 148.27 113.792 147.945L113.956 148.498C112.854 148.825 111.727 149.131 110.607 149.408ZM72.8242 149.078C71.7099 148.782 70.5886 148.456 69.4913 148.108L69.665 147.559C70.754 147.903 71.8667 148.227 72.9723 148.521L72.8242 149.078ZM117.26 147.435L117.071 146.89C118.15 146.515 119.236 146.109 120.298 145.684L120.512 146.22C119.442 146.648 118.348 147.057 117.26 147.435ZM66.1981 146.983C65.1159 146.585 64.027 146.156 62.9618 145.707L63.1856 145.176C64.2426 145.621 65.3231 146.047 66.3972 146.442L66.1981 146.983ZM123.696 144.859L123.458 144.335C124.494 143.864 125.536 143.361 126.554 142.84L126.816 143.354C125.79 143.878 124.741 144.385 123.696 144.859ZM129.864 141.706L129.579 141.206C130.573 140.639 131.565 140.042 132.528 139.433L132.836 139.92C131.866 140.534 130.866 141.135 129.864 141.706ZM135.723 138L135.393 137.528C136.329 136.874 137.263 136.189 138.169 135.493L138.52 135.95C137.607 136.651 136.666 137.341 135.723 138ZM47.8571 137.188C46.9266 136.512 45.9971 135.804 45.0942 135.084L45.454 134.633C46.3499 135.348 47.2724 136.051 48.1957 136.722L47.8571 137.188ZM141.222 133.774L140.85 133.333C141.722 132.597 142.59 131.83 143.431 131.053L143.822 131.476C142.976 132.259 142.101 133.032 141.222 133.774ZM42.4307 132.856C41.5642 132.097 40.7032 131.307 39.872 130.509L40.2711 130.093C41.0962 130.885 41.9505 131.669 42.8105 132.422L42.4307 132.856ZM146.316 129.062L145.905 128.657C146.71 127.842 147.505 126.999 148.269 126.151L148.698 126.536C147.928 127.391 147.126 128.241 146.316 129.062ZM37.4233 128.05C36.6282 127.214 35.843 126.349 35.0894 125.481L35.5249 125.103C36.2727 125.965 37.0518 126.823 37.841 127.652L37.4233 128.05ZM150.962 123.905L150.517 123.539C151.244 122.655 151.959 121.742 152.644 120.826L153.105 121.172C152.415 122.094 151.694 123.014 150.962 123.905ZM32.8753 122.81C32.1613 121.908 31.4583 120.977 30.7857 120.042L31.2535 119.705C31.9211 120.633 32.6187 121.557 33.3274 122.453L32.8753 122.81ZM155.121 118.343L154.645 118.019C155.287 117.073 155.917 116.099 156.516 115.123L157.007 115.425C156.404 116.408 155.769 117.389 155.121 118.343ZM28.8251 117.182C28.1969 116.219 27.5821 115.228 26.9976 114.236L27.4942 113.943C28.0743 114.928 28.6845 115.911 29.3078 116.866L28.8251 117.182ZM158.758 112.423L158.253 112.144C158.807 111.142 159.344 110.114 159.852 109.087L160.369 109.342C159.857 110.377 159.315 111.413 158.758 112.423H158.758ZM161.836 106.19L161.308 105.959C161.768 104.91 162.209 103.835 162.619 102.766L163.158 102.972C162.744 104.05 162.299 105.133 161.836 106.19H161.836ZM22.3523 104.946C21.9103 103.886 21.4871 102.801 21.0944 101.721L21.6363 101.524C22.0259 102.595 22.4459 103.672 22.8843 104.725L22.3523 104.946ZM164.329 99.6957L163.782 99.5144C164.142 98.4304 164.481 97.3224 164.791 96.2209L165.346 96.3769C165.034 97.4868 164.692 98.6035 164.329 99.6957ZM19.984 98.4323C19.641 97.3337 19.3186 96.2114 19.026 95.0961L19.5837 94.9497C19.874 96.0565 20.1939 97.1704 20.5343 98.2606L19.984 98.4323ZM166.208 93.0147L165.647 92.8841C165.905 91.7731 166.141 90.6384 166.348 89.5121L166.915 89.6163C166.706 90.7515 166.468 91.8947 166.208 93.0147ZM18.2232 91.7193C17.9828 90.5933 17.7652 89.4463 17.5766 88.3093L18.1453 88.2147C18.3326 89.3432 18.5485 90.4816 18.7871 91.5988L18.2232 91.7193ZM167.465 86.1897L166.893 86.1114C167.048 84.9823 167.179 83.831 167.282 82.6893L167.857 82.7411C167.753 83.8918 167.62 85.0519 167.465 86.1897ZM17.0871 84.8734C16.9512 83.7322 16.8395 82.5699 16.7552 81.4189L17.3303 81.3767C17.4138 82.5193 17.5247 83.6726 17.6597 84.8053L17.0871 84.8734ZM168.091 79.2787L167.515 79.2528C167.567 78.1105 167.593 76.9519 167.593 75.8093H168.169C168.169 76.9606 168.143 78.128 168.091 79.2787ZM16.5806 77.9523C16.5609 77.2455 16.5509 76.5243 16.5507 75.8093C16.5507 75.3657 16.5545 74.9229 16.5621 74.481L17.1386 74.4911C17.131 74.9297 17.1272 75.3691 17.1272 75.8093C17.1274 76.519 17.1374 77.2348 17.1568 77.9366L16.5806 77.9523ZM17.2754 71.0494L16.7001 71.0134C16.772 69.8615 16.8713 68.6981 16.9951 67.5554L17.5682 67.6175C17.4453 68.7516 17.3469 69.9062 17.2754 71.0494H17.2754ZM167.221 67.5323C167.106 66.3958 166.947 65.8417 166.78 64.7101L167.35 64.6259C167.519 65.7661 167.663 66.6365 167.779 67.7816L167.221 67.5323ZM18.017 64.2027L17.4473 64.1146C17.6239 62.9741 17.8291 61.8246 18.0573 60.6977L18.6222 60.812C18.3959 61.9304 18.1923 63.0711 18.017 64.2027H18.017ZM166.198 61.3157C165.978 60.1911 165.73 59.0591 165.461 57.9512L166.021 57.8149C166.292 58.9313 166.542 60.0721 166.764 61.2051L166.198 61.3157ZM19.3825 57.4528L18.8234 57.3126C19.1033 56.1961 19.4134 55.0702 19.745 53.9662L20.297 54.132C19.9681 55.2276 19.6604 56.3448 19.3825 57.4528ZM164.569 54.6241C164.247 53.5264 163.896 52.4222 163.525 51.3419L164.07 51.1544C164.444 52.2431 164.798 53.3559 165.122 54.4619L164.569 54.6241ZM21.3671 50.848L20.8232 50.6568C21.2063 49.567 21.62 48.472 22.0526 47.4022L22.5872 47.6184C22.1578 48.6799 21.7472 49.7666 21.3671 50.848ZM162.33 48.1112C161.91 47.0502 161.459 45.9855 160.991 44.9463L161.517 44.7096C161.989 45.7568 162.442 46.8297 162.866 47.8986L162.33 48.1112ZM23.9545 44.4496L23.4307 44.209C23.9122 43.1604 24.4246 42.1089 24.9538 41.0837L25.4662 41.348C24.9409 42.3655 24.4324 43.409 23.9545 44.4496ZM159.509 41.8451C158.993 40.8274 158.446 39.8076 157.884 38.8143L158.386 38.5303C158.952 39.5313 159.503 40.5589 160.023 41.5845L159.509 41.8451ZM27.1187 38.32L26.619 38.0323C27.1941 37.0337 27.8006 36.0341 28.4217 35.0616L28.9075 35.3718C28.2912 36.337 27.6892 37.329 27.1187 38.32ZM156.122 35.8598C155.513 34.89 154.875 33.9239 154.226 32.9883L154.699 32.6598C155.353 33.6026 155.996 34.576 156.61 35.5532L156.122 35.8598ZM30.8293 32.5093L30.3581 32.1771C31.0227 31.2346 31.7175 30.2951 32.4238 29.3847L32.8793 29.738C32.1785 30.6416 31.4887 31.5739 30.8293 32.5093ZM152.2 30.2056C151.506 29.2956 150.782 28.3911 150.049 27.517L150.491 27.1467C151.229 28.0275 151.959 28.9388 152.659 29.8557L152.2 30.2056ZM35.0531 27.064L34.6143 26.6901C35.3601 25.8141 36.1374 24.9422 36.9246 24.0986L37.346 24.4918C36.5649 25.3291 35.7934 26.1946 35.0531 27.064ZM147.778 24.9286C147.004 24.0856 146.201 23.2502 145.391 22.4456L145.797 22.0366C146.613 22.8475 147.423 23.6891 148.203 24.5384L147.778 24.9286ZM39.7529 22.0276L39.3498 21.6155C40.1742 20.809 41.0272 20.0117 41.8851 19.2458L42.269 19.6759C41.4176 20.4359 40.5711 21.2272 39.7529 22.0276V22.0276ZM142.893 20.0734C142.045 19.3036 141.168 18.5444 140.289 17.8169L140.657 17.3727C141.542 18.1057 142.425 18.8707 143.281 19.6463L142.893 20.0734ZM44.889 17.4411L44.525 16.9941C45.4167 16.268 46.3381 15.5519 47.264 14.8656L47.6074 15.3287C46.6884 16.0099 45.7739 16.7205 44.889 17.4411H44.889ZM50.4182 13.343L50.0965 12.8648C51.0507 12.2227 52.0331 11.594 53.0165 10.9956L53.316 11.4883C52.3403 12.0819 51.3653 12.706 50.4182 13.343H50.4182ZM56.2949 9.76834L56.0182 9.2625C57.0278 8.71007 58.063 8.17411 59.0949 7.66925L59.3483 8.1872C58.3242 8.68812 57.2969 9.22 56.2949 9.76834ZM125.87 8.43266C124.844 7.92161 123.793 7.42787 122.746 6.96524L122.979 6.438C124.034 6.90416 125.093 7.40169 126.127 7.91668L125.87 8.43266ZM62.4698 6.74807L62.2406 6.21914C63.2957 5.76186 64.3749 5.32329 65.4482 4.91555L65.6529 5.45461C64.5877 5.85912 63.5168 6.2943 62.4698 6.74807ZM119.558 5.64279C118.49 5.22886 117.398 4.83392 116.311 4.4691L116.494 3.92244C117.59 4.29022 118.691 4.6881 119.766 5.10542L119.558 5.64279ZM68.9002 4.30626L68.7206 3.75847C69.8162 3.39929 70.934 3.06108 72.0428 2.75354L72.1969 3.30893C71.0965 3.61421 69.9873 3.94976 68.9002 4.30626H68.9002ZM113.02 3.44911C111.921 3.13567 110.8 2.84376 109.687 2.58155L109.82 2.02054C110.941 2.28472 112.07 2.57888 113.179 2.89457L113.02 3.44911ZM75.5362 2.46459L75.4079 1.90259C76.531 1.64601 77.6752 1.41223 78.8083 1.20787L78.9108 1.77508C77.7861 1.97803 76.6508 2.20998 75.5362 2.46459ZM106.318 1.86881C105.195 1.6581 104.052 1.47064 102.919 1.3116L102.999 0.74073C104.14 0.901043 105.293 1.08992 106.424 1.30217L106.318 1.86881ZM82.3136 1.24151L82.2373 0.670078C83.3785 0.51779 84.5391 0.389711 85.6867 0.289781L85.7368 0.864026C84.5979 0.963391 83.4463 1.09033 82.3136 1.24151ZM99.4979 0.910754C98.3623 0.803785 97.2065 0.721308 96.0623 0.665996L96.0904 0.0900623C97.2431 0.145939 98.4076 0.228979 99.5519 0.336804L99.4979 0.910754ZM89.1744 0.642914L89.1502 0.0669931C90.2097 0.0227988 91.2895 0.000282484 92.3601 0L92.621 0.00042004L92.6193 0.576917L92.3601 0.576497C91.2977 0.576765 90.2258 0.59914 89.1744 0.642914Z" fill="#3F3D56"/>
<path d="M260 188.022H48.714V188.599H260V188.022Z" fill="#3F3D56"/>
<path d="M172.376 91.0937L175.258 135.772C175.258 135.772 182.176 153.355 181.888 170.074C181.888 170.074 179.294 176.704 181.311 177.856C183.329 179.009 184.482 179.874 183.329 180.739C182.176 181.604 181.311 183.621 182.176 184.198C183.041 184.774 183.329 185.639 183.041 185.639H174.393C174.393 185.639 176.123 181.315 173.529 180.162C170.934 179.009 172.376 176.127 172.376 176.127L153.063 119.63L137.786 171.515C137.786 171.515 140.38 173.245 138.362 174.109C136.345 174.974 135.48 173.245 136.345 174.974C137.209 176.704 136.056 177.568 136.056 177.856C136.056 178.145 127.409 176.992 127.409 176.992C127.409 176.992 131.733 173.245 129.715 172.38C127.697 171.515 126.832 170.65 127.409 170.074C127.985 169.497 130.291 164.021 130.291 164.021C130.291 164.021 131.444 143.267 131.733 142.402C132.021 141.537 131.733 137.502 131.733 135.484C131.733 133.466 131.444 125.395 132.309 123.378C133.174 121.36 134.039 96.5704 138.651 93.6879C143.263 90.8055 172.376 91.0937 172.376 91.0937Z" fill="#2F2E41"/>
<path d="M135.768 176.415C135.768 176.415 141.533 188.234 137.498 189.675C133.462 191.116 128.274 189.963 127.121 191.693C125.968 193.422 113.285 195.44 112.996 191.116C112.708 186.792 126.832 178.721 126.832 178.721L128.672 175.759L135.768 176.415Z" fill="#2F2E41"/>
<path d="M182.464 185.063C182.464 185.063 188.229 196.881 184.194 198.322C180.158 199.764 174.97 198.611 173.817 200.34C172.664 202.07 159.981 204.087 159.693 199.764C159.404 195.44 173.529 187.369 173.529 187.369L175.369 184.406L182.464 185.063Z" fill="#2F2E41"/>
<path d="M155.801 36.7589C161.055 36.7589 165.314 32.5001 165.314 27.2467C165.314 21.9933 161.055 17.7345 155.801 17.7345C150.548 17.7345 146.289 21.9933 146.289 27.2467C146.289 32.5001 150.548 36.7589 155.801 36.7589Z" fill="#A0616A"/>
<path d="M162.287 32.291L161.134 40.6502L152.487 47.2799L150.181 44.1092V33.1558L162.287 32.291Z" fill="#A0616A"/>
<path d="M148.739 42.9563C148.739 42.9563 157.675 43.821 162.287 40.6503L171.511 95.1292C171.511 95.1292 138.939 97.7235 137.498 95.994V78.9873L143.263 51.3155L148.739 42.9563Z" fill="#3F3D56"/>
<path d="M161.493 38.0457L164.593 40.6503C164.593 40.6503 177.276 42.6681 176.411 46.127L172.952 87.0583L174.105 100.894C174.105 100.894 164.305 98.3 156.81 100.894C149.316 103.488 155.27 45.146 155.27 45.146C155.27 45.146 162.141 38.9 161.493 38.0457Z" fill="#D0CDE1"/>
<path d="M150.181 41.2007C150.181 41.2007 140.957 47.8565 139.804 52.1802C138.651 56.504 134.903 102.047 134.903 102.047C134.903 102.047 136.633 101.182 137.498 102.624C138.362 104.065 151.622 43.4806 150.181 41.2007Z" fill="#D0CDE1"/>
<path d="M146.294 26.8323C146.294 26.8323 145.264 25.2876 145.66 23.6242C145.897 22.6798 145.99 21.7052 145.937 20.733C145.937 20.733 146.769 18.0398 147.601 16.5347C148.432 15.0297 148.036 14.396 150.65 13.9207C153.264 13.4455 152.195 10.0394 159.086 13.7227C159.319 14.0473 159.642 14.2958 160.016 14.4368C160.39 14.5778 160.797 14.6049 161.186 14.5148C162.611 14.2376 163.126 16.2179 163.126 16.2179C163.126 16.2179 164.077 15.6634 164.433 16.4555C164.79 17.2476 167.331 15.9801 167.331 21.3269C167.331 26.6737 164.439 31.4498 164.439 31.4498C164.439 31.4498 164.651 22.4558 159.938 21.5449C155.225 20.634 150.155 17.9804 148.928 21.3865C148.265 23.2982 147.381 25.1258 146.294 26.8323Z" fill="#2F2E41"/>
<path d="M164.542 28.9708C165.056 28.9708 165.472 28.4158 165.472 27.7312C165.472 27.0467 165.056 26.4917 164.542 26.4917C164.029 26.4917 163.613 27.0467 163.613 27.7312C163.613 28.4158 164.029 28.9708 164.542 28.9708Z" fill="#A0616A"/>
<path d="M125.475 116.87C123.194 115.499 120.444 115.603 119.398 115.708C119.796 116.68 120.991 119.16 123.272 120.532C125.558 121.907 128.305 121.799 129.349 121.695C128.951 120.723 127.756 118.243 125.475 116.87Z" fill="#D0CDE1"/>
<path d="M136.193 144.088H121.937C121.086 144.088 120.271 144.426 119.669 145.027C119.068 145.629 118.73 146.445 118.73 147.295C118.73 148.146 119.068 148.962 119.669 149.563C120.271 150.165 121.086 150.503 121.937 150.503H136.193C137.043 150.502 137.858 150.164 138.459 149.562C139.06 148.961 139.397 148.146 139.397 147.295C139.397 146.445 139.06 145.63 138.459 145.028C137.858 144.427 137.043 144.089 136.193 144.088Z" fill="#D0CDE1"/>
<path d="M200.747 110.231H120.82C119.891 110.231 118.97 110.414 118.111 110.77C117.252 111.125 116.471 111.647 115.814 112.304C115.156 112.962 114.635 113.742 114.279 114.601C113.923 115.46 113.74 116.381 113.74 117.311V156.253C113.74 158.13 114.486 159.931 115.814 161.259C117.142 162.587 118.943 163.333 120.82 163.333H200.747C201.677 163.333 202.597 163.15 203.456 162.794C204.315 162.438 205.096 161.917 205.753 161.259C206.411 160.602 206.932 159.821 207.288 158.962C207.644 158.103 207.827 157.182 207.827 156.253V117.311C207.827 116.381 207.644 115.46 207.288 114.601C206.932 113.742 206.411 112.962 205.753 112.304C205.096 111.647 204.315 111.125 203.456 110.77C202.597 110.414 201.677 110.231 200.747 110.231ZM118.843 115.06C119.001 115.032 122.743 114.395 125.842 116.26C128.941 118.124 130.132 121.73 130.181 121.882L130.306 122.271L129.904 122.342C129.33 122.432 128.75 122.474 128.17 122.469C126.762 122.469 124.723 122.237 122.904 121.142C119.805 119.278 118.615 115.673 118.566 115.521L118.441 115.132L118.843 115.06ZM136.193 151.216H121.937C120.897 151.216 119.9 150.803 119.165 150.067C118.43 149.332 118.017 148.335 118.017 147.295C118.017 146.256 118.43 145.258 119.165 144.523C119.9 143.788 120.897 143.375 121.937 143.375H136.193C137.232 143.375 138.23 143.788 138.965 144.523C139.7 145.258 140.113 146.256 140.113 147.295C140.113 148.335 139.7 149.332 138.965 150.067C138.23 150.803 137.232 151.216 136.193 151.216ZM201.056 150.503C201.052 151.636 200.601 152.722 199.799 153.523C198.998 154.325 197.912 154.776 196.779 154.779H186.087C184.954 154.776 183.868 154.324 183.067 153.523C182.266 152.722 181.814 151.636 181.811 150.503V144.088C181.814 142.955 182.266 141.869 183.067 141.067C183.868 140.266 184.954 139.814 186.087 139.811H196.779C197.912 139.814 198.998 140.266 199.799 141.067C200.601 141.869 201.052 142.955 201.056 144.088L201.056 150.503Z" fill="#D0CDE1"/>
<path d="M189.473 149.255H184.84C184.509 149.255 184.192 149.387 183.958 149.621C183.724 149.855 183.593 150.172 183.593 150.503C183.593 150.834 183.724 151.151 183.958 151.385C184.192 151.619 184.509 151.75 184.84 151.75H189.473C189.804 151.75 190.121 151.619 190.355 151.385C190.589 151.151 190.72 150.834 190.72 150.503C190.72 150.172 190.589 149.855 190.355 149.621C190.121 149.387 189.804 149.255 189.473 149.255ZM189.473 151.037H184.84C184.77 151.037 184.7 151.024 184.635 150.997C184.57 150.97 184.511 150.931 184.461 150.881C184.411 150.832 184.372 150.773 184.345 150.708C184.318 150.643 184.304 150.573 184.304 150.503C184.304 150.432 184.318 150.363 184.345 150.298C184.372 150.233 184.411 150.174 184.461 150.124C184.511 150.075 184.57 150.035 184.635 150.008C184.7 149.982 184.77 149.968 184.84 149.968H189.473C189.543 149.968 189.613 149.982 189.678 150.008C189.743 150.035 189.802 150.075 189.852 150.124C189.902 150.174 189.941 150.233 189.968 150.298C189.995 150.363 190.009 150.432 190.009 150.503C190.009 150.573 189.995 150.643 189.968 150.708C189.941 150.773 189.902 150.832 189.852 150.881C189.802 150.931 189.743 150.97 189.678 150.997C189.613 151.024 189.543 151.037 189.473 151.037Z" fill="#D0CDE1"/>
<path d="M198.026 149.255H193.393C193.229 149.255 193.067 149.287 192.915 149.35C192.764 149.412 192.626 149.504 192.51 149.62C192.394 149.736 192.302 149.873 192.239 150.025C192.176 150.176 192.144 150.339 192.144 150.503C192.144 150.667 192.176 150.829 192.239 150.981C192.302 151.132 192.394 151.27 192.51 151.385C192.626 151.501 192.764 151.593 192.915 151.656C193.067 151.718 193.229 151.75 193.393 151.75H198.026C198.357 151.75 198.675 151.619 198.908 151.385C199.142 151.151 199.274 150.834 199.274 150.503C199.274 150.172 199.142 149.855 198.908 149.621C198.675 149.387 198.357 149.255 198.026 149.255ZM198.026 151.037H193.393C193.323 151.037 193.253 151.024 193.188 150.997C193.123 150.97 193.064 150.931 193.015 150.881C192.965 150.832 192.925 150.773 192.898 150.708C192.871 150.643 192.858 150.573 192.858 150.503C192.858 150.432 192.871 150.363 192.898 150.298C192.925 150.233 192.965 150.174 193.015 150.124C193.064 150.075 193.123 150.035 193.188 150.009C193.253 149.982 193.323 149.968 193.393 149.968H198.026C198.168 149.968 198.304 150.025 198.404 150.125C198.504 150.225 198.56 150.361 198.56 150.503C198.56 150.644 198.504 150.78 198.404 150.88C198.304 150.981 198.168 151.037 198.026 151.037Z" fill="#D0CDE1"/>
<path d="M189.473 146.048H184.84C184.509 146.048 184.192 146.179 183.958 146.413C183.724 146.647 183.593 146.964 183.593 147.295C183.593 147.626 183.724 147.943 183.958 148.177C184.192 148.411 184.509 148.543 184.84 148.543H189.473C189.637 148.543 189.799 148.511 189.951 148.448C190.103 148.386 190.24 148.294 190.356 148.178C190.472 148.062 190.564 147.924 190.627 147.773C190.69 147.622 190.722 147.459 190.722 147.295C190.722 147.131 190.69 146.969 190.627 146.817C190.564 146.666 190.472 146.528 190.356 146.413C190.24 146.297 190.103 146.205 189.951 146.142C189.799 146.08 189.637 146.048 189.473 146.048ZM189.473 147.83H184.84C184.698 147.83 184.562 147.773 184.462 147.673C184.362 147.573 184.305 147.437 184.305 147.295C184.305 147.153 184.362 147.017 184.462 146.917C184.562 146.817 184.698 146.761 184.84 146.761H189.473C189.615 146.761 189.751 146.817 189.851 146.917C189.951 147.017 190.008 147.153 190.008 147.295C190.008 147.437 189.951 147.573 189.851 147.673C189.751 147.773 189.615 147.83 189.473 147.83Z" fill="#D0CDE1"/>
<path d="M198.026 146.048H193.393C193.229 146.048 193.067 146.08 192.915 146.142C192.764 146.205 192.626 146.297 192.51 146.413C192.394 146.528 192.302 146.666 192.239 146.817C192.176 146.969 192.144 147.131 192.144 147.295C192.144 147.459 192.176 147.622 192.239 147.773C192.302 147.924 192.394 148.062 192.51 148.178C192.626 148.294 192.764 148.386 192.915 148.448C193.067 148.511 193.229 148.543 193.393 148.543H198.026C198.357 148.543 198.675 148.411 198.908 148.177C199.142 147.943 199.274 147.626 199.274 147.295C199.274 146.964 199.142 146.647 198.908 146.413C198.675 146.179 198.357 146.048 198.026 146.048ZM198.026 147.83H193.393C193.252 147.83 193.116 147.773 193.015 147.673C192.915 147.573 192.859 147.437 192.859 147.295C192.859 147.153 192.915 147.017 193.015 146.917C193.116 146.817 193.252 146.761 193.393 146.761H198.026C198.168 146.761 198.304 146.817 198.404 146.917C198.505 147.017 198.561 147.153 198.561 147.295C198.561 147.437 198.505 147.573 198.404 147.673C198.304 147.773 198.168 147.83 198.026 147.83Z" fill="#D0CDE1"/>
<path d="M189.473 142.84H184.84C184.509 142.84 184.192 142.972 183.958 143.206C183.724 143.44 183.593 143.757 183.593 144.088C183.593 144.419 183.724 144.736 183.958 144.97C184.192 145.204 184.509 145.335 184.84 145.335H189.473C189.804 145.335 190.121 145.204 190.355 144.97C190.589 144.736 190.72 144.419 190.72 144.088C190.72 143.757 190.589 143.44 190.355 143.206C190.121 142.972 189.804 142.84 189.473 142.84ZM189.473 144.622H184.84C184.698 144.622 184.562 144.566 184.462 144.466C184.362 144.365 184.305 144.229 184.305 144.088C184.305 143.946 184.362 143.81 184.462 143.71C184.562 143.609 184.698 143.553 184.84 143.553H189.473C189.615 143.553 189.751 143.609 189.851 143.71C189.951 143.81 190.008 143.946 190.008 144.088C190.008 144.229 189.951 144.365 189.851 144.466C189.751 144.566 189.615 144.622 189.473 144.622Z" fill="#D0CDE1"/>
<path d="M198.026 142.84H193.393C193.229 142.84 193.067 142.872 192.915 142.935C192.764 142.997 192.626 143.089 192.51 143.205C192.394 143.321 192.302 143.458 192.239 143.61C192.176 143.761 192.144 143.924 192.144 144.088C192.144 144.252 192.176 144.414 192.239 144.565C192.302 144.717 192.394 144.855 192.51 144.97C192.626 145.086 192.764 145.178 192.915 145.241C193.067 145.303 193.229 145.335 193.393 145.335H198.026C198.357 145.335 198.674 145.203 198.907 144.969C199.141 144.735 199.272 144.418 199.272 144.088C199.272 143.757 199.141 143.44 198.907 143.206C198.674 142.972 198.357 142.841 198.026 142.84ZM198.026 144.622H193.393C193.252 144.622 193.116 144.566 193.015 144.466C192.915 144.365 192.859 144.229 192.859 144.088C192.859 143.946 192.915 143.81 193.015 143.71C193.116 143.609 193.252 143.553 193.393 143.553H198.026C198.168 143.553 198.304 143.609 198.404 143.71C198.505 143.81 198.561 143.946 198.561 144.088C198.561 144.229 198.505 144.365 198.404 144.466C198.304 144.566 198.168 144.622 198.026 144.622Z" fill="#D0CDE1"/>
<path d="M175.546 101.471L173.48 108.213C173.48 108.213 172.952 120.783 166.034 119.054C159.116 117.324 168.052 102.624 168.052 102.624L170.07 99.4529L175.546 101.471Z" fill="#A0616A"/>
<path d="M136.345 101.471L134.278 108.213C134.278 108.213 133.75 120.783 126.832 119.054C119.914 117.324 128.85 102.624 128.85 102.624L130.868 99.4529L136.345 101.471Z" fill="#A0616A"/>
<path d="M174.105 44.1093C174.105 44.1093 178.717 42.9563 180.158 50.739C181.6 58.5217 183.329 80.7169 183.329 80.7169L176.411 104.065C176.411 104.065 169.493 100.318 168.052 100.894L173.496 80.6244L168.917 59.963C168.917 59.963 172.952 44.1093 174.105 44.1093Z" fill="#D0CDE1"/>
<path opacity="0.15" d="M167.399 60.3572L173.453 80.5346L167.399 101L170.858 80.5346L167.399 60.3572Z" fill="black"/>
<path d="M139.804 59.9629L129.427 100.894C129.427 100.894 134.9 102.701 136.918 104.142L139.804 59.9629Z" fill="#D0CDE1"/>
<path d="M30.947 162.827C46.8665 162.827 59.7718 149.922 59.7718 134.002C59.7718 118.083 46.8665 105.177 30.947 105.177C15.0275 105.177 2.12213 118.083 2.12213 134.002C2.12213 149.922 15.0275 162.827 30.947 162.827Z" fill="#3F3D56"/>
<path opacity="0.1" d="M30.947 158.792C44.6378 158.792 55.7364 147.693 55.7364 134.002C55.7364 120.311 44.6378 109.213 30.947 109.213C17.2562 109.213 6.15762 120.311 6.15762 134.002C6.15762 147.693 17.2562 158.792 30.947 158.792Z" fill="black"/>
<path d="M29.7592 148.63V145.022C27.9353 144.987 26.0485 144.343 24.948 143.45L25.7026 141.057C27.0105 142.037 28.5966 142.575 30.2308 142.593C32.4635 142.593 33.9729 141.128 33.9729 139.092C33.9729 137.127 32.7465 135.913 30.4195 134.841C27.212 133.412 25.2309 131.769 25.2309 128.661C25.2309 125.696 27.0863 123.445 29.9793 122.91V119.302H31.9289V122.767C33.3827 122.787 34.8007 123.22 36.017 124.017L35.2307 126.375C34.0643 125.576 32.6821 125.153 31.2686 125.16C28.8473 125.16 27.9353 126.803 27.9353 128.232C27.9353 130.09 29.0988 131.019 31.8346 132.305C35.0735 133.805 36.7088 135.663 36.7088 138.842C36.7088 141.664 34.9792 144.308 31.7402 144.915V148.63H29.7592Z" fill="#AAF5C8"/>
<path d="M61.3969 192.634C41.0438 195.67 20.3531 195.67 0 192.634V185.716C20.3747 188.445 41.0222 188.445 61.3969 185.716V192.634Z" fill="#3F3D56"/>
<path d="M61.3969 181.969C41.0438 185.004 20.3531 185.004 0 181.969V175.051C20.3747 177.78 41.0222 177.78 61.3969 175.051V181.969Z" fill="#3F3D56"/>
<path d="M61.3969 171.304C41.0438 174.339 20.3531 174.339 0 171.304V164.386C20.3747 167.114 41.0222 167.114 61.3969 164.386V171.304Z" fill="#3F3D56"/>
</g>
<defs>
<clipPath id="clip0">
<rect width="260" height="202.353" fill="white"/>
</clipPath>
</defs>
</svg>
